<svg width="500" height="507" viewBox="0 0 500 507" fill="none" xmlns="http://www.w3.org/2000/svg">
<path fill-rule="evenodd" clip-rule="evenodd" d="M235.867 398.551C165.141 383.072 70.906 352.354 86.3914 246.955C101.877 141.556 168.258 100.917 250.383 100.917C332.505 100.917 425.809 162.875 407.492 291.227C389.176 419.579 306.593 414.03 235.867 398.551ZM468.338 271.5C471.258 242.172 468.155 213.154 459.82 185.952L483.602 173.212C487.611 171.066 489.119 166.077 486.976 162.07L454.507 101.451C452.357 97.4437 447.368 95.9355 443.359 98.0819L419.577 110.821C401.547 88.8143 379.11 70.1528 353.083 56.3329L360.885 30.5191C362.203 26.1675 359.742 21.574 355.389 20.2585L289.565 0.354398C285.211 -0.961137 280.621 1.49958 279.303 5.85112L271.502 31.6649C242.169 28.7452 220.8 39.4934 193.597 47.824L180.856 24.0409C178.711 20.0335 173.722 18.5253 169.715 20.6716L109.096 53.1429C105.089 55.2893 103.581 60.2776 105.727 64.2844L118.467 88.0681C96.4594 106.097 70.1527 120.889 56.3328 146.92L30.5184 139.115C26.1675 137.799 21.5733 140.26 20.2578 144.611L0.354401 210.436C-0.961132 214.787 1.49958 219.381 5.85044 220.697L31.6649 228.502C28.7452 257.829 31.8481 286.848 40.1787 314.05L16.3957 326.79C12.3882 328.937 10.88 333.925 13.0264 337.932L45.4976 398.551C47.644 402.558 52.6323 404.067 56.6391 401.92L80.4228 389.18C98.4515 411.188 120.889 429.849 146.92 443.669L139.115 469.483C137.799 473.834 140.26 478.428 144.611 479.744L210.437 499.644C214.784 500.963 219.38 498.502 220.699 494.148L228.5 468.337C257.826 471.257 286.847 468.153 314.05 459.823L326.786 483.607C328.936 487.613 333.925 489.119 337.934 486.975L398.553 454.504C402.555 452.358 404.069 447.369 401.919 443.362L389.176 419.579C411.187 401.55 429.845 379.113 443.67 353.081L469.48 360.887C473.834 362.202 478.431 359.742 479.742 355.391L499.644 289.566C500.963 285.215 498.502 280.621 494.148 279.305L468.338 271.5Z" fill="#64FCD9"/>
<path fill-rule="evenodd" clip-rule="evenodd" d="M340.978 123.51L338.686 123.432L338.621 125.469C338.512 129.133 338.562 133.053 338.617 137.327C338.655 140.306 338.695 143.457 338.686 146.812L338.305 153.439C338.315 159.613 338.359 168.205 338.435 179.218L338.684 210.566C337 211.125 335.733 212.58 335.48 214.349C334.09 214.561 333.023 215.741 333.023 217.161C333.023 218.166 333.558 219.051 334.363 219.557L333.383 221.928C332.947 222.981 332.228 223.881 331.304 224.531C327.253 227.381 324.868 231.996 324.925 236.878C324.926 237.007 324.929 237.137 324.934 237.266C324.952 237.734 325.353 238.094 325.831 238.082C326.309 238.064 326.682 237.671 326.664 237.203C326.66 237.088 326.657 236.974 326.656 236.858C326.606 232.53 329.485 228.436 333.078 225.909C334.269 225.071 335.193 223.915 335.752 222.564L336.045 220.007H337.276C337.276 220.007 337.704 222.309 337.704 224.108C337.704 225.907 337.276 229.471 337.276 229.471H335.857C334.232 229.471 332.91 230.766 332.91 232.358C332.91 233.949 334.232 235.244 335.857 235.244H336.06C337.685 235.244 338.243 234.413 338.243 232.358C338.243 231.282 338.362 230.512 340.117 230.512C341.873 230.512 341.421 232.358 341.421 232.358C341.421 233.949 342.743 235.244 344.368 235.244H344.571C346.196 235.244 347.518 233.949 347.518 232.358C347.518 230.766 344.777 229.42 343.152 229.42C343.152 229.42 342.719 226.181 342.719 224.531C342.719 223.14 343.152 220.297 343.152 220.297H341.421C341.421 220.297 341.782 222.951 341.782 224.571C341.782 226.191 341.421 229.42 341.421 229.42C341.421 229.42 340.466 229.592 340.011 229.602C339.556 229.611 339.007 229.471 339.007 229.471C339.007 229.471 338.628 226.16 338.628 224.571C338.628 222.982 339.007 220.007 339.007 220.007H341.421H343.152H344.383L345.44 222.564C345.972 223.848 347.562 224.976 348.775 225.835L348.928 225.944C352.441 228.438 353.773 232.461 353.773 236.704C353.773 240.289 352.338 243.648 349.731 246.165C347.125 248.68 343.675 250.802 340.011 250.749C337.107 250.708 334.137 249.107 331.815 247.373C329.567 245.693 326.656 241.098 326.171 240.038C325.686 238.977 325.458 240.651 325.599 241.098C326.532 244.056 328.44 246.726 330.972 248.618C333.591 250.575 336.708 251.634 339.986 251.68C344.117 251.739 348.008 250.21 350.946 247.373C353.886 244.535 355.505 240.746 355.505 236.704C355.505 231.919 353.14 227.383 349.18 224.571C348.215 223.886 347.477 222.972 347.045 221.927L346.065 219.557C346.87 219.051 347.405 218.167 347.405 217.161C347.405 215.741 346.338 214.561 344.948 214.349C344.662 212.354 343.089 210.759 341.08 210.398L340.968 210.398L339.641 181.246C339.562 170.15 340.599 147.971 340.599 147.971C340.618 139.442 340.722 131.964 340.913 125.539L340.978 123.51ZM344.367 233.548C343.697 233.548 343.152 233.014 343.152 232.357V230.512C343.152 230.512 345.786 231.04 345.786 232.357C345.786 233.566 345.327 233.559 344.734 233.55C344.68 233.549 344.626 233.548 344.571 233.548H344.367ZM333.979 232.357C334.091 234.015 337.53 234.738 337.276 232.357V230.512C337.276 230.512 333.867 230.699 333.979 232.357ZM337.245 214.315C337.563 212.998 338.774 212.015 340.214 212.015C341.654 212.015 342.865 212.998 343.183 214.315H337.245ZM344.5 216.011H344.13H336.298H335.928C335.281 216.011 334.754 216.527 334.754 217.161C334.754 217.795 335.281 218.311 335.928 218.311H344.5C345.148 218.311 345.674 217.795 345.674 217.161C345.674 216.527 345.147 216.011 344.5 216.011ZM359.335 223.394H360.848C361.275 223.394 361.621 223.052 361.621 222.63C361.621 222.208 361.275 221.865 360.848 221.865H359.335C358.908 221.865 358.563 222.208 358.563 222.63C358.563 223.052 358.908 223.394 359.335 223.394ZM358.133 228.807L359.589 229.42C359.999 229.592 360.199 230.081 360.034 230.512C359.869 230.943 359.403 231.152 358.993 230.979L357.537 230.366C357.126 230.194 356.927 229.704 357.091 229.274C357.217 228.946 357.517 228.746 357.835 228.746C357.934 228.746 358.035 228.766 358.133 228.807ZM356.834 216.339L358.198 215.245C358.582 214.936 358.678 214.325 358.412 213.879C358.248 213.603 357.983 213.456 357.715 213.456C357.549 213.456 357.381 213.512 357.234 213.63L355.87 214.725C355.485 215.033 355.389 215.645 355.655 216.091C355.921 216.536 356.449 216.648 356.834 216.339ZM320.328 223.394H318.815C318.389 223.394 318.043 223.052 318.043 222.63C318.043 222.208 318.389 221.865 318.815 221.865H320.328C320.755 221.865 321.101 222.208 321.101 222.63C321.101 223.052 320.755 223.394 320.328 223.394ZM321.531 228.807L320.075 229.42C319.664 229.592 319.465 230.082 319.63 230.512C319.794 230.943 320.261 231.152 320.671 230.979L322.127 230.366C322.538 230.194 322.737 229.704 322.572 229.274C322.447 228.946 322.146 228.746 321.829 228.746C321.729 228.746 321.628 228.766 321.531 228.807ZM322.83 216.339L321.466 215.245C321.081 214.936 320.985 214.325 321.251 213.879C321.416 213.603 321.68 213.456 321.949 213.456C322.115 213.456 322.283 213.512 322.43 213.63L323.794 214.725C324.179 215.033 324.275 215.645 324.008 216.091C323.742 216.536 323.215 216.648 322.83 216.339Z" fill="#FFB61D"/>
<path d="M228.035 336.989C236.468 339.208 240.795 344.491 244.45 349.41C248.112 354.329 240.061 351.989 235.619 350.213C231.178 348.438 220.482 341.871 220.482 341.871L185.023 331.146V314.746L195.627 314.127C195.627 314.127 219.595 334.769 228.035 336.989Z" fill="white"/>
<path d="M191.293 216.873C198.877 245.576 202.792 273.04 203.411 299.387C203.411 299.387 210.514 300.274 209.627 306.489C208.74 312.704 190.093 329.572 190.093 329.572L183.633 308.158L181.217 229.25L191.293 216.873" fill="white"/>
<path fill-rule="evenodd" clip-rule="evenodd" d="M193.881 231.563L189.526 228.675C189.248 228.49 188.881 228.633 188.781 228.966L187.262 234.009C187.136 234.429 187.514 234.823 187.905 234.679L193.779 232.524C194.179 232.377 194.24 231.802 193.881 231.563ZM193.354 232.397L188.002 233.945L189.595 229.358L193.354 232.397Z" fill="#FFB61D"/>
<path fill-rule="evenodd" clip-rule="evenodd" d="M191.969 267.878L187.615 264.99C187.336 264.805 186.969 264.948 186.869 265.281L185.351 270.324C185.224 270.744 185.602 271.138 185.994 270.994L191.867 268.839C192.268 268.692 192.329 268.117 191.969 267.878ZM191.442 268.712L186.091 270.26L187.684 265.673L191.442 268.712Z" fill="#FFB61D"/>
<path fill-rule="evenodd" clip-rule="evenodd" d="M189.68 288.28L190.004 283.065C190.025 282.732 189.717 282.485 189.379 282.565L184.252 283.772C183.825 283.872 183.673 284.396 183.993 284.663L188.796 288.673C189.124 288.946 189.653 288.711 189.68 288.28ZM188.694 288.241L184.678 284.38L189.447 283.466L188.694 288.241Z" fill="#FFB61D"/>
<path fill-rule="evenodd" clip-rule="evenodd" d="M197.934 284.432L192.718 284.108C192.385 284.087 192.139 284.395 192.218 284.733L193.425 289.86C193.525 290.287 194.049 290.439 194.317 290.119L198.326 285.316C198.599 284.988 198.364 284.459 197.934 284.432ZM197.894 285.418L194.033 289.435L193.119 284.666L197.894 285.418Z" fill="#FFB61D"/>
<path fill-rule="evenodd" clip-rule="evenodd" d="M193.907 311.021L189.228 313.348C188.929 313.496 188.87 313.886 189.108 314.139L192.716 317.976C193.017 318.295 193.547 318.165 193.618 317.754L194.688 311.59C194.761 311.169 194.293 310.829 193.907 311.021ZM194.366 311.894L193.03 317.303L189.854 313.63L194.366 311.894Z" fill="#FFB61D"/>
<path fill-rule="evenodd" clip-rule="evenodd" d="M196.201 296.495L191.522 298.822C191.223 298.97 191.164 299.36 191.401 299.613L195.01 303.45C195.31 303.769 195.84 303.639 195.912 303.228L196.982 297.064C197.055 296.643 196.587 296.303 196.201 296.495ZM196.659 297.368L195.324 302.777L192.148 299.104L196.659 297.368Z" fill="#FFB61D"/>
<path d="M165.867 234.133L160.722 249.666C148.961 285.238 143.17 303.294 142.996 304.987C142.888 306.039 143.526 306.825 144.509 307.092C145.1 307.253 145.823 307.244 146.72 307.111C148.117 306.904 149.984 306.38 152.239 305.601C153.981 304.999 155.865 304.276 157.772 303.496L158.575 303.164C158.836 303.056 159.089 302.949 159.335 302.845L160.609 302.296L160.973 302.135L161.185 301.798C161.561 301.2 162.096 300.142 162.624 298.691C163.088 297.417 163.458 296.052 163.701 294.609L163.787 294.065C163.862 293.535 164.589 292.31 166.088 290.217L167.133 288.787C167.99 287.631 169.639 285.424 169.805 285.201L170.775 283.888C171.701 282.625 172.51 281.496 173.301 280.359C177.265 274.651 180.066 269.655 181.719 264.848C183.121 260.77 183.612 256.991 183.057 253.518C182.207 248.215 182.533 243.149 183.774 238.394C184.805 234.443 181.544 230.798 176.843 229.458C171.985 228.074 167.357 229.642 165.867 234.133Z" fill="white"/>
<path d="M174.478 211.164C177.343 214.206 179.748 216.525 181.691 218.122C184.964 220.812 189.656 223.696 195.767 226.772C177.074 231.101 165.66 231.957 161.525 229.34C161.525 229.34 163.247 221.234 165.722 217.761C167.565 215.176 174.478 211.164 174.478 211.164Z" fill="white"/>
<path d="M204.213 172.088C200.329 186.839 189.717 202.239 178.418 199.265C167.118 196.29 160.864 176.129 164.748 161.378C168.632 146.627 180.941 137.081 192.24 140.055C203.54 143.029 208.096 157.338 204.213 172.088" fill="white"/>
<path d="M206.798 176.793C202.402 193.674 190.393 211.297 177.606 207.894C164.818 204.489 157.74 181.417 162.136 164.536C166.531 147.655 180.461 136.73 193.249 140.133C206.036 143.537 211.193 159.913 206.798 176.793" fill="white"/>
<path fill-rule="evenodd" clip-rule="evenodd" d="M186.39 142.075C195.104 142.57 201.463 145.433 205.028 150.477L205.43 151.06C207.194 153.605 208.676 155.206 209.324 160.023L209.387 160.534C209.757 163.703 209.866 167.045 209.675 168.154C209.572 168.623 209.371 168.786 209.118 168.737C208.542 168.624 207.05 165.974 204.644 160.786L202.624 163.15C201.524 164.42 199.193 165.617 197.812 166.516C196.43 167.416 186.39 142.075 186.39 142.075Z" fill="#E7EAEE"/>
<path fill-rule="evenodd" clip-rule="evenodd" d="M195.188 189.993C200.04 192.017 203.726 194.645 204.703 193.552C205.681 192.459 202.348 189.13 199.758 184.609C197.047 180.113 194.472 174.45 193.99 172.146L192.758 166.322C189.152 170.872 185.776 186.137 195.188 189.993Z" fill="white"/>
<path d="M251.601 467.983L251.338 484.177H242.127L239.368 465.596L251.601 467.983" fill="white"/>
<path d="M150.723 381.871C150.723 381.871 210.489 380.552 229.276 377.842C250.132 374.834 261.538 367.724 266.074 368.564C268.199 368.958 280.744 371.181 306.921 373.965C317.992 375.143 346.729 375.324 346.729 375.324L357.883 351.584C357.883 351.584 279.394 335.826 254.578 342.646C246.773 344.791 229.87 347.887 209.773 346.757C192.394 345.779 145.129 336.599 145.129 336.599C145.129 336.599 126.046 343.449 129.5 360.295C132.955 377.142 150.723 381.871 150.723 381.871Z" fill="white"/>
<path fill-rule="evenodd" clip-rule="evenodd" d="M351.489 361.741L355.162 351.103C355.162 351.103 276.805 336.487 251.99 343.307C244.184 345.453 237.131 348.99 217.033 347.859C209.34 347.427 196.186 345.626 177.571 342.458C168.154 340.855 166.642 341.448 174.043 346.288C191.205 357.511 229.38 354.866 264.017 349.808C328.392 340.409 351.489 361.741 351.489 361.741Z" fill="#E7EAEE"/>
<path d="M241.203 471.66C237.304 475.968 232.136 483.063 234.796 490.166L280.966 504.371C280.966 504.371 282.74 499.042 280.079 494.608C277.411 490.166 252.221 472.642 252.221 472.642L241.203 471.66Z" fill="white"/>
<path fill-rule="evenodd" clip-rule="evenodd" d="M262.514 481.282C262.82 481.199 263.135 481.38 263.217 481.685C263.3 481.991 263.119 482.306 262.814 482.389C261.31 482.796 260.319 483.746 259.971 484.949C259.52 486.505 259.471 488.096 259.982 490.642C260.045 490.952 259.844 491.255 259.533 491.317C259.223 491.379 258.92 491.178 258.858 490.868C258.311 488.145 258.366 486.367 258.869 484.63C259.331 483.037 260.629 481.792 262.514 481.282Z" fill="#E7EAEE"/>
<path fill-rule="evenodd" clip-rule="evenodd" d="M237.09 490.93L282.511 504.295C282.511 504.295 288.28 503.082 282.315 502.235C276.187 501.364 240.305 484.933 236.359 487.926C235.798 488.352 236.742 490.002 237.09 490.93Z" fill="#E7EAEE"/>
<path d="M123.912 378.483C123.912 378.483 144.408 384.952 160.912 387.377C177.417 389.803 210.338 391.183 210.338 391.183C210.338 391.183 220.616 396.77 221.279 399.357C221.538 400.365 223.095 413.683 227.401 430.695C229.427 438.698 240.251 474.887 240.251 474.887L254.578 468.545C254.578 468.545 254.003 402.029 244.857 379.968C235.712 357.907 141.704 336.479 141.704 336.479C141.704 336.479 121.752 332.87 116.321 349.187C110.889 365.503 123.912 378.483 123.912 378.483Z" fill="white"/>
<path fill-rule="evenodd" clip-rule="evenodd" d="M242.545 472.593L256.872 466.251C256.489 421.907 253.248 392.382 247.151 377.674C247.151 377.674 253.382 455.971 242.545 472.593Z" fill="#E7EAEE"/>
<path d="M367.478 362.614C371.043 367.202 377.133 373.524 384.589 372.137L406.596 329.135C406.596 329.135 400.933 326.63 396.104 328.481C391.267 330.337 369.995 352.535 369.995 352.535L367.478 362.614Z" fill="white"/>
<path fill-rule="evenodd" clip-rule="evenodd" d="M271.893 488.918C272.122 488.699 272.485 488.706 272.704 488.935C272.923 489.164 272.915 489.527 272.687 489.746C271.354 491.022 271.107 493.161 271.871 494.453C272.033 494.725 271.943 495.077 271.67 495.238C271.398 495.399 271.046 495.309 270.885 495.037C269.854 493.296 270.169 490.57 271.893 488.918Z" fill="#E7EAEE"/>
<path fill-rule="evenodd" clip-rule="evenodd" d="M267.209 485.136C267.44 484.92 267.803 484.931 268.02 485.162C268.237 485.393 268.225 485.755 267.994 485.972L267.684 486.27C265.273 488.643 264.582 490.718 266.705 492.943C266.923 493.173 266.915 493.536 266.686 493.754C266.457 493.973 266.094 493.964 265.875 493.735C264.306 492.09 263.984 490.314 264.679 488.535C265.158 487.309 265.993 486.28 267.209 485.136Z" fill="#E7EAEE"/>
<path fill-rule="evenodd" clip-rule="evenodd" d="M245.14 484.385C246.456 486.901 253.444 485.868 252.228 478.91C251.653 475.618 241.495 477.417 245.14 484.385Z" fill="#E7EAEE"/>
<path fill-rule="evenodd" clip-rule="evenodd" d="M380.227 372.937C389.461 362.384 394.769 338.651 402.373 330.485C405.057 327.602 408.539 326.955 404.792 333.78C397.935 346.266 384.756 372.937 384.756 372.937C384.058 373.286 383.196 372.937 382.416 372.937H380.227Z" fill="#E7EAEE"/>
<path d="M228.035 336.989C236.468 339.209 240.795 344.491 244.45 349.41C248.112 354.329 240.061 351.989 235.619 350.213C231.178 348.438 222.681 341.699 222.681 341.699L228.035 336.989Z" fill="white"/>
<path d="M151.223 317.014C151.223 317.014 198.693 337.406 205.382 337.432C212.064 337.46 228.463 345.423 229.35 351.637C230.428 359.198 201.827 348.086 201.827 348.086C201.827 348.086 137.905 348.086 127.256 337.432C116.599 326.779 123.7 304.584 123.7 304.584L151.223 317.014" fill="white"/>
<path d="M139.679 222.019C139.679 222.019 151.223 229.12 152.997 252.204C154.771 275.286 147.668 302.809 147.668 302.809C147.668 302.809 152.11 306.36 152.997 309.911C153.884 313.462 151.185 318.15 151.185 318.15C151.185 318.15 124.589 331.218 122.813 332.106C121.038 332.994 113.935 330.33 113.935 323.228C113.935 316.126 116.599 309.911 116.599 309.911C117.873 263.057 110.384 217.579 139.679 222.019" fill="white"/>
<path fill-rule="evenodd" clip-rule="evenodd" d="M186.705 172.901C189.435 169.245 195.207 168.054 196.747 173.827C196.747 173.827 197.931 177.31 195.545 179.462C188.239 186.055 183.974 176.558 186.705 172.901Z" fill="white"/>
<path fill-rule="evenodd" clip-rule="evenodd" d="M201.954 176.868C204.548 173.394 210.031 172.263 211.494 177.747C211.494 177.747 212.618 181.056 210.352 183.101C203.411 189.364 199.359 180.342 201.954 176.868Z" fill="white"/>
<path d="M180.711 221.333C180.711 221.333 180.711 264.009 181.338 287.857C181.965 311.705 176.499 335.202 166.055 353.577C155.612 371.953 157.033 398.24 149.335 400.194C88.4445 415.649 104.838 226.515 127.368 214.429C149.897 202.344 157.34 199.783 157.34 199.783" fill="white"/>
<path fill-rule="evenodd" clip-rule="evenodd" d="M149.483 233.307L144.235 241.142C143.8 241.791 144.129 242.677 144.883 242.885L151.885 244.821C152.699 245.046 153.468 244.344 153.319 243.513L151.564 233.742C151.382 232.727 150.057 232.45 149.483 233.307ZM150.623 234.512L152.19 243.716L146.102 241.142L150.623 234.512Z" fill="#FFB61D"/>
<path fill-rule="evenodd" clip-rule="evenodd" d="M132.599 225.654L126.415 235.581C126.02 236.215 126.327 237.051 127.039 237.279L137.836 240.741C138.735 241.029 139.578 240.168 139.271 239.275L134.657 225.887C134.343 224.974 133.11 224.835 132.599 225.654ZM134.066 226.864L137.225 239.275L127.863 235.581L134.066 226.864Z" fill="#FFB61D"/>
<path fill-rule="evenodd" clip-rule="evenodd" d="M128.789 300.754L132.996 316.562C133.254 317.533 134.549 317.726 135.079 316.871L141.333 306.787C141.68 306.228 141.486 305.493 140.909 305.177L130.448 299.453C129.564 298.969 128.53 299.779 128.789 300.754ZM129.898 301.223L139.594 306.183L134.104 316.267L129.898 301.223Z" fill="#FFB61D"/>
<path fill-rule="evenodd" clip-rule="evenodd" d="M120.366 358.8L122.66 369.636C122.87 370.63 124.174 370.88 124.737 370.033L130.933 360.711C131.39 360.023 130.992 359.092 130.179 358.947L121.689 357.434C120.888 357.291 120.198 358.004 120.366 358.8ZM122.367 358.629L129.725 361.237L123.376 368.486L122.367 358.629Z" fill="#FFB61D"/>
<path fill-rule="evenodd" clip-rule="evenodd" d="M140.244 356.507L142.537 367.343C142.748 368.337 144.052 368.586 144.614 367.74L150.811 358.417C151.268 357.729 150.87 356.798 150.057 356.653L141.567 355.14C140.766 354.997 140.075 355.711 140.244 356.507ZM141.305 357.449L149.871 357.213L142.822 366.27L141.305 357.449Z" fill="#FFB61D"/>
<path fill-rule="evenodd" clip-rule="evenodd" d="M129.54 334.335L131.834 345.171C132.044 346.166 133.348 346.415 133.911 345.569L140.107 336.246C140.565 335.558 140.167 334.627 139.354 334.482L130.864 332.969C130.063 332.826 129.372 333.539 129.54 334.335ZM130.662 334.098L138.388 336.376L132.191 344.169L130.662 334.098Z" fill="#FFB61D"/>
<path fill-rule="evenodd" clip-rule="evenodd" d="M383.407 369.4C382.831 370.525 381.885 370.995 380.625 371.065C376.136 371.315 372.577 369.335 369.402 366.449C368.198 365.355 367.131 364.111 365.924 363.02C365.076 362.253 364.166 361.753 362.842 362.228C361.828 362.592 360.638 362.455 359.529 362.568C357.029 362.823 354.535 363.156 352.029 363.338C350.432 363.454 350.393 364.817 350.018 365.757C349.17 367.883 348.537 370.097 347.862 372.29C347.6 373.141 347.184 373.478 346.227 373.466C341.452 373.407 336.675 373.412 331.899 373.451C329.724 373.469 327.548 373.729 325.376 373.68C321.291 373.588 317.2 373.456 313.127 373.144C309.186 372.841 305.267 372.273 301.335 371.853C298.574 371.559 295.795 371.403 293.045 371.03C289.846 370.595 286.675 369.963 283.484 369.473C281.887 369.227 280.264 369.155 278.666 368.919C275.924 368.516 273.183 368.097 270.46 367.589C267.933 367.118 265.555 367.607 263.177 368.392C258.546 369.921 253.903 371.415 249.257 372.9C248.431 373.165 248.187 373.382 248.56 374.385C249.928 378.067 251.21 381.789 252.324 385.555C253.11 388.212 253.654 390.95 254.158 393.68C254.776 397.024 255.293 400.39 255.754 403.76C256.106 406.335 256.329 408.929 256.56 411.518C256.854 414.81 257.132 418.103 257.354 421.4C257.574 424.683 257.76 427.97 257.884 431.258C258.096 436.841 258.254 442.427 258.422 448.012C258.524 451.394 258.588 454.777 258.699 458.158C258.731 459.14 259.046 460.147 258.897 461.089C258.784 461.8 258.279 462.794 257.699 463.018C256.207 463.593 255.775 464.704 255.788 466.233C255.805 468.186 256.05 470.14 255.999 472.089C255.967 473.331 256.442 474.198 257.345 474.856C261.448 477.85 265.592 480.787 269.693 483.783C271.64 485.205 273.559 486.668 275.425 488.194C277.423 489.828 279.381 491.516 281.286 493.257C283.184 494.993 284.194 497.115 284.514 499.762C284.762 501.815 284.499 503.721 284.157 505.674C283.979 506.69 283.398 507.107 282.341 506.762C277.899 505.312 273.465 503.835 269.002 502.454C261.629 500.172 254.236 497.956 246.852 495.714C244.219 494.916 241.587 494.118 238.951 493.329C237.337 492.845 236.996 491.398 236.696 490.087C235.845 486.36 236.945 482.968 238.91 479.843C240.113 477.931 241.515 476.143 242.83 474.301C243.905 472.797 243.627 471.256 243.096 469.629C241.364 464.33 239.662 459.021 238.026 453.693C236.41 448.433 234.809 443.166 233.346 437.862C231.799 432.257 230.395 426.611 228.98 420.97C228.215 417.918 227.493 414.852 226.873 411.767C226.41 409.461 226.148 407.114 225.784 404.787C225.349 402.007 225.087 399.181 224.371 396.474C224.063 395.309 222.933 394.244 221.948 393.4C219.801 391.562 217.336 390.193 214.658 389.257C213.996 389.026 213.279 388.866 212.581 388.84C209.258 388.714 205.931 388.681 202.609 388.548C199.363 388.417 196.119 388.236 192.878 388.018C189.536 387.793 186.196 387.524 182.86 387.224C179.289 386.903 175.705 386.649 172.159 386.137C168.401 385.594 164.677 384.805 160.947 384.075C159.734 383.838 158.848 384.574 158.66 386.284C158.248 390.024 156.978 393.499 155.469 396.901C154.38 399.355 152.327 400.582 149.794 401C147.986 401.299 146.133 401.584 144.314 401.515C139.137 401.319 134.52 399.612 130.414 396.328C125.205 392.164 122.158 386.6 119.563 380.667C118.4 378.009 116.903 375.472 115.991 372.736C114.999 369.764 114.498 366.628 113.808 363.557C113.27 361.168 112.722 358.779 112.271 356.372C111.913 354.469 111.688 352.541 111.417 350.623C111.056 348.074 110.701 345.524 110.358 342.973C110.244 342.128 110.132 341.28 110.097 340.43C109.986 337.772 109.931 335.11 109.818 332.452C109.66 328.723 109.365 324.996 109.316 321.266C109.231 314.887 109.24 308.505 109.316 302.126C109.35 299.324 109.587 296.52 109.839 293.727C110.125 290.552 110.559 287.391 110.875 284.218C111.101 281.954 111.171 279.672 111.431 277.412C111.812 274.096 112.23 270.781 112.76 267.487C113.391 263.568 114.112 259.662 114.875 255.767C116.317 248.395 117.996 241.068 120.744 234.063C122.495 229.601 124.323 225.048 127.897 221.68C129.444 220.222 131.593 219.381 133.516 218.346C138.792 215.506 144.096 212.717 149.374 209.88C149.62 209.747 149.832 209.361 149.873 209.068C150.012 208.051 149.95 206.992 150.2 206.009C150.363 205.368 150.812 204.665 151.343 204.278C153.124 202.979 154.989 201.795 156.846 200.605C157.178 200.392 157.649 200.205 158.014 200.264C159.971 200.58 160.954 199.375 161.625 197.893C162.533 195.886 163.363 193.833 164.067 191.746C165.235 188.29 166.412 184.825 167.296 181.291C167.6 180.072 167.132 178.618 166.856 177.305C166.296 174.632 165.831 171.911 164.93 169.35C164.353 167.712 163.186 166.227 162.071 164.845C159.189 161.272 157.674 157.27 158.159 152.685C158.37 150.694 159.224 148.839 160.713 147.392C162.465 145.69 164.262 144.033 166.02 142.336C167.302 141.099 167.21 140.154 165.541 138.945C163.205 137.252 160.966 135.424 158.732 133.597C156.824 132.037 156.003 129.807 155.497 127.522C154.81 124.413 154.727 121.277 155.995 118.243C158.023 113.39 160.945 109.384 166.295 107.874C171.01 106.543 175.713 106.634 179.945 109.306C183.789 111.735 186.231 115.352 187.306 119.817C188.566 125.056 187.131 129.771 184.483 134.255C184.262 134.631 184.239 135.124 184.124 135.563C184.518 135.637 184.909 135.76 185.305 135.778C190.398 136.01 195.46 136.576 200.021 139.003C206.007 142.189 209.773 147.239 211.434 153.811C211.682 154.795 211.68 155.853 211.713 156.879C211.824 160.377 211.833 163.881 212.04 167.374C212.083 168.103 212.641 168.998 213.237 169.465C216.1 171.707 217.073 177.197 214.411 180.446C214.145 180.771 213.919 181.129 213.657 181.458C212.634 182.745 211.151 183.37 209.675 183.107C208.416 182.883 208.31 183.307 207.895 184.235C207.008 186.216 205.946 188.133 204.801 189.98C203.267 192.456 201.7 194.929 199.925 197.233C198.854 198.625 197.406 199.745 196.049 200.894C194.403 202.288 192.662 203.57 190.986 204.929C190.15 205.607 189.233 205.957 188.164 205.803C187.057 205.643 186.433 206.266 186.109 207.163C185.483 208.896 184.916 210.654 184.422 212.429C184.318 212.803 184.538 213.348 184.765 213.72C186.741 216.973 188.704 220.236 190.769 223.433C192.445 226.028 194.351 228.477 195.973 231.103C196.976 232.727 197.64 234.56 198.453 236.302C199.87 239.339 201.317 242.364 202.671 245.43C202.95 246.061 203.026 246.868 202.929 247.557C202.787 248.559 201.799 248.88 200.727 248.233C199.482 247.481 198.31 246.602 197.144 245.727C196.422 245.186 195.773 244.548 195.087 243.958C195.008 243.89 194.901 243.853 194.807 243.801C194.793 243.921 194.751 244.044 194.767 244.16C194.959 245.508 195.113 246.864 195.371 248.2C195.637 249.58 196.042 250.933 196.323 252.311C196.879 255.047 197.417 257.788 197.916 260.536C198.476 263.626 199.015 266.721 199.502 269.823C199.752 271.418 199.837 273.038 200.053 274.64C200.379 277.061 200.788 279.471 201.093 281.894C201.259 283.218 201.296 284.559 201.369 285.894C201.47 287.713 201.536 289.534 201.64 291.353C201.898 295.841 202.158 300.329 202.441 304.815C202.512 305.927 203.165 306.782 204.167 307.1C207.016 308.005 209.007 311.331 208.527 314.108C208.416 314.753 208.272 315.421 207.988 316.003C207.307 317.399 208.196 318.192 209.08 318.918C210.515 320.097 212.01 321.205 213.509 322.304C217.068 324.912 220.651 327.486 224.209 330.094C227.433 332.457 230.99 334.099 234.806 335.263C237.871 336.198 240.477 337.97 242.927 340.012C244.13 341.016 245.172 342.5 247.077 342.134C249.775 341.615 252.464 341.053 255.155 340.499C255.966 340.331 256.762 340.087 257.577 339.946C260.416 339.458 262.092 337.449 263.763 335.372C265.006 333.826 266.392 332.395 267.685 330.889C270.23 327.925 272.747 324.938 275.291 321.973C276.555 320.499 277.856 319.058 279.133 317.595C282.732 313.472 286.309 309.33 289.929 305.227C291.827 303.076 293.804 300.995 295.736 298.874C296.255 298.303 296.812 297.745 297.223 297.1C297.848 296.119 298.486 295.818 299.707 296.213C302.378 297.078 302.33 296.913 300.463 298.961C297.119 302.63 293.885 306.4 290.593 310.115C288.983 311.932 287.319 313.701 285.722 315.529C282.92 318.736 280.161 321.98 277.365 325.193C275.38 327.473 273.371 329.732 271.362 331.991C269.808 333.739 268.232 335.467 266.682 337.22C266.547 337.373 266.44 337.797 266.488 337.827C266.867 338.064 267.294 338.415 267.692 338.399C270.938 338.273 274.179 338.024 277.425 337.914C279.854 337.831 282.291 337.83 284.72 337.914C287.834 338.022 290.952 338.156 294.051 338.453C297.505 338.784 300.939 339.316 304.383 339.753C307.914 340.2 311.456 340.569 314.975 341.1C318.491 341.63 321.978 342.345 325.487 342.928C328.392 343.412 331.319 343.771 334.22 344.276C337.921 344.92 341.603 345.669 345.298 346.348C347.892 346.824 350.497 347.239 353.091 347.716C355.593 348.176 358.081 348.709 360.585 349.154C362.163 349.434 363.755 349.717 365.349 349.782C366.018 349.81 366.87 349.446 367.365 348.975C371.159 345.366 374.835 341.635 378.645 338.044C382.909 334.026 387.369 330.233 392.176 326.861C394.376 325.318 396.84 325.587 399.236 325.795C400.634 325.916 401.984 326.589 403.352 327.024C404.475 327.381 404.575 328.074 404.076 329.054C401.808 333.506 399.58 337.979 397.31 342.43C395.349 346.278 393.352 350.107 391.304 354.01C388.628 359.185 386.022 364.295 383.407 369.4ZM173.48 336.569C174.673 333.12 175.719 329.614 176.66 326.088C177.271 323.797 177.617 321.432 178.01 319.088C178.413 316.68 178.75 314.259 179.076 311.839C179.455 309.028 180.044 306.215 180.09 303.395C180.182 297.734 179.948 292.068 179.885 286.403C179.847 282.941 179.827 279.477 179.894 276.016C179.948 273.294 178.364 271.265 177.209 269.032C176.441 267.546 175.629 266.046 175.139 264.459C174.238 261.548 173.506 258.581 172.808 255.612C172.331 253.583 171.979 251.519 171.666 249.456C171.302 247.07 170.518 244.828 169.499 242.662C169.413 242.48 168.697 242.348 168.621 242.45C168.21 243 167.904 243.629 167.572 244.236C166.982 245.317 166.085 246.346 165.88 247.498C165.471 249.798 164.411 251.771 163.327 253.745C162.653 254.973 161.517 255.005 160.728 253.878C159.88 252.666 158.964 251.443 158.423 250.087C157.151 246.9 156.012 243.654 154.952 240.389C153.56 236.097 152.247 231.778 150.997 227.443C150.345 225.18 149.694 222.881 149.42 220.553C149.152 218.272 149.364 215.934 149.357 213.621C149.357 213.414 149.293 213.207 149.259 213C149.165 213.074 149.08 213.162 148.977 213.219C146.552 214.553 144.143 215.915 141.695 217.205C139.268 218.484 136.828 219.747 134.344 220.912C131.623 222.188 128.891 223.504 127.314 226.177C125.609 229.069 123.615 231.826 122.588 235.086C121.529 238.447 120.33 241.77 119.409 245.167C118.466 248.643 117.823 252.198 116.973 255.701C116.431 257.938 115.536 260.108 115.18 262.367C114.637 265.815 114.301 269.308 114.106 272.794C113.939 275.786 113.952 278.786 113.548 281.767C113.234 284.081 113.021 286.409 112.739 288.728C112.309 292.258 111.536 295.781 111.481 299.317C111.358 307.143 111.681 314.976 111.644 322.805C111.625 326.909 112.237 330.92 112.72 334.964C113.257 339.454 113.575 343.97 114.087 348.464C114.435 351.517 114.783 354.589 115.434 357.586C116.495 362.467 117.634 367.343 119.05 372.129C120.816 378.101 123.41 383.727 127.062 388.829C129.345 392.018 132.131 394.63 135.57 396.507C140.233 399.052 145.233 398.832 150.243 398.055C151.065 397.927 152.128 397.296 152.48 396.596C153.466 394.634 154.327 392.565 154.889 390.446C155.687 387.435 156.039 384.307 156.822 381.291C158.112 376.319 159.736 371.43 160.952 366.441C161.954 362.331 163.863 358.623 165.521 354.802C166.742 351.991 168.185 349.276 169.662 346.385C170.944 343.116 172.334 339.885 173.48 336.569ZM217.492 387.331C219.905 388.806 222.27 390.37 224.565 392.021C225.999 393.052 227.029 394.55 227.343 396.282C228.071 400.293 228.553 404.348 229.257 408.363C229.751 411.182 230.46 413.962 231.046 416.765C231.524 419.046 231.966 421.335 232.419 423.622C232.864 425.869 233.298 428.118 233.748 430.364C234.092 432.076 234.447 433.785 234.809 435.493C235.395 438.255 235.861 441.051 236.617 443.765C237.362 446.439 238.483 449.006 239.301 451.663C240.663 456.083 242.352 460.363 244.309 464.553C244.773 465.546 245.553 465.346 246.015 465.165C248.943 464.019 251.831 462.768 254.7 461.48C255.605 461.073 256.087 460.286 256.045 459.209C255.932 456.286 255.853 453.361 255.773 450.436C255.677 446.938 255.595 443.439 255.506 439.94C255.418 436.514 255.399 433.085 255.221 429.664C255.047 426.321 254.719 422.987 254.442 419.651C254.098 415.494 253.777 411.336 253.369 407.185C253.087 404.319 252.829 401.437 252.287 398.614C251.349 393.727 250.196 388.88 249.138 384.016C247.904 378.347 245.522 373.408 240.81 369.697C237.222 366.871 233.458 364.348 229.389 362.332C224.886 360.102 220.334 357.931 215.661 356.098C210.319 354.003 205.13 351.355 199.248 350.873C196.422 350.641 193.619 350.146 190.797 349.846C188.534 349.605 186.252 349.537 183.989 349.289C180.409 348.897 176.842 348.376 173.258 348.024C172.755 347.975 171.999 348.447 171.69 348.902C170.982 349.947 170.449 351.116 169.896 352.259C168.169 355.83 166.146 359.3 164.832 363.018C163.095 367.932 161.917 373.042 160.509 378.071C159.711 380.921 159.694 381.048 162.178 381.568C165.052 382.171 167.972 382.571 170.884 382.972C172.789 383.234 174.719 383.306 176.63 383.526C180.252 383.942 183.866 384.44 187.49 384.831C189.797 385.08 192.116 385.23 194.432 385.367C197.895 385.573 201.358 385.765 204.824 385.891C206.9 385.967 208.98 385.905 211.323 385.905C213.499 385.865 215.625 386.19 217.492 387.331ZM321.491 370.784C323.723 370.888 325.957 370.998 328.191 371.045C333.371 371.155 338.551 371.243 343.732 371.305C344.766 371.318 345.697 370.89 345.976 369.825C347.477 364.095 350.429 358.782 350.808 352.719C350.904 351.182 350.238 350.096 348.668 349.821C347.031 349.535 345.414 349.133 343.781 348.821C341.727 348.43 339.665 348.087 337.608 347.709C335.762 347.369 333.918 347.017 332.074 346.66C330.725 346.4 329.381 346.112 328.031 345.857C325.447 345.368 322.86 344.89 320.272 344.416C318.503 344.092 316.736 343.76 314.961 343.475C313.584 343.254 312.194 343.115 310.813 342.913C307.898 342.488 304.984 342.047 302.07 341.61C300.405 341.361 298.744 341.087 297.076 340.862C294.851 340.562 292.62 340.054 290.394 340.067C284.808 340.099 279.221 340.344 273.637 340.562C270.966 340.666 268.291 340.815 265.637 341.114C264.152 341.282 262.723 341.752 261.645 343.004C259.89 345.043 258.006 346.97 256.232 348.994C255.112 350.272 254.064 351.616 253.041 352.973C251.687 354.769 250.036 355.86 247.675 355.677C243.808 355.378 239.936 355.158 236.069 354.862C234.634 354.751 233.206 354.537 231.779 354.338C229.359 353.999 226.947 353.606 224.524 353.289C222.208 352.986 219.884 352.734 217.559 352.496C216.903 352.428 216.233 352.465 215.572 352.502C215.44 352.51 215.32 352.734 215.195 352.859C215.33 352.922 215.468 352.979 215.599 353.047C216.763 353.655 217.895 354.331 219.093 354.86C222.605 356.411 226.227 357.737 229.651 359.459C234.622 361.959 239.262 365.012 243.48 368.683C244.788 369.821 246.043 370.666 248.188 370.381C251.588 369.928 254.766 369.09 257.817 367.605C261.923 365.607 266.101 363.968 270.822 364.947C273.554 365.514 276.301 366.01 279.029 366.595C280.758 366.965 282.443 367.576 284.185 367.835C286.345 368.155 288.543 368.212 290.724 368.402C294.69 368.747 298.654 369.114 302.62 369.458C305.312 369.692 308.007 369.903 310.833 370.256C314.386 370.433 317.938 370.618 321.491 370.784ZM183.316 294.157C183.355 295.216 183.313 296.278 183.33 297.338C183.413 302.296 183.491 307.255 183.602 312.212C183.634 313.65 183.571 315.134 183.9 316.513C184.568 319.306 185.443 322.052 186.295 324.798C186.66 325.973 187.168 327.093 188.497 327.559C189.654 327.963 190.773 328.473 191.932 328.87C193.651 329.461 194.178 329.238 195.3 327.665C195.67 327.144 196.098 326.664 196.515 326.178C199.201 323.045 201.968 319.979 204.555 316.767C206.464 314.396 206.133 310.581 202.936 309.357C202.592 309.226 202.251 309.067 201.894 308.993C200.005 308.602 200.092 308.607 200.029 306.822C199.805 300.443 200.554 294.048 199.551 287.676C199.151 285.133 199.316 282.502 198.948 279.951C198.376 275.982 197.584 272.043 196.857 268.097C196.169 264.364 195.48 260.631 194.727 256.911C194.165 254.135 193.489 251.382 192.884 248.615C192.422 246.504 192.06 244.369 191.502 242.284C191.352 241.721 190.652 241.304 190.205 240.82C189.682 241.326 188.765 241.786 188.701 242.344C188.38 245.172 187.944 248.054 188.193 250.86C188.478 254.083 188.962 257.279 188.347 260.479C187.645 264.125 186.479 267.627 184.503 270.817C183.408 272.586 182.59 274.421 182.776 276.609C182.96 278.774 183.02 280.953 183.051 283.127C183.095 286.221 183.062 289.315 183.062 292.674C183.151 293.168 183.297 293.66 183.316 294.157ZM169.402 184.596C169.179 184.941 168.87 185.259 168.746 185.637C167.486 189.493 166.335 193.387 164.988 197.213C164.177 199.518 162.903 201.574 160.798 203.022C159.268 204.075 157.841 205.275 156.344 206.377C155.606 206.92 155.761 207.39 156.222 208.05C157.599 210.024 159.055 211.966 160.205 214.07C161.792 216.975 163.151 220.006 164.564 223.003C165.94 225.924 167.377 228.824 168.569 231.82C169.581 234.366 170.126 237.099 171.167 239.63C172.109 241.918 173.119 244.174 173.46 246.624C173.577 247.457 173.847 247.464 174.478 247.462C178.273 247.449 181.937 246.947 185.136 244.688C185.41 244.495 185.641 244.098 185.693 243.765C185.819 242.959 185.797 242.131 185.892 241.319C185.958 240.746 186.332 240.126 186.198 239.626C185.7 237.769 185.036 235.957 184.457 234.121C183.349 230.613 181.896 227.143 181.797 223.443C181.696 219.677 182.035 215.895 182.293 212.128C182.398 210.592 182.699 209.05 183.088 207.556C183.544 205.804 183.435 205.325 181.854 204.47C179.252 203.064 177.009 201.173 175.405 198.734C172.788 194.753 170.777 190.47 170.06 185.518C169.841 185.211 169.621 184.903 169.402 184.596ZM207.149 183.421C207.222 183.278 207.865 182.831 206.908 182.67C205.941 182.507 204.848 182.038 204.184 181.345C202.881 179.986 201.803 178.404 200.708 176.86C200.398 176.423 200.289 176.158 199.853 176.682C199.577 177.014 199.217 177.278 198.941 177.611C196.548 180.502 193.105 181.73 189.882 180.926C186.017 179.963 183.661 175.843 183.609 172.269C183.588 170.844 183.137 169.65 181.999 168.83C180.105 167.466 178.157 166.176 176.21 164.887C175.12 164.165 174.081 164.401 173.8 165.539C173.104 168.356 172.237 171.18 171.994 174.049C171.693 177.597 171.836 181.18 172.683 184.721C174.111 190.687 175.964 196.356 180.832 200.56C183.971 203.271 187.848 203.881 191.586 202.24C195.29 200.615 197.566 197.607 199.779 194.478C201.64 191.847 203.495 189.212 205.485 186.446C206.048 185.442 206.631 184.448 207.149 183.421ZM367.556 360.608C370.129 363.883 373.122 366.617 377.219 367.939C379.748 368.756 380.675 368.612 382.075 365.943C384.931 360.498 387.754 355.036 390.569 349.57C391.693 347.387 392.733 345.16 393.859 342.978C396.059 338.715 398.287 334.467 400.517 330.22C400.924 329.445 400.537 328.744 399.938 328.664C397.857 328.386 395.661 327.792 393.729 329.077C391.181 330.772 388.616 332.477 386.273 334.433C382.718 337.4 379.293 340.531 375.921 343.707C374.392 345.148 373.1 346.846 371.74 348.461C370.666 349.737 369.288 350.811 368.879 352.554C368.501 354.166 368.128 355.779 367.753 357.657C367.312 358.619 366.819 359.671 367.556 360.608ZM279.915 502.963C280.522 503.011 281.69 502.735 281.696 502.572C281.774 500.289 282.206 497.87 280.157 496.087C277.494 493.77 274.914 491.346 272.136 489.175C267.655 485.672 263.044 482.336 258.484 478.933C256.855 477.717 255.235 476.426 253.161 476.109C251.306 475.825 249.413 475.788 247.551 475.539C245.98 475.329 244.911 476.01 243.957 477.141C241.643 479.883 239.96 482.932 239.324 486.493C238.826 489.284 239.724 490.822 241.977 491.485C246.266 492.748 250.525 494.114 254.807 495.406C257.875 496.331 260.971 497.165 264.033 498.11C268.498 499.489 272.944 500.93 277.663 502.345C278.413 502.564 279.153 502.903 279.915 502.963ZM189.829 330.995C186.866 329.822 183.921 328.605 180.952 327.45C180.075 327.109 179.328 327.008 179.039 328.36C178.725 329.827 178.055 331.215 177.571 332.649C176.497 335.829 175.418 339.008 174.402 342.206C174.214 342.797 173.928 343.627 175.095 343.74C176.617 343.887 178.129 344.141 179.652 344.251C182.627 344.468 185.604 344.68 188.584 344.778C193.011 344.925 197.442 344.977 201.871 345.055C203.285 345.08 204.701 345.054 206.115 345.062C206.46 345.064 206.824 345.039 207.144 345.139C210.979 346.338 214.8 347.579 218.638 348.766C222.499 349.96 226.367 351.132 230.491 350.902C231.923 350.822 232.186 350.553 231.659 349.236C231.372 348.517 230.973 347.784 230.444 347.23C227.86 344.522 224.706 342.632 221.331 341.078C218.643 339.84 216.015 338.459 212.991 338.148C211.575 338.002 210.149 337.798 208.774 337.442C206.59 336.877 204.424 336.222 202.289 335.495C199.619 334.586 196.988 333.565 194.075 332.592C192.659 332.061 191.235 331.551 189.829 330.995ZM156.514 213.905C155.272 211.981 153.966 210.099 152.683 208.202C152.504 207.938 152.309 207.685 152.122 207.426C151.998 207.861 151.823 208.288 151.759 208.731C151.547 210.196 151.428 211.676 151.176 213.133C150.678 216.017 150.407 218.851 152.277 221.414C152.395 221.577 152.488 221.771 152.541 221.965C153.229 224.464 153.904 226.966 154.59 229.466C154.763 230.099 154.944 230.73 155.152 231.353C156.046 234.029 157.13 236.658 157.804 239.389C158.496 242.193 159.026 245.012 160.464 247.574C160.877 248.31 161.01 249.199 161.315 250.001C161.406 250.241 161.706 250.626 161.801 250.597C162.105 250.502 162.505 250.301 162.607 250.039C163.794 246.991 164.366 243.662 166.618 241.102C168.53 238.929 168.133 236.707 166.96 234.386C166.502 233.479 166.218 232.486 165.809 231.552C164.924 229.533 164.077 227.493 163.087 225.526C162.221 223.807 161.174 222.181 160.221 220.505C159.552 219.327 158.907 218.135 158.119 216.816C157.588 215.843 157.113 214.834 156.514 213.905ZM228.19 335.635C224.315 333.131 220.385 330.699 216.63 328.025C213.486 325.785 210.572 323.224 207.516 320.857C206.692 320.219 205.745 320.007 204.902 320.969C203.537 322.529 202.145 324.067 200.782 325.629C199.767 326.792 198.791 327.99 197.774 329.152C196.98 330.06 197.063 330.547 198.227 330.895C201.966 332.013 205.732 333.042 209.46 334.196C214.549 335.771 219.632 337.372 224.675 339.087C226.288 339.635 227.71 340.744 229.322 341.3C230.958 341.865 232.708 342.16 234.432 342.4C236.424 342.678 238.441 342.789 240.451 342.914C240.771 342.934 241.111 342.647 241.442 342.502C241.246 342.23 241.097 341.9 240.846 341.694C237.66 339.087 233.855 337.741 229.899 336.306C229.326 336.087 228.694 335.96 228.19 335.635ZM177.731 265.772C178.224 267.641 179.394 268.55 181.197 268.719C182.753 268.865 183.21 268.012 183.59 266.874C184.133 265.245 184.672 263.614 185.182 261.975C186.315 258.333 186.152 254.664 185.474 250.962C185.253 249.754 185.305 248.496 185.25 247.261C185.242 247.082 185.333 246.898 185.378 246.716C185.196 246.769 185.008 246.806 184.834 246.878C183.741 247.33 182.689 247.956 181.553 248.211C179.425 248.689 177.256 249.005 175.09 249.282C174.254 249.388 173.759 249.476 174.024 250.499C174.275 251.466 174.375 252.47 174.575 253.451C175.004 255.564 175.455 257.674 175.898 260.05C176.517 261.955 177.221 263.838 177.731 265.772ZM200.408 245.82C200.614 245.994 200.843 246.142 201.062 246.302C201.061 246.006 201.143 245.678 201.045 245.418C200.47 243.891 199.934 242.34 199.233 240.87C197.736 237.732 196.361 234.505 194.534 231.564C192.738 228.672 190.32 226.173 188.412 223.342C187.045 221.314 186.078 219.018 184.911 216.853C184.732 216.52 184.435 216.25 184.193 215.951C184.081 216.303 183.867 216.657 183.875 217.005C183.931 219.266 183.96 221.532 184.15 223.784C184.279 225.32 184.538 226.867 184.951 228.35C185.409 229.997 186.24 231.543 186.669 233.195C187.17 235.128 188.088 236.352 189.96 237.384C193.065 239.097 196.27 240.877 198.453 244.136C199.104 244.698 199.752 245.264 200.408 245.82ZM186.586 170.872C185.567 172.356 187.457 177.554 188.484 177.94C195.675 180.647 197.725 176.015 197.82 174.744C198.007 172.22 198.318 169.661 195.932 167.614C189.639 166.362 188.233 168.474 186.586 170.872ZM214.122 172.973C213.155 170.566 211.693 168.995 209.146 169.545C207.846 169.825 206.701 170.855 205.506 171.578C202.938 173.132 202.602 173.982 203.5 176.735C204.398 179.491 206.494 181.07 209.16 181.606C211.366 182.05 212.944 180.681 214.11 178.622C214.404 176.741 214.887 174.879 214.122 172.973ZM204.599 169.86C205.636 169.123 206.759 168.031 207.878 167.991C209.813 167.921 209.498 166.739 209.29 165.809C208.707 163.208 207.945 160.646 207.201 158.085C206.692 156.331 206.261 156.23 205.026 157.465C202.909 159.581 200.766 161.656 198.107 163.117C197.276 163.574 197.162 164.626 197.756 165.455C197.977 165.764 198.278 166.029 198.444 166.362C199.261 168.006 200.002 169.689 200.875 171.302C201.068 171.658 200.921 172.919 202.168 171.991C202.974 171.274 203.725 170.481 204.599 169.86ZM360.756 360.132C362.561 359.796 364.495 359.333 364.774 356.932C364.821 356.528 365.005 356.143 365.097 355.743C365.666 353.26 365.021 352.465 362.535 352.198C360.195 351.947 357.872 351.528 355.546 351.153C354.302 350.952 354.073 351.185 353.935 352.451C353.745 354.205 353.472 355.954 353.144 357.688C352.857 359.208 353.282 360.41 354.618 360.708C356.666 360.531 358.744 360.506 360.756 360.132ZM252.394 473.129C252.647 473.118 253.076 472.617 253.085 472.331C253.148 470.434 253.102 468.534 253.124 466.635C253.135 465.568 252.318 465.532 251.731 465.719C250.453 466.127 249.238 466.733 248.005 467.276C247.114 467.668 246.113 467.985 246.221 469.27C246.297 470.177 246.297 471.105 246.506 471.982C246.853 473.439 248.11 472.746 249.137 473.036C250.223 473.08 251.312 473.178 252.394 473.129ZM181.716 318.836C181.64 318.621 181.326 318.489 181.121 318.318C180.972 318.531 180.713 318.734 180.692 318.959C180.568 320.323 180.461 321.691 180.419 323.059C180.378 324.396 181.325 325.263 182.685 325.139C182.915 325.118 183.324 324.712 183.294 324.55C183.094 323.463 182.797 322.394 182.399 321.187C182.178 320.401 181.987 319.605 181.716 318.836ZM256.48 343.894C256.627 343.603 256.936 342.79 256.036 342.959C254.663 343.216 253.314 343.606 251.963 343.974C251.717 344.041 251.515 344.272 251.292 344.428C251.551 344.55 251.805 344.767 252.067 344.777C253.168 344.816 254.271 344.793 255.506 344.661C255.843 344.412 256.311 344.228 256.48 343.894ZM154.006 204.748C153.794 204.871 153.582 204.994 153.371 205.117C153.537 205.302 153.674 205.56 153.881 205.646C154.005 205.698 154.278 205.52 154.421 205.381C155.238 204.59 156.04 203.783 156.837 202.972C156.996 202.81 157.112 202.605 157.248 202.419C156.98 202.471 156.643 202.439 156.455 202.591C155.659 203.236 154.907 203.935 154.006 204.748Z" fill="#00160A"/>
<path fill-rule="evenodd" clip-rule="evenodd" d="M182.44 189.297C181.197 188.625 179.968 188.074 179.709 186.576C179.207 183.666 180.256 180.237 184.048 180.437C187.468 180.616 189.638 183.456 188.428 186.664C187.536 189.029 185.371 190.202 182.44 189.297Z" fill="#FFB61D"/>
<path fill-rule="evenodd" clip-rule="evenodd" d="M199.304 178.441C199.373 177.995 199.441 177.682 199.509 177.37C199.617 177.642 199.755 177.907 199.827 178.188C200.36 180.276 202.051 185.473 200.037 187.865C199.87 188.064 199.02 188.095 198.491 188.062C197.451 187.996 196.239 186.462 196.432 185.473C196.461 185.325 198.971 187.76 199.509 186.442C200.407 184.244 199.304 179.197 199.304 178.441Z" fill="#00160A"/>
<path fill-rule="evenodd" clip-rule="evenodd" d="M185.149 193.671C185.044 193.618 184.899 193.632 184.774 193.638C184.465 193.65 184.042 193.097 184.222 192.862C184.493 192.51 184.801 192.154 185.168 191.922C185.387 191.784 185.749 192.232 185.722 192.43C185.701 192.578 185.842 192.81 185.978 192.91C188.056 194.437 190.362 195.426 192.886 195.901C193.053 195.933 193.198 196.082 193.354 196.176C193.199 196.283 193.045 196.492 192.889 196.483C190.136 196.322 186.952 194.586 185.149 193.671Z" fill="#00160A"/>
<path fill-rule="evenodd" clip-rule="evenodd" d="M118.064 313.194L115.448 324.364C115.246 325.228 116.059 325.984 116.906 325.721L125.985 322.894C126.749 322.656 127.041 321.729 126.551 321.096L120.087 312.753C119.496 311.99 118.284 312.254 118.064 313.194ZM119.18 314.985L124.88 321.799L116.565 324.626L119.18 314.985Z" fill="#FFB61D"/>
<path fill-rule="evenodd" clip-rule="evenodd" d="M126.178 248.75C125.222 248.664 124.59 249.72 125.117 250.522L131.768 260.634C132.217 261.316 133.213 261.324 133.674 260.65L139.796 251.685C140.289 250.962 139.823 249.974 138.951 249.896L126.178 248.75ZM127.077 249.896L138.513 252.118L131.768 259.178L127.077 249.896Z" fill="#FFB61D"/>
<path fill-rule="evenodd" clip-rule="evenodd" d="M168.331 326.07H158.95C158.172 326.07 157.62 326.828 157.858 327.568L161.01 337.363C161.307 338.288 162.548 338.447 163.069 337.628L169.299 327.833C169.784 327.069 169.236 326.07 168.331 326.07ZM167.567 327.982L162.866 337.012L159.714 327.217L167.567 327.982Z" fill="#FFB61D"/>
<path fill-rule="evenodd" clip-rule="evenodd" d="M137.591 379.147L137.162 387.639C137.117 388.529 138.06 389.128 138.847 388.709L149.755 382.898C150.679 382.406 150.514 381.035 149.5 380.775L139.021 378.094C138.318 377.914 137.628 378.423 137.591 379.147ZM138.42 379.958L148.444 381.35L138.847 387.023L138.42 379.958Z" fill="#FFB61D"/>
<path fill-rule="evenodd" clip-rule="evenodd" d="M123.128 274.852L114.719 280.681C114.007 281.175 114.078 282.249 114.848 282.644L124.69 287.697C125.512 288.119 126.471 287.444 126.35 286.527L124.919 275.645C124.807 274.794 123.834 274.363 123.128 274.852ZM123.466 276.878L125.214 286.676L115.372 281.624L123.466 276.878Z" fill="#FFB61D"/>
<path fill-rule="evenodd" clip-rule="evenodd" d="M161.715 299.82L156.468 307.655C156.016 308.33 156.389 309.247 157.183 309.415L163.319 310.713C164.077 310.873 164.773 310.251 164.698 309.48L163.81 300.348C163.705 299.276 162.315 298.926 161.715 299.82ZM163.144 301.39V309.78L157.868 307.655L163.144 301.39Z" fill="#FFB61D"/>
<path fill-rule="evenodd" clip-rule="evenodd" d="M162.709 262.91C164.236 261.914 165.576 262.15 164.486 264.342C164.486 264.342 156.526 284.523 154.148 284.762C151.893 284.989 150.804 282.072 147.655 273.733L147.522 273.378C147.51 273.347 147.499 273.315 147.49 273.284L147.474 273.217L147.453 273.18L147.409 273.079L147.033 272.06C146.588 270.846 145.468 268.842 144.876 268.146C144.245 267.404 145.653 266.945 146.693 266.945C148.633 266.945 151.008 267.487 154.742 266.409C159.116 265.147 160.617 264.276 162.709 262.91ZM159.324 273.278L159.219 273.345C158.109 274.029 156.882 274.555 155.541 274.922C153.937 275.36 151.609 275.414 150.104 275.086L149.852 275.027L149.945 275.258C150.794 277.376 151.55 279.825 152.208 281.07L152.438 281.494C152.851 282.236 153.213 282.775 153.507 283.099L153.598 283.194L153.712 283.057C154.203 282.429 155.95 280.068 157.164 277.71L157.291 277.462C157.811 276.443 158.377 275.285 158.991 273.988L159.324 273.278ZM162.6 265.242L162.416 265.346C160.689 266.308 157.833 267.904 155.378 268.613C152.439 269.461 149.948 269.763 147.899 269.492L147.773 269.473L147.845 269.676C148.041 270.224 148.871 272.818 149.165 273.217C150.354 274.316 151.812 274.42 153.598 273.988L153.854 273.922C160.248 272.687 162.6 265.242 162.6 265.242Z" fill="#FFB61D"/>
<path fill-rule="evenodd" clip-rule="evenodd" d="M387.145 335.792C387.399 335.604 387.758 335.658 387.946 335.913C389.27 337.708 391.511 337.797 394.49 336.142C394.767 335.988 395.116 336.088 395.27 336.365C395.424 336.642 395.324 336.991 395.047 337.145C391.619 339.048 388.75 338.935 387.023 336.594C386.835 336.339 386.89 335.98 387.145 335.792Z" fill="#E7EAEE"/>
<path fill-rule="evenodd" clip-rule="evenodd" d="M382.81 340.385C383.044 340.172 383.407 340.189 383.62 340.424C385.628 342.632 388.296 342.758 390.466 341.6C390.745 341.45 391.092 341.556 391.242 341.835C391.391 342.115 391.285 342.462 391.006 342.611C388.414 343.995 385.178 343.842 382.771 341.195C382.558 340.961 382.576 340.598 382.81 340.385Z" fill="#E7EAEE"/>
<path fill-rule="evenodd" clip-rule="evenodd" d="M378.114 344.935C378.345 344.718 378.708 344.729 378.925 344.959C380.86 347.015 384.794 348.02 387.486 346.594C387.765 346.445 388.112 346.552 388.261 346.832C388.409 347.112 388.302 347.459 388.023 347.607C384.836 349.296 380.355 348.151 378.09 345.745C377.873 345.515 377.884 345.152 378.114 344.935Z" fill="#E7EAEE"/>
<path fill-rule="evenodd" clip-rule="evenodd" d="M381.76 362.918C385.785 360.97 381.624 353.753 377.728 356.674C375.23 358.548 377.969 364.752 381.76 362.918Z" fill="#E7EAEE"/>
</svg>
