<svg width="450" height="375" viewBox="0 0 450 375" fill="none" xmlns="http://www.w3.org/2000/svg">
<path fill-rule="evenodd" clip-rule="evenodd" d="M129.347 323.426C49.1366 290.999 49.6309 331.706 13.8802 271.678C-21.8705 211.65 11.1755 123.208 116.087 95.8864C220.998 68.5648 366.78 -60.3602 444.604 154.027C466.473 214.272 424.331 374.735 272.924 374.415C164.54 374.183 183.557 344.734 129.347 323.426Z" fill="#64FCD9"/>
<path fill-rule="evenodd" clip-rule="evenodd" d="M261.578 199.383C261.199 199.085 261.297 198.174 261.41 197.561C262.123 193.671 265.562 191.066 268.595 188.636C271.628 186.206 274.766 182.941 274.451 178.995C274.025 173.664 276.482 168.609 277.982 163.488C279.482 158.367 279.747 152.058 275.925 148.439C274.601 147.185 272.912 146.399 271.578 145.156C270.243 143.913 269.284 141.895 270.043 140.214C269.397 140.602 268.75 140.989 268.104 141.377C267.924 138.777 264.97 137.621 262.749 136.375C258.938 134.24 256.151 129.925 256.457 125.467C256.763 121.008 260.652 116.901 264.983 117.153C266.842 117.261 269.23 117.849 270.154 116.183C273.567 110.027 282.417 109.318 286.436 103.564C287.312 102.31 291.537 98.5657 291.12 101.214C290.193 107.1 295.349 105.392 297.383 107.856C306.249 118.597 306.932 134.873 305.333 150.298C301.911 183.305 281.51 215.064 261.578 199.383Z" fill="white"/>
<path fill-rule="evenodd" clip-rule="evenodd" d="M285.644 110.835C287.708 108.614 290.717 107.301 293.749 107.301C298.759 109.898 303.715 113.412 308.616 117.842C311.689 116.626 313.855 116.379 315.112 117.101C316.999 118.184 318.155 120.238 318.702 122.344C320.457 129.097 316.725 136.084 312.135 141.337C310.133 143.628 307.902 145.817 306.676 148.601C305.45 151.386 305.504 155.019 307.736 157.087C313.314 162.257 315.176 170.414 314.865 178.015C314.554 185.616 312.386 193.004 311.173 200.514C309.826 208.849 309.657 217.373 310.674 225.755C310.988 228.344 311.441 230.992 312.793 233.222C314.144 235.452 316.591 237.194 319.19 237.002C318.27 238.32 316.05 238.411 315.024 237.174C316.034 238.224 317.045 239.275 318.055 240.325C316.833 240.069 315.611 239.813 314.388 239.557C324.607 245.367 335.189 250.536 346.052 255.026C345.417 252.891 343.179 251.73 341.154 250.804C335.499 248.218 329.844 245.631 324.189 243.045C332.684 243.815 340.888 247.506 347.102 253.352C354.587 260.394 366.702 260 374.819 266.303C376.559 267.655 378.125 269.381 378.71 271.506C379.53 274.492 378.217 277.757 376.054 279.973C373.891 282.188 370.996 283.526 368.101 284.623C359.45 287.9 350.149 289.446 340.904 289.144C340.119 287.765 340.903 285.928 342.18 284.987C343.457 284.045 345.082 283.757 346.633 283.423C353.23 282.004 359.547 279.294 365.121 275.49C366.373 274.636 367.733 273.102 366.929 271.816C366.63 271.339 366.1 271.067 365.592 270.824C356.838 266.645 347.06 264.636 337.368 265.025C340.229 264.508 343.09 263.991 345.951 263.474C338.39 258.964 330.441 255.103 322.221 251.949C319.665 250.968 316.554 250.125 314.381 251.791C309.079 255.857 303.777 259.923 298.475 263.989C305.312 264.109 312.116 265.791 318.222 268.869C316.825 271.923 313.685 274.102 310.336 274.341C311.921 272.716 313.505 271.09 315.09 269.465C303.804 262.468 287.707 269.781 276.404 262.81C271.363 259.701 268.021 254.097 262.556 251.814C257.342 249.637 251.403 250.965 245.919 252.321C242.321 253.21 238.542 254.197 235.888 256.784C235.961 254.182 238.434 252.299 240.865 251.372C243.297 250.445 245.996 250.017 248.043 248.409C250.119 246.779 251.18 244.202 252.817 242.131C254.454 240.06 257.357 238.427 259.67 239.699C258.957 234.2 263.628 229.716 266.795 225.164C270.402 219.981 272.33 213.649 272.223 207.335C268.204 209.47 266.397 214.977 268.368 219.079C269.244 220.901 267.5 223.2 265.484 223.344C263.469 223.487 261.619 222.004 260.708 220.199C259.796 218.395 259.63 216.318 259.494 214.301C259.302 211.452 259.142 208.542 259.876 205.782C261.265 200.552 265.628 196.662 270.154 193.698C274.681 190.734 279.651 188.309 283.446 184.452C287.632 180.197 290.113 174.308 290.233 168.34C291.979 176.293 288.043 110.292 285.644 110.835ZM267.233 220.271C267.275 218.626 266.765 216.972 265.803 215.638C265.467 217.289 266.025 219.095 267.233 220.271Z" fill="white"/>
<path fill-rule="evenodd" clip-rule="evenodd" d="M210.561 217.676C207.263 219.993 203.85 222.436 201.932 225.973C200.013 229.51 200.101 234.477 203.232 237.014C210.894 243.223 208.443 255.585 213.017 264.306C215.527 269.093 220.358 273.627 219.003 278.856C217.941 282.953 213.534 285.093 209.608 286.706C207.764 287.464 205.814 288.237 203.837 287.979C201.859 287.722 199.921 286.022 200.165 284.05C200.601 280.522 206.799 279.884 206.91 276.331C206.941 275.334 206.429 274.409 205.933 273.542C202.579 267.68 199.224 261.819 195.87 255.958C191.946 264.15 190.37 273.443 191.376 282.464C191.692 285.295 189.573 287.947 186.998 289.184C184.422 290.421 181.472 290.552 178.615 290.662C176.275 290.751 173.784 290.805 171.774 289.606C169.765 288.408 168.638 285.453 170.15 283.672C171.512 282.068 174.008 282.284 175.994 281.58C181.267 279.71 181.493 272.462 180.744 266.935C179.295 256.257 177.846 245.578 176.397 234.9C175.664 229.493 174.844 223.857 171.713 219.38C160.943 203.981 175.033 180.5 164.851 164.71C161.725 159.862 158.581 154.831 157.534 149.165C156.487 143.499 158.005 136.982 162.703 133.623C166.23 131.102 166.653 126.16 167.135 121.863C168.019 113.993 170.178 106.266 173.504 99.0727C165.92 93.561 156.727 90.2748 147.356 89.7257C147.646 91.4324 148.264 93.0833 149.167 94.5622C143.773 92.5428 139.616 87.5436 138.629 81.8874C137.765 83.8863 136.902 85.8852 136.038 87.884C128.613 72.7534 133.957 54.7784 139.393 38.8302C140.976 34.1866 142.559 29.5429 144.142 24.8992C146.046 19.312 148.769 12.9334 154.508 11.4759C158.04 10.5789 162.801 13.9701 160.937 17.0911C156.306 15.931 158.817 20.5921 160.562 18.6198C164.52 14.1463 167.747 8.83026 172.485 5.16261C181.517 -1.82988 194.956 -1.38452 204.761 4.48379C214.566 10.3521 220.991 20.7596 224.171 31.7067C224.631 33.2911 225.021 35.0415 224.339 36.5445C223.657 38.0475 221.425 38.8883 220.297 37.6809C218.726 35.9987 216.544 39.1787 216.647 41.4743C217.176 53.2396 224.683 63.4384 228.175 74.6899C231.581 85.6633 231.096 97.4082 230.579 108.883C229.86 124.84 227.87 168.987 227.223 175.073C226.006 186.541 223.474 197.919 223.629 209.449C223.828 224.265 228.448 238.635 233.318 252.635C235.345 258.461 237.506 264.415 241.538 269.092C245.57 273.77 251.933 276.961 257.956 275.547C253.683 279.818 246.385 279.668 241.081 276.763C235.776 273.858 232.042 268.812 228.649 263.818C226.484 260.631 220.598 266.972 218.042 264.088C221.186 263.43 224.16 261.977 226.608 259.903C221.259 245.827 215.91 231.752 210.561 217.676ZM183.091 50.2543C182.543 49.7005 181.689 49.1516 181.052 49.5999C181.753 50.3081 181.545 51.6758 180.664 52.1445C179.615 51.762 179.988 50.2125 179.695 49.1389C179.317 47.7577 177.716 47.1573 176.317 46.8311C169.136 45.1567 160.786 44.8713 156.015 39.2686C155.57 38.7471 155.152 38.1738 154.55 37.8455C153.319 37.1745 151.696 37.796 150.822 38.8896C149.948 39.9832 149.655 41.4179 149.451 42.8009C148.419 49.8042 149.019 57.0415 151.192 63.7808C151.584 64.9971 152.048 66.2331 152.922 67.1681C155.311 69.7239 159.441 69.006 162.896 68.4195C166.112 67.8737 169.377 67.6196 172.638 67.6614C174.15 67.6807 175.639 67.3369 177.112 66.9951C181.002 66.0917 184.893 65.1884 188.784 64.2851C188.833 59.108 186.737 53.9431 183.091 50.2543Z" fill="white"/>
<path fill-rule="evenodd" clip-rule="evenodd" d="M326.291 353.908L335.549 355.278C337.244 355.528 339.115 355.878 340.144 357.224C339.67 357.638 338.951 357.573 338.322 357.483C334.741 356.97 331.159 356.456 327.577 355.943L331.838 360.839C332.572 361.682 333.363 362.564 334.44 362.899C335.384 363.193 336.737 363.286 336.849 364.252C335.551 364.796 334.01 364.46 332.814 363.725C331.617 362.99 330.696 361.903 329.797 360.835C328.351 359.118 326.906 357.402 325.46 355.685C325.082 355.237 324.699 354.571 325.085 354.129C325.364 353.81 325.867 353.846 326.291 353.908ZM375.871 315.816C376.156 317.051 374.879 318.006 373.829 318.672C365.404 324.018 361.237 334.111 357.576 343.566C357.293 344.297 357.219 345.444 357.976 345.563C359.443 342.8 362.322 340.884 365.376 340.639C363.058 342.254 362.131 345.327 361.985 348.201C361.84 351.075 362.311 353.964 362.047 356.829C360.607 356.689 360.236 354.724 360.253 353.236C360.288 350.293 360.323 347.35 360.357 344.407C355.036 347.684 353.757 354.893 353.007 361.222C352.711 361.672 351.96 361.478 351.699 361.006C351.438 360.534 351.516 359.949 351.606 359.414C353.784 346.531 358.737 334.152 366.008 323.422C358.983 327.186 352.988 332.954 348.869 339.909C347.813 337.943 349.317 335.595 350.807 333.952C357.822 326.214 366.417 319.995 375.871 315.816ZM310.528 308.967C314.238 311.546 317.948 314.125 321.657 316.704C327.541 320.795 333.484 324.937 338.253 330.283C337.925 325.398 339.152 320.421 341.714 316.248C342.017 315.755 342.548 315.203 343.076 315.442C343.45 315.611 343.557 316.08 343.617 316.485C344.668 323.497 345.72 330.508 346.771 337.519C343.75 331.904 342.271 325.471 342.535 319.101C340.697 322.056 339.19 325.466 339.655 328.914C340.79 337.329 352.612 341.411 353.081 349.889C342.776 337.193 332.053 324.212 317.682 316.402C324.373 325.904 332.013 334.738 340.451 342.731C342.831 344.987 345.476 347.637 345.306 350.911C339.694 344.316 330.113 341.394 321.772 343.732C326.564 345.512 331.235 347.619 335.74 350.035C338.383 351.453 341.195 353.257 341.984 356.15C334.378 350.459 325.557 346.397 316.286 344.315C323.305 340.227 332.458 340.077 339.607 343.933C328.808 334.2 319.966 322.532 311.194 310.941C310.756 310.363 310.295 309.653 310.528 308.967ZM265.605 270.162C282.948 273.487 299.996 278.348 316.483 284.668C318.437 285.417 320.444 286.226 321.917 287.711C323.675 289.484 324.443 291.981 325.15 294.374C328.119 304.416 331.088 314.458 334.056 324.499C328.717 314.016 324.9 302.762 322.761 291.197C309.615 296.439 294.965 295.698 280.816 295.285C259.015 294.649 237.186 294.984 215.415 296.289C216.869 296.615 218.323 296.94 219.778 297.266C216.457 298.377 212.87 298.286 209.37 298.162C182.956 297.23 156.583 295.123 130.356 291.852C124.765 291.155 118.888 290.287 114.446 286.825L102.432 322.481C101.746 324.515 99.476 326.978 98.0077 325.41C96.2842 323.569 93.3029 325.486 91.5996 327.346C85.1274 334.41 78.6551 341.475 72.1829 348.539C75.9751 341.979 80.7685 335.996 86.3465 330.862C80.1753 330.75 74.0114 333.509 69.9882 338.182C71.5332 328.836 81.158 321.59 90.5826 322.678C84.2976 323.545 78.3793 326.835 74.3309 331.712C81.1622 330.825 87.7437 328.089 93.1883 323.875C95.1499 322.357 98.2104 322.497 100.025 324.187C103.811 312.872 107.596 301.557 111.382 290.243C111.93 288.604 112.388 286.551 111.143 285.351C132.446 278.299 154.829 274.509 177.269 274.156C159.432 276.926 141.594 279.695 123.757 282.464C121.014 282.89 117.707 283.806 117.061 286.502C120.138 287.282 123.215 288.062 126.31 288.769C173.67 299.588 223.021 292.907 271.601 293.492C288.394 293.694 305.613 294.715 321.565 289.474C297.45 278.298 271.291 271.538 244.773 269.627C251.533 267.775 258.72 268.843 265.605 270.162ZM65.1828 280.603C72.8337 282.43 79.712 286.524 86.4547 290.562C91.4364 293.546 96.9867 297.422 97.4716 303.142L97.485 303.342L97.3457 303.183C92 297.169 85.6803 292.015 78.7033 287.987C83.4979 293.397 88.2924 298.808 93.087 304.218C94.3268 305.617 95.6154 307.374 95.9498 309.116C96.016 309.036 96.1194 308.983 96.2374 308.992L96.2008 308.967C96.5519 309.06 96.7343 309.454 96.5508 309.723C96.3626 309.745 96.1549 309.702 96.0155 309.599C96.0807 310.334 95.9558 311.062 95.5657 311.752C93.8936 309.038 91.7906 306.588 89.3588 304.52C91.2823 308.671 93.2058 312.822 95.1293 316.973C93.1728 316.325 91.4501 314.999 90.3279 313.276C90.0715 314.706 90.7057 316.258 91.8923 317.103C89.9337 318.086 87.7184 318.556 85.5275 318.454C86.41 319.093 87.2926 319.733 88.1751 320.372L69.8973 321.143C70.4598 320.16 71.2391 319.299 72.1642 318.642C57.9155 317.114 47.501 305.192 53.8854 309.499C64.3329 316.547 77.7235 319.11 90.0496 316.421C83.2267 314.435 76.8153 311.058 71.3261 306.559C75.2177 305.603 79.5299 306.542 82.6742 309.015L82.9012 309.197L74.4036 297.376C71.5707 293.436 68.7378 289.495 65.905 285.554C74.322 294.303 82.7391 303.051 91.1561 311.8C86.7048 298.716 77.2686 287.381 65.1828 280.603ZM84.1188 318.564L84.0322 318.662C83.7546 318.457 83.4766 319.032 83.7244 319.272C84.0313 319.369 84.3885 319.287 84.6215 319.065C84.454 318.898 84.2864 318.731 84.1188 318.564ZM390.652 279.313C397.103 280.715 403.555 282.117 410.007 283.518C411.985 283.948 414.488 285.101 414.156 287.124C414.021 287.949 413.405 288.598 412.799 289.166C410.598 291.224 408.11 292.965 405.431 294.321L412.16 296.008C413.945 296.455 415.822 296.953 417.13 298.262C418.438 299.571 418.867 301.975 417.526 303.248C419.447 306.581 421.238 309.991 422.891 313.468C423.712 315.195 424.437 317.443 423.165 318.86C420.976 313.892 418.787 308.923 416.598 303.955C413.723 305.718 410.206 306.377 406.899 305.77C407.822 304.501 409.527 304.163 411.074 303.994C412.62 303.824 414.304 303.668 415.437 302.587C416.569 301.506 416.508 299.137 415.006 298.726C410.794 297.573 406.583 296.42 402.371 295.267C405.514 292.373 408.873 289.72 412.409 287.336C412.592 286.4 411.461 285.812 410.551 285.566C400.673 282.897 390.618 280.894 380.478 279.577C383.52 277.884 387.258 278.576 390.652 279.313ZM64.0155 306.693C64.4474 306.762 64.7897 307.105 65.1122 307.422C67.8356 310.093 71.2254 311.975 74.8305 312.815C76.6328 313.235 78.6468 313.489 79.8812 314.961C73.7772 315.607 67.4468 312.91 63.417 307.945C63.2992 307.799 63.1789 307.643 63.147 307.454C63.0692 306.992 63.5836 306.623 64.0155 306.693ZM76.4711 308.421C79.5652 310.866 83.191 312.639 87.0248 313.583C83.9671 311.086 80.3244 309.305 76.4711 308.421ZM83.4981 306.596C84.6426 309.508 87.0545 311.9 89.9827 313.027C88.2083 310.538 86.005 308.353 83.4981 306.596ZM142.566 143.636C138.279 145.723 134.353 148.544 131.013 151.94C123.503 159.575 113.813 165.06 103.384 167.579L129.788 152.637C129.369 149.736 125.002 150.167 122.376 151.49C117.824 153.785 113.391 156.343 109.313 159.396C106.893 161.208 104.603 163.191 102.465 165.327C94.102 173.678 88.2169 184.207 83.7804 195.143C77.4051 210.859 73.8146 227.929 75.3441 244.81C76.8736 261.691 83.8134 278.364 96.1413 290.049C96.5735 288.719 97.0057 287.389 97.4379 286.059C99.3371 287.004 101.588 287.224 103.635 286.667C101.179 285.243 98.5959 283.689 97.2967 281.172C95.9975 278.655 96.6862 274.911 99.3663 273.97C96.7535 271.634 94.9579 268.409 94.3536 264.964C97.3018 264.423 100.25 263.881 103.198 263.339C100.307 256.729 100.885 248.723 104.696 242.593C105.294 241.632 106.258 240.598 107.359 240.874C109.117 241.315 109.631 244.716 111.309 244.032L117.863 234.761L124.209 225.784L124.105 225.938C121.598 229.734 121.499 234.999 123.915 238.863C127.283 235.31 131.864 232.92 136.713 232.183C137.111 234.387 137.509 236.591 137.907 238.794C139.692 237.316 141.612 235.777 143.915 235.48C146.218 235.184 148.916 236.729 148.927 239.042C148.936 240.946 147.265 243.062 148.488 244.525C150.253 243.388 152.151 242.211 154.253 242.218C156.355 242.225 158.585 243.987 158.241 246.053C157.716 249.204 157.192 252.355 156.668 255.507C160.231 254.345 165.091 253.646 166.883 256.927C168.173 259.287 166.831 262.236 165.084 264.284C163.337 266.332 161.108 268.132 160.273 270.687C159.116 268.307 161.295 265.749 163.13 263.839C164.965 261.928 166.613 258.74 164.704 256.902C162.157 254.45 157.771 258.431 154.507 257.06C155.219 252.819 155.931 248.579 156.642 244.339C152.949 244.325 149.257 245.399 146.152 247.391C145.862 244.041 146.066 240.649 146.756 237.357C143.146 238.114 139.596 239.157 136.151 240.474C135.351 238.348 135.018 236.05 135.182 233.786L123.172 240.782C122.859 239.597 122.043 238.551 120.967 237.957C122.059 244.265 123.151 250.574 124.243 256.883C120.829 250.657 119.238 243.454 119.713 236.377C115.976 238.765 113.286 242.721 112.446 247.063C110.07 246.521 107.972 244.873 106.89 242.697C102.52 248.822 101.948 257.421 105.468 264.067C102.617 265.308 99.5924 266.155 96.5093 266.575L101.99 275.239C100.559 275.425 99.1948 276.09 98.1696 277.102C99.2085 281.794 103.104 285.736 107.797 286.844C105.599 288.217 102.974 288.902 100.382 288.779C103.603 289.709 106.637 291.28 109.251 293.372C105.538 292.782 101.942 291.465 98.7287 289.519C100.338 292.913 103.269 295.664 106.766 297.063C104.679 297.146 102.572 296.655 100.74 295.658C102.736 298.303 103.745 301.67 103.53 304.972C102.116 302.202 100.702 299.432 99.2884 296.662C99.1334 299.407 98.9783 302.152 98.8233 304.897C98.5008 304.511 98.1743 304.129 97.844 303.75L97.514 303.375L97.5905 303.193C98.8193 300.104 97.8802 296.477 96.0545 293.677C94.182 290.805 91.4869 288.584 88.988 286.232C78.3648 276.234 70.923 263.421 63.6334 250.803C60.8907 246.055 58.1481 241.308 55.4054 236.56C51.7228 230.186 47.9071 222.944 49.7774 215.83C50.0448 214.812 50.4679 213.768 51.3179 213.144C49.9977 214.639 50.9987 217.018 52.3548 218.481C53.7109 219.943 55.4814 221.291 55.7658 223.261C58.821 244.434 71.9839 262.594 84.7411 279.802C68.9876 252.949 71.5501 218.376 84.2997 189.986C91.236 174.54 101.695 159.726 117.072 152.534C120.497 150.933 124.097 149.742 127.687 148.555C132.647 146.915 137.607 145.276 142.566 143.636ZM340.831 293.573C341.26 293.674 341.765 293.868 341.844 294.31C341.912 294.684 341.629 295.022 341.357 295.282C339.966 296.616 338.305 297.656 336.509 298.317C335.943 298.525 335.959 299.434 336.408 299.844C336.857 300.253 337.511 300.298 338.112 300.323C360.351 301.232 382.59 302.141 404.83 303.051C404.614 304.199 403.124 304.431 401.979 304.398C380.909 303.798 359.843 303 338.787 302.005C336.608 301.902 333.654 300.868 334.077 298.683C334.479 296.609 337.423 296.584 339.01 295.226L329.49 293.875C333.165 292.803 337.106 292.698 340.831 293.573ZM211.721 296.552L211.847 296.639C212.449 297.054 213.35 296.957 213.849 296.423C213.212 296.006 212.303 296.061 211.721 296.552ZM204.761 4.48379C214.566 10.3521 220.991 20.7596 224.17 31.7067C224.631 33.2911 225.02 35.0415 224.338 36.5445C223.675 38.0069 221.545 38.8424 220.391 37.7743L220.297 37.6809C218.726 35.9987 216.544 39.1787 216.647 41.4743C217.176 53.2396 224.683 63.4384 228.175 74.6899C231.58 85.6633 231.096 97.4082 230.579 108.883C229.859 124.84 229.14 140.796 228.421 156.753C228.145 162.868 227.869 168.987 227.223 175.073C226.006 186.541 223.474 197.919 223.629 209.449C223.828 224.265 228.448 238.635 233.318 252.635C235.345 258.461 237.506 264.415 241.538 269.092C245.57 273.77 251.932 276.961 257.956 275.547C253.683 279.818 246.385 279.668 241.081 276.763C235.776 273.858 232.042 268.812 228.649 263.818C226.484 260.631 220.598 266.972 218.041 264.088C221.186 263.43 224.16 261.977 226.608 259.903C221.259 245.827 215.91 231.752 210.561 217.676C207.263 219.993 203.85 222.436 201.931 225.973C200.013 229.51 200.101 234.477 203.232 237.014C210.894 243.223 208.443 255.585 213.017 264.306C215.527 269.093 220.358 273.627 219.003 278.856C217.941 282.953 213.534 285.093 209.607 286.706C207.764 287.464 205.814 288.237 203.836 287.979C201.859 287.722 199.921 286.022 200.165 284.05C200.601 280.522 206.799 279.884 206.91 276.331C206.941 275.334 206.429 274.409 205.933 273.542C202.579 267.68 199.224 261.819 195.87 255.958C191.946 264.15 190.37 273.443 191.376 282.464C191.691 285.295 189.573 287.947 186.998 289.184C184.422 290.421 181.472 290.552 178.615 290.662C176.275 290.751 173.784 290.805 171.774 289.606C169.764 288.408 168.638 285.453 170.15 283.672C171.512 282.068 174.008 282.284 175.993 281.58C181.267 279.71 181.493 272.462 180.743 266.935L176.397 234.9C175.663 229.493 174.843 223.857 171.712 219.38C160.943 203.981 175.033 180.5 164.851 164.71C161.725 159.862 158.581 154.831 157.534 149.165C156.487 143.499 158.005 136.982 162.703 133.623C166.229 131.102 166.653 126.16 167.135 121.863C168.019 113.993 170.178 106.266 173.503 99.0727C165.92 93.561 156.727 90.2748 147.356 89.7257C147.646 91.4324 148.264 93.0833 149.167 94.5622C143.773 92.5428 139.616 87.5436 138.628 81.8874C137.765 83.8863 136.902 85.8852 136.038 87.884C128.612 72.7534 133.957 54.7784 139.393 38.8302C140.976 34.1866 142.559 29.5429 144.142 24.8992C146.046 19.312 148.769 12.9334 154.508 11.4759C158.04 10.5789 162.801 13.9701 160.937 17.0911C156.305 15.931 151.374 18.4397 148.319 22.0972C145.264 25.7548 143.7 30.3887 142.199 34.9059C137.163 50.0585 132.075 66.202 135.883 81.7059C136.463 80.6273 137.569 79.8453 138.782 79.6552C140.034 83.1657 141.957 86.4375 144.416 89.2436C149.617 87.3367 155.356 86.9103 160.783 88.0274C160.37 88.5353 159.957 89.0433 159.543 89.5512C163.855 92.4828 168.848 94.4122 174.017 95.1433C176.795 90.4428 179.574 85.7423 182.353 81.0418L182.865 80.1743C185.337 75.972 187.745 71.6301 188.519 66.8352C180.07 68.9464 171.42 70.2619 162.724 70.7587C158.933 70.9752 154.717 70.8894 151.924 68.3266C150.227 66.7695 149.346 64.53 148.698 62.324C146.358 54.3536 146.393 45.7069 148.797 37.7555C145.379 37.552 144.418 32.49 146.401 29.7089C148.384 26.9278 151.834 25.6847 154.709 23.8319C161.968 19.1542 165.659 10.4473 172.485 5.16261C181.517 -1.82988 194.956 -1.38452 204.761 4.48379ZM293.748 107.301C301.264 111.197 308.008 116.576 313.478 123.039C313.759 126.524 314.312 129.988 315.13 133.387C316.251 130.121 317.387 126.648 316.639 123.277C315.892 119.905 312.468 116.878 309.164 117.879C310.538 116.193 313.225 116.018 315.112 117.101C316.998 118.184 318.154 120.239 318.701 122.344C320.456 129.097 316.724 136.084 312.134 141.337C310.132 143.628 307.901 145.817 306.675 148.601C305.449 151.386 305.504 155.019 307.735 157.087C313.314 162.257 315.175 170.414 314.864 178.015C314.553 185.616 312.385 193.004 311.172 200.514C309.825 208.849 309.657 217.373 310.674 225.755C310.988 228.344 311.44 230.992 312.792 233.222C314.143 235.452 316.59 237.194 319.19 237.002C318.355 238.196 316.454 238.383 315.341 237.487L315.243 237.402L316.539 238.749C317.044 239.275 317.549 239.8 318.054 240.325C316.832 240.069 315.61 239.813 314.387 239.557C324.606 245.367 335.188 250.536 346.051 255.026C345.417 252.891 343.178 251.73 341.154 250.804C335.498 248.218 329.843 245.631 324.188 243.045C332.684 243.815 340.887 247.506 347.101 253.352C354.586 260.394 366.701 260 374.818 266.303C376.558 267.655 378.125 269.381 378.709 271.506C379.53 274.492 378.216 277.757 376.053 279.973C373.89 282.188 370.995 283.526 368.1 284.623C359.45 287.9 350.148 289.446 340.903 289.144C340.118 287.765 340.903 285.928 342.179 284.987C343.456 284.045 345.082 283.757 346.632 283.423C353.229 282.004 359.546 279.294 365.12 275.491C366.372 274.636 367.732 273.102 366.928 271.816C366.629 271.339 366.099 271.067 365.591 270.824C356.837 266.646 347.059 264.636 337.368 265.025L345.95 263.474C338.389 258.964 330.44 255.103 322.22 251.949C319.664 250.968 316.553 250.125 314.38 251.791C309.078 255.857 303.776 259.923 298.474 263.989C305.311 264.109 312.115 265.791 318.221 268.869C316.824 271.923 313.684 274.102 310.335 274.341C311.92 272.716 313.504 271.09 315.089 269.465C303.803 262.468 287.706 269.781 276.403 262.81C271.362 259.701 268.02 254.097 262.555 251.814C257.342 249.637 251.403 250.965 245.918 252.321C242.321 253.21 238.541 254.197 235.887 256.784C235.961 254.182 238.433 252.299 240.864 251.372C243.296 250.445 245.995 250.017 248.042 248.409C250.118 246.779 251.179 244.202 252.816 242.131C254.454 240.06 257.356 238.427 259.669 239.699C258.956 234.2 263.627 229.716 266.794 225.164C270.401 219.981 272.329 213.649 272.222 207.335C268.203 209.47 266.396 214.977 268.368 219.079C269.243 220.901 267.499 223.2 265.484 223.344C263.468 223.487 261.618 222.004 260.707 220.199C259.795 218.395 259.629 216.318 259.493 214.301C259.301 211.452 259.141 208.542 259.875 205.782C261.265 200.552 265.627 196.662 270.153 193.698C274.68 190.734 279.65 188.309 283.445 184.452C287.631 180.197 290.112 174.308 290.232 168.34C291.978 176.293 287.86 185.166 280.66 188.965C274.293 192.325 267.82 196.133 263.832 202.127C259.844 208.122 259.137 216.897 264.088 222.124C263.276 217.877 264.411 213.297 267.113 209.921C269.3 207.188 272.357 205.312 275.379 203.547C282.387 199.451 289.559 195.639 296.874 192.121C296.378 190.234 297.94 188.093 299.888 187.991C297.687 184.486 299.776 179.117 303.767 178.023C302.59 179.525 301.379 181.099 300.988 182.967C300.598 184.835 301.301 187.08 303.057 187.826C299.601 187.849 299.004 193.357 295.831 194.725C289.297 197.543 282.965 200.831 276.902 204.555C276.454 204.831 275.993 205.135 275.56 205.472C275.643 205.471 275.731 205.494 275.822 205.546C276.285 208.716 276.344 211.945 275.998 215.131C275.95 215.575 275.753 216.145 275.304 216.124C274.846 216.103 274.713 215.499 274.712 215.043L274.698 206.966C274.698 206.663 274.779 206.307 274.92 206.018C274.078 206.814 273.471 207.764 273.522 208.894C273.789 214.846 272.05 220.869 268.651 225.761C272.404 222.493 276.157 219.225 279.91 215.957C281.117 214.906 283.701 214.405 283.67 216.006C277.922 219.829 272.081 223.735 267.727 229.092C263.372 234.449 260.652 241.578 262.166 248.314C260.485 247.686 260.338 245.441 259.94 243.691C259.543 241.941 257.413 240.111 256.218 241.45C253.387 244.621 250.556 247.792 247.724 250.963C253.991 247.083 262.862 248.095 268.094 253.287C275.029 260.166 284.479 266.714 293.846 263.95C302.309 261.453 307.256 252.2 315.528 249.128C307.967 230.826 306.37 210.113 311.038 190.868C312.348 185.468 314.151 180.012 313.563 174.487C312.652 165.924 306.22 158.933 304.079 150.593C303.164 153.007 300.796 154.801 298.225 155.029C301.169 151.256 304.113 147.483 307.057 143.711C311.562 137.938 312.575 129.629 309.556 122.957C306.537 116.285 299.607 111.557 292.294 111.216C293.216 112.108 294.138 113.001 295.06 113.894C293.379 114.479 291.699 115.063 290.019 115.648C289.704 114.516 289.388 113.384 289.073 112.252C290.329 111.237 291.585 110.222 292.841 109.206C290.442 109.749 288.042 110.292 285.643 110.835C287.707 108.614 290.716 107.301 293.748 107.301ZM169.405 12.0554C162.355 17.1137 156.565 23.6865 150.841 30.1987C149.404 31.8878 152.114 33.9898 154.278 34.4953C163.995 36.7652 174.087 37.4327 184.02 36.4624C181.366 40.2115 175.959 40.6658 171.405 39.9835C166.852 39.3011 162.174 37.8549 157.746 39.1141C166.799 43.0559 176.489 45.5444 186.327 46.4546L183.008 48.3967C189.679 51.9845 191.728 60.9062 190.08 68.2783C188.432 75.6503 183.995 82.0356 180.421 88.6958C173.997 100.665 170.203 114.026 169.381 127.573C178.497 124.268 181.609 113.095 182.465 103.467C183.321 93.8386 183.711 83.0039 190.841 76.4486C185.422 88.6607 183.481 102.382 185.301 115.611C177.705 122.509 170.108 129.407 162.512 136.305C156.948 141.357 159.719 150.436 162.878 157.243C163.263 158.071 163.69 158.949 164.478 159.414C166.431 160.567 168.823 158.243 169.026 155.99C169.23 153.738 168.252 151.526 168.29 149.265C168.329 147.004 170.244 144.42 172.401 145.124C170.061 143.061 172.904 139.396 175.641 137.894C182.909 133.904 191.116 131.627 199.408 131.298C201.908 131.199 203.029 128.226 203.823 125.863C204.618 123.499 206.776 120.772 209.049 121.814C204.937 107.409 213.257 92.4163 213.06 77.4418C218.107 91.5729 204.88 108.076 211.492 121.552C208.918 123.195 206.345 124.839 203.772 126.482C205.93 127.359 207.768 128.997 208.882 131.036C196.282 132.223 183.909 135.759 172.593 141.406C174.963 142.956 174.193 147.338 171.435 147.995C167.346 165.09 169.247 183.548 176.736 199.46C177.978 192.776 182.654 186.82 188.866 184.009C182.412 189.109 178.621 196.996 177.09 205.061C175.559 213.125 176.09 221.431 176.981 229.59C177.949 238.455 179.334 247.276 181.131 256.012C182.354 261.961 183.772 268.099 182.505 274.04C181.238 279.98 176.378 285.667 170.283 285.662C174.333 288.033 179.204 288.981 183.853 288.303C188.246 287.662 190.131 282.245 189.823 277.831C189.514 273.418 187.973 268.905 189.277 264.677C189.926 262.572 191.238 260.732 192.034 258.678C193.462 254.995 193.148 250.911 193.22 246.963C193.382 238.096 195.636 229.274 199.748 221.409C200.46 222.808 200.202 224.636 199.132 225.785C216.52 211.767 226.906 189.518 226.465 167.238L224.988 169.606C226.314 146.697 227.639 123.787 228.964 100.878C229.292 95.2113 229.617 89.4891 228.684 83.8901C226.033 67.9867 213.442 53.9096 215.299 37.8949C211.585 36.636 207.87 35.377 204.156 34.1181C209.26 34.523 214.363 34.928 219.467 35.333C220.302 35.3993 221.259 35.4221 221.838 34.8185C222.431 34.1999 222.343 33.2149 222.161 32.3791C219.868 21.8485 209.622 15.2778 200.265 9.87385C205.427 10.6491 210.287 13.2853 213.742 17.1842C210.588 9.36467 202.101 4.51097 193.657 4.0194C184.984 3.51447 176.456 6.99713 169.405 12.0554ZM358.441 281.296C354.63 284.379 349.411 284.8 344.583 285.648C343.755 285.793 342.755 286.123 342.621 286.954C343.501 287.499 344.606 287.478 345.639 287.418C354.118 286.93 362.512 285.013 370.362 281.773C369.921 280.759 368.46 280.888 367.397 281.19C366.6 281.415 365.804 281.641 365.008 281.866C364.1 282.123 363.108 282.376 362.239 282.01C361.371 281.643 360.874 280.355 361.584 279.734C360.388 279.571 359.38 280.537 358.441 281.296ZM197.737 233.041C196.162 238.37 195.451 244.035 196.424 249.505C197.846 257.504 202.68 264.406 207.008 271.291C208.337 273.404 209.68 275.811 209.177 278.254C208.633 280.901 206.135 282.622 203.84 284.062C207.645 285.898 211.974 283.125 215.277 280.494C215.777 280.095 216.313 279.639 216.423 279.01C216.523 278.432 216.235 277.866 215.956 277.349C212.773 271.454 209.59 265.558 206.407 259.663L206.334 255.517C206.292 253.106 206.247 250.671 205.657 248.333C204.248 242.751 199.934 238.364 197.737 233.041ZM110.668 281.087C110.94 281.334 111.084 281.704 111.365 281.94C111.797 282.304 112.418 282.259 112.974 282.333C113.53 282.407 114.172 282.774 114.124 283.342C112.546 284.204 110.453 283.958 109.11 282.753C108.702 282.333 108.695 281.58 109.095 281.152C109.495 280.724 110.235 280.693 110.668 281.087ZM338.628 277.775C338.989 277.836 339.455 278.046 339.374 278.404C339.334 278.582 339.164 278.696 339.007 278.787C337.136 279.877 335.011 280.525 332.852 280.665C332.07 280.715 331.405 281.215 330.803 281.732L330.666 281.851C330.028 282.406 329.339 282.995 328.5 283.085C327.66 283.175 326.696 282.483 326.856 281.651C326.998 280.916 327.84 280.586 328.559 280.383C329.86 280.015 331.162 279.647 332.463 279.28C332.637 279.05 332.701 278.74 332.632 278.46L323.264 278.597C322.907 278.602 322.528 278.601 322.225 278.412C321.923 278.222 321.758 277.768 321.99 277.496C327.508 276.758 333.137 276.853 338.628 277.775ZM315.996 243.421C315.012 244.777 315.61 246.802 316.85 247.926C318.091 249.051 319.784 249.5 321.406 249.913C322.948 250.304 324.489 250.696 326.03 251.088C326.448 251.194 326.931 251.29 327.28 251.036C327.494 250.882 327.534 250.55 327.436 250.326L327.421 250.298L328.263 250.788C340.823 258.04 354.06 264.12 367.746 268.921C369.892 269.674 370.379 272.734 369.245 274.706C368.11 276.677 365.957 277.794 363.912 278.789C363.105 279.181 362.422 280.591 363.316 280.659C365.89 279.414 368.86 279.006 371.674 279.509C374.244 279.968 376.758 277.677 377.126 275.091C377.495 272.505 376.127 269.912 374.184 268.167C372.241 266.422 369.782 265.38 367.353 264.42C352.275 258.464 336.231 254.419 322.616 245.615C320.973 244.552 318.508 243.537 317.345 245.111L315.996 243.421ZM233.914 268.134C236.875 272.09 241.097 275.094 245.814 276.601C247.252 277.061 248.79 277.385 250.267 277.07C250.239 276.349 249.32 276.091 248.607 275.967C245.92 275.501 243.403 274.115 241.578 272.097C240.661 271.083 239.901 269.905 238.802 269.091C237.426 268.071 235.58 267.727 233.914 268.134ZM135.897 262.552C137.235 262.627 136.445 265.183 137.578 265.901C138.03 266.188 138.615 266.052 139.141 265.957C142.263 265.395 145.654 266.83 147.429 269.465C147.875 270.127 147.442 271.094 146.743 271.477C146.045 271.861 145.198 271.816 144.407 271.724C143.173 271.58 142.314 272.909 141.886 274.079C141.459 275.249 140.955 276.641 139.751 276.949C138.828 277.185 137.888 276.645 137.163 276.025C136.438 275.405 135.767 274.66 134.863 274.36C133.958 274.06 132.729 274.461 132.576 275.403C132.41 276.425 131.012 276.561 129.987 276.437L126.325 275.993C126.104 274.982 127.537 274.473 128.561 274.608C129.584 274.742 130.889 274.948 131.412 274.056C131.684 273.595 131.617 272.974 131.952 272.556C132.504 271.866 133.601 272.239 134.375 272.665C135.202 273.121 136.03 273.578 136.857 274.034C137.615 274.452 138.434 274.883 139.295 274.796C140.156 274.709 140.986 273.846 140.699 273.028C140.331 271.983 141.44 270.979 142.513 270.712C143.585 270.446 144.773 270.54 145.725 269.977C143.85 267.585 140.133 266.899 137.532 268.467C136.751 268.938 136.025 267.721 136.031 266.807C136.037 265.894 135.993 264.659 135.099 264.479C134.419 264.342 133.875 264.996 133.386 265.49C132.897 265.984 131.967 266.322 131.6 265.732C132.064 263.853 133.969 262.443 135.897 262.552ZM166.974 268.201C168.248 268.675 169.632 269.241 170.243 270.412C170.853 271.583 169.976 273.412 168.63 273.18C168.417 272.889 168.408 272.474 168.608 272.175C168.772 271.928 169.07 271.734 169.078 271.441C169.087 271.143 168.788 270.932 168.522 270.776C167.132 269.959 165.743 269.142 164.353 268.326C164.932 267.615 166.096 267.875 166.974 268.201ZM214.723 271.103L214.73 271.367C214.751 271.867 215.082 272.341 215.545 272.536C215.877 271.96 215.389 271.11 214.723 271.103ZM119.453 267.263C118.354 268.412 116.876 269.117 115.359 269.215C115.767 269.69 116.101 270.24 116.342 270.836C115.32 271.221 114.361 270.158 113.712 269.211C113.461 268.844 113.21 268.315 113.485 267.969C113.594 267.832 113.759 267.769 113.918 267.716C115.701 267.116 117.608 266.96 119.453 267.263ZM221.793 200.693C219.02 205.742 215.74 210.515 212.018 214.916C211.332 215.727 211.794 216.95 212.265 217.901C219.566 232.662 222.93 249.14 230.55 263.74C231.207 264.997 232.019 266.346 233.376 266.773C234.733 267.2 236.541 265.927 236.011 264.612C227.774 244.188 220.428 222.662 221.793 200.693ZM119.145 251.236C119.5 251.483 119.498 252.027 119.473 252.479C119.311 255.364 119.851 258.29 121.027 260.894C121.422 261.77 122.701 261.487 123.374 260.831C124.046 260.175 124.6 259.24 125.499 259.078C126.45 258.907 127.352 259.758 127.651 260.735C127.951 261.713 127.802 262.774 127.65 263.789C127.557 264.408 127.426 265.094 126.944 265.452C126.462 265.809 125.58 265.43 125.716 264.821L126.254 262.418C126.323 262.107 126.39 261.766 126.26 261.478C126.039 260.987 125.371 260.939 124.913 261.181C124.454 261.422 124.113 261.857 123.682 262.15C122.302 263.088 120.357 262.278 119.392 260.869C118.427 259.461 118.188 257.649 117.979 255.919C117.131 258.815 116.855 261.899 117.174 264.913C116.745 265.359 116.141 264.588 116.011 263.965C115.176 259.957 115.797 255.625 117.717 252.065C118.021 251.501 118.634 250.88 119.145 251.236ZM144.566 257.955C142.537 258.77 140.835 260.347 139.885 262.29C139.674 262.722 138.93 262.566 138.733 262.128C138.536 261.689 138.717 261.18 138.942 260.755C139.525 259.649 140.412 258.699 141.482 258.033C140.227 257.94 138.972 257.847 137.717 257.754C139.51 255.946 142.887 256.045 144.566 257.955ZM128.832 254.952C129.745 255.088 130.442 255.8 131.021 256.502C130.44 256.559 129.881 256.815 129.465 257.215C130.186 257.971 130.908 258.727 131.629 259.483C129.655 259.677 127.637 258.337 127.1 256.474C126.85 255.607 127.918 254.815 128.832 254.952ZM343.159 181.907C349.256 200.784 352.571 220.532 352.968 240.339C356.798 236.958 361.757 234.843 366.878 234.406C364.187 235.351 362.461 237.972 361.505 240.626C360.549 243.28 360.159 246.118 359.062 248.719C367.46 246.146 376.652 246.158 385.044 248.75C377.848 250.803 371.054 254.213 365.137 258.741C364.108 258.169 365.004 256.629 365.95 255.932C369.77 253.115 374.01 250.856 378.493 249.249C371.363 247.847 363.856 248.357 356.989 250.711C358.248 246.445 359.326 242.128 360.217 237.773C355.304 240.057 350.815 243.225 347.038 247.073C346.057 246.193 347.483 244.817 348.496 243.973C351.217 241.704 351.33 237.672 351.151 234.163C350.456 220.577 348.642 206.972 344.485 194.001C344.875 208.621 341.872 223.32 335.771 236.651C335.488 237.271 334.517 237.889 334.303 237.243C334.492 236.504 334.682 235.766 334.872 235.028C333.083 232.755 332.237 229.782 332.563 226.924C329.37 230.699 326.594 234.817 324.299 239.182C323.289 239.444 323.2 237.749 323.695 236.842C326.397 231.892 329.814 227.322 333.812 223.314C334.247 226.816 334.683 230.318 335.119 233.82C342.153 217.834 344.555 199.898 341.973 182.659C342.062 182.146 342.648 181.775 343.159 181.907ZM140.408 250.539C140.822 250.787 140.912 251.48 140.462 251.663C139.733 251.959 139.853 252.944 140.029 253.67C140.206 254.397 140.071 255.448 139.278 255.492C138.589 255.529 138.242 254.719 138.204 254.072C138.166 253.426 138.147 252.64 137.543 252.327C135.643 253.45 133.744 254.574 131.845 255.697C131.297 255.089 131.893 254.178 132.519 253.64C134.331 252.08 136.581 250.974 138.979 250.463C139.457 250.361 139.995 250.292 140.408 250.539ZM311.183 247.514C311.35 247.792 310.989 248.31 310.876 247.981L310.872 247.949C310.677 247.941 310.497 247.715 310.465 247.439C310.706 247.316 311.016 247.236 311.183 247.514ZM51.8678 221.009C51.7357 223.082 51.7389 225.163 51.8774 227.236C52.0069 229.172 52.3687 231.312 53.9062 232.504C54.3951 232.883 55.2662 233.043 55.509 232.475C55.5683 232.337 55.5717 232.182 55.5728 232.031C55.597 228.785 54.9812 225.535 53.7708 222.521C53.4363 221.689 52.7182 220.713 51.8678 221.009ZM170.234 187.195L169.166 196.079C168.828 198.89 168.49 201.722 168.703 204.546C168.984 208.272 170.214 211.854 171.468 215.375C172.257 217.589 173.128 219.898 174.909 221.436C173.865 215.653 174.117 209.64 175.643 203.964C175.778 203.462 175.924 202.954 175.915 202.434C175.901 201.633 175.524 200.89 175.175 200.168C173.091 195.867 171.709 191.229 171.1 186.491C170.832 186.081 170.292 186.709 170.234 187.195ZM265.802 215.638C265.467 217.29 266.024 219.095 267.232 220.271C267.274 218.626 266.764 216.972 265.802 215.638ZM289.918 101.415C288.671 106.901 282.619 109.268 277.863 112.048C274.482 114.025 271.434 116.605 268.895 119.638C268.292 120.358 267.184 119.817 266.324 119.471C263.635 118.39 260.377 120.105 259.156 122.8C257.934 125.494 258.508 128.799 260.089 131.288C261.669 133.776 264.124 135.548 266.704 136.881C267.514 136.489 267.266 135.147 266.56 134.58C265.854 134.014 264.907 133.868 264.156 133.366C263.458 132.898 262.98 132.157 262.563 131.415C261.316 129.196 260.422 126.465 261.384 124.101C262.346 121.736 265.903 120.618 267.376 122.684C269.616 125.829 264.542 130.743 266.862 133.826C266.641 132.314 267.494 130.702 268.847 130.075C268.758 132.903 268.668 135.731 268.579 138.559C269.257 137.839 270.199 137.391 271.17 137.326C271.267 139.921 271.562 142.508 272.055 145.056C272.646 144.67 272.921 143.839 272.682 143.162L289.491 158.571C285.83 156.863 282.412 154.602 279.381 151.882C282.406 157.616 279.455 164.548 277.655 170.805C276.131 176.102 275.469 181.661 275.706 187.181C274.621 186.025 272.737 186.879 271.494 187.851C267.498 190.976 264.107 194.919 261.578 199.383C261.269 198.846 261.297 198.174 261.409 197.561C262.123 193.671 265.562 191.066 268.595 188.636C271.628 186.206 274.765 182.941 274.451 178.995C274.025 173.664 276.482 168.609 277.982 163.488C279.482 158.367 279.747 152.058 275.925 148.439C274.6 147.185 272.912 146.399 271.578 145.156C270.243 143.912 269.284 141.895 270.043 140.214C269.397 140.602 268.75 140.989 268.104 141.377C267.924 138.777 264.97 137.62 262.749 136.375C258.938 134.24 256.151 129.925 256.457 125.467C256.763 121.008 260.651 116.901 264.982 117.153C266.842 117.261 269.23 117.849 270.154 116.183C273.566 110.027 282.417 109.317 286.436 103.563C287.312 102.31 288.627 100.629 289.918 101.415ZM165.175 162.395L165.072 162.609C165.401 162.687 165.73 162.765 166.059 162.843C166.489 162.385 166.394 161.479 165.796 161.284C165.197 161.089 164.627 162.087 165.175 162.395ZM275.622 140.025C275.685 140.954 275.983 141.869 276.484 142.671C276.481 142.097 277.445 141.943 277.862 142.361C278.279 142.778 278.281 143.42 278.258 143.994C280.19 143.792 281.568 145.611 283.015 146.838C286.389 149.699 291.422 149.702 295.946 149.458C297.195 149.391 298.858 149.609 299.05 150.779C296.926 151.499 294.611 151.497 292.358 151.385C288.835 151.211 285.263 150.772 282.049 149.396C278.835 148.02 275.991 145.592 274.866 142.429C274.545 141.523 274.626 140.182 275.622 140.025ZM278.143 136.22C279.421 139.599 284.058 141.363 287.415 139.748C288.016 139.46 288.585 139.079 289.246 138.96C290.357 138.76 291.437 139.334 292.473 139.768C293.932 140.378 295.564 140.737 297.124 140.429C298.684 140.121 300.139 139.038 300.509 137.557C300.604 137.176 300.638 136.756 300.903 136.457C301.167 136.158 301.783 136.124 301.913 136.496C302.661 138.636 300.994 141.038 298.793 141.852C296.592 142.667 294.093 142.233 291.888 141.429C291.147 141.159 290.387 140.843 289.596 140.899C288.8 140.956 288.095 141.382 287.367 141.695C283.991 143.146 279.605 141.932 277.56 138.982C277.223 138.496 276.937 137.936 276.987 137.354C277.036 136.773 277.533 136.195 278.143 136.22ZM312.873 133.521C312.674 134.473 312.802 135.491 313.231 136.364C313.898 136.056 314.299 135.261 314.152 134.541L314.157 134.538C314.147 133.913 313.483 133.387 312.873 133.521ZM289.286 131.665C289.852 131.744 290.309 132.224 290.71 132.697C291.522 133.655 292.275 134.68 292.962 135.763C290.963 136.324 288.859 136.369 286.843 135.892C286.222 135.745 285.967 134.782 286.196 134.09C286.426 133.397 286.968 132.927 287.484 132.496C288.022 132.046 288.63 131.573 289.286 131.665ZM288.144 134.561L288.336 134.658L289.666 134.358C289.815 134.115 289.871 133.797 289.818 133.505C289.154 133.12 288.236 133.7 288.144 134.561ZM263.187 123.865C262.437 124.635 262.289 125.861 262.533 126.922C262.96 128.782 264.409 130.299 264.658 132.194C265.177 132.048 265.407 131.399 265.372 130.846C265.337 130.292 265.123 129.761 265.1 129.207C265.023 127.352 267.024 125.435 265.977 123.924C265.361 123.037 263.936 123.096 263.187 123.865ZM301.901 117.204C304.028 117.351 305.683 119.207 306.833 121.108C307.762 122.643 308.538 124.513 308.012 126.25C307.304 128.588 304.695 129.492 302.442 130.063L300.071 130.665C299.441 130.824 298.783 130.985 298.152 130.83C297.279 130.615 296.638 129.85 296.059 129.126C294.885 127.659 293.643 125.991 293.727 124.07C293.826 121.832 295.67 120.171 297.434 118.937C298.782 117.993 300.29 117.092 301.901 117.204ZM284.739 120.26C286.766 121.691 288.066 124.208 287.503 126.557C286.941 128.906 284.202 130.71 281.809 129.959C279.616 129.271 277.346 128.514 275.714 126.953C274.081 125.392 273.301 122.782 274.563 120.933C275.269 119.897 276.488 119.267 277.74 118.959C280.119 118.373 282.762 118.865 284.739 120.26ZM302.081 119.827C300.749 120.004 299.385 120.091 298.132 120.603C296.88 121.116 295.725 122.158 295.457 123.552C295.109 125.357 296.291 127.053 297.4 128.472C297.921 129.137 298.873 129.135 299.68 129.015C302.135 128.651 304.512 127.71 306.59 126.279C305.538 126.022 304.486 125.764 303.434 125.506C303.575 124.836 304.446 124.805 305.094 124.83C305.741 124.856 306.625 124.423 306.391 123.783C305.395 123.468 304.35 123.327 303.311 123.367C303.006 123.379 302.647 123.442 302.511 123.732C302.406 123.958 302.482 124.225 302.529 124.472C302.841 126.125 301.368 127.868 299.784 127.719C298.2 127.571 297.037 125.581 297.618 124.012C298.199 122.444 300.329 121.823 301.585 122.856C301.866 122.59 301.838 122.046 301.532 121.813C302.457 121.139 303.672 120.932 304.75 121.264C304.877 120.653 304.393 120.053 303.834 119.854C303.275 119.655 302.666 119.749 302.081 119.827ZM278.595 120.741C277.041 120.937 275.209 121.956 275.49 123.431C275.687 124.466 276.945 125.071 278.034 124.927C279.124 124.784 280.044 124.088 280.815 123.337L277.589 123.591C277.167 123.625 276.548 123.429 276.7 123.051C276.743 122.946 276.843 122.873 276.941 122.81C278.339 121.912 280.359 122.03 281.634 123.083C282.878 123.477 284.079 124.36 284.295 125.598C284.511 126.835 283.238 128.228 281.998 127.821C281.888 128.74 283.363 129.025 284.202 128.565C286.222 127.459 286.411 124.463 284.942 122.737C283.472 121.01 280.902 120.451 278.595 120.741ZM277.787 125.47C277.624 126.701 278.993 127.875 280.255 127.586C279.884 126.636 279.052 125.862 278.049 125.534L277.787 125.47ZM280.909 126.081L282.248 127.15L282.288 126.956C282.855 126.663 282.897 125.759 282.36 125.419C281.823 125.078 280.97 125.468 280.909 126.081ZM300 124.205C299.292 124.275 298.88 125.335 299.349 125.902L299.213 125.913C299.643 126.513 300.676 126.42 300.988 125.743C301.299 125.066 300.708 124.135 300 124.205ZM150.822 38.8896C149.948 39.9832 149.655 41.4179 149.451 42.8009C148.418 49.8042 149.019 57.0415 151.192 63.7808C151.584 64.9971 152.048 66.2331 152.922 67.1681C155.31 69.7239 159.441 69.006 162.896 68.4195C166.111 67.8737 169.376 67.6196 172.638 67.6614C174.149 67.6807 175.639 67.3369 177.111 66.9951C181.002 66.0917 184.893 65.1884 188.784 64.2851C188.832 59.108 186.737 53.9431 183.091 50.2543C182.543 49.7005 181.689 49.1516 181.051 49.5999C181.753 50.3081 181.545 51.6758 180.664 52.1445C179.615 51.762 179.988 50.2125 179.695 49.1389C179.317 47.7577 177.716 47.1573 176.317 46.8311C169.136 45.1567 160.786 44.8713 156.014 39.2686C155.57 38.7471 155.151 38.1738 154.549 37.8455C153.319 37.1745 151.696 37.796 150.822 38.8896ZM202.437 17.5597C206.597 19.5021 210.293 22.5267 213.101 26.2866C213.481 26.7945 213.862 27.3783 213.814 28.0215C213.725 29.1903 212.384 29.6957 211.288 29.9285C209.348 30.3406 207.408 30.7527 205.468 31.1649C204.759 31.3156 203.642 30.991 203.932 30.2957C206.269 28.7986 209.071 28.117 211.798 28.3828C212.016 27.9096 211.755 27.3533 211.466 26.9237C210.513 25.5046 209.207 24.3953 207.919 23.3054C205.827 21.5347 203.734 19.764 201.642 17.9933C201.686 17.6283 202.127 17.3879 202.437 17.5597ZM187.153 11.8123C188.98 12.6554 189.642 14.841 189.973 16.7911C190.179 18.0026 190.335 19.2432 190.132 20.4551C189.776 22.5764 188.316 24.4287 186.463 25.5844C184.611 26.74 182.399 27.2522 180.205 27.3697C175.124 27.6419 169.96 25.8004 166.249 22.3933C164.634 20.9103 164.852 18.1821 166.21 16.4698C167.567 14.7575 169.74 13.8725 171.876 13.2975C174.294 12.6464 176.785 12.3001 179.268 11.9554C180.973 11.7187 182.682 11.4817 184.403 11.4243C185.338 11.3931 186.307 11.4221 187.153 11.8123ZM166.883 18.7086C166.323 19.6838 167.245 20.8147 168.091 21.5666C169.749 23.0396 171.826 24.623 173.99 24.0584C175.44 23.6798 176.998 22.3897 178.208 23.2591C178.106 23.7282 177.556 23.9542 177.069 24.0154C176.583 24.0765 176.053 24.0611 175.656 24.3423C175.259 24.6234 175.201 25.3639 175.671 25.4987C177.206 25.9386 178.636 24.6458 179.728 23.5026C180.82 22.3595 182.387 21.1542 183.852 21.782C184.046 21.8653 184.249 22.0144 184.251 22.2221C184.255 22.525 183.869 22.6548 183.566 22.7211C181.955 23.0747 180.514 24.1155 179.693 25.5182C181.84 25.2116 183.765 24.1006 185.627 23.0121C186.943 22.2423 188.39 21.2964 188.656 19.8182C186.816 20.3501 184.902 20.6383 182.983 20.6724C178.968 20.7438 175.065 23.1626 171.15 22.2855C170.16 22.0637 169.479 21.2018 168.882 20.3973C169.501 19.8176 170.49 20.2955 171.297 20.5744C172.104 20.8534 173.4 20.4267 173.099 19.6424C172.152 19.2479 171.205 18.8534 170.258 18.4589C169.115 17.983 167.491 17.649 166.883 18.7086ZM175.897 19.0867C175.616 19.125 175.305 19.1991 175.156 19.4353C174.941 19.7767 175.233 20.2485 175.621 20.3788C176.009 20.5091 176.433 20.404 176.828 20.2985C177.805 20.0378 178.782 19.7771 179.759 19.5165C178.536 19.0593 177.194 18.91 175.897 19.0867ZM184.838 17.4072C183.34 17.9582 181.777 18.5519 180.726 19.7329C183.07 19.3345 185.455 19.1722 187.832 19.2494C188.674 18.8828 188.36 17.4939 187.515 17.1338C186.671 16.7736 185.701 17.09 184.838 17.4072ZM186.037 14.1077C185.205 14.1738 184.463 14.6205 183.685 14.9179C181.475 15.7627 179.008 15.3958 176.639 15.2708C174.558 15.161 172.459 15.25 170.416 15.652C169.318 15.8681 168.034 16.3913 167.895 17.479C169.768 16.6188 171.949 16.9258 174.012 17.0748C178.682 17.4121 183.419 16.8299 187.859 15.3732C187.841 14.5563 186.87 14.0416 186.037 14.1077ZM153.104 14.3732C152.551 14.6173 151.981 14.9558 151.761 15.5168C151.541 16.0779 151.9 16.8692 152.505 16.8525C154.337 15.5748 156.654 15.004 158.873 15.2832C159.576 15.3716 160.294 14.8021 160.365 14.0996C158.027 13.2714 155.372 13.3714 153.104 14.3732ZM177.292 4.78443L177.298 4.86664C176.607 4.62107 175.755 5.00039 175.478 5.67704C176.617 5.59787 177.745 5.35337 178.814 4.95364C178.81 4.32742 177.822 4.44663 177.292 4.78443ZM191.864 2.27521C191.4 2.48613 191.945 3.35205 192.337 3.02741L192.348 3.06352C192.7 2.78308 192.275 2.09052 191.864 2.27521Z" fill="#00160A"/>
</svg>
