<svg width="674" height="405" viewBox="0 0 674 405" fill="none" xmlns="http://www.w3.org/2000/svg">
<path fill-rule="evenodd" clip-rule="evenodd" d="M362.976 308.22C372.058 306.267 371.612 298.521 400.863 298.521C406.082 298.521 416.467 302.357 422.797 303.765C434.898 306.457 457.317 316.635 457.317 316.635C457.317 316.635 467.309 322.677 483.285 322.982C499.262 323.286 507.952 318.939 524.826 318.939C537.131 318.939 547.813 322.982 558.355 322.982C568.896 322.982 583.464 321.638 583.961 313.525C590.659 204.226 554.674 158.924 529.977 120.44C490.816 59.417 501.618 -33.1234 452.125 11.9632C439.571 23.4001 438.068 32.8332 415.857 45.0597C398.176 54.7924 384.403 56.7251 375.028 62.6764C349.076 79.1511 335.445 102.105 317.389 113.087C285.859 132.265 275.517 124.492 250.591 137.615C247.301 139.347 243.652 141.79 239.592 143.431C231.517 146.693 222.316 149.333 214.585 154.782C208.337 159.187 198.73 171.876 198.73 171.876L139.51 192.502C139.51 192.502 126.356 198.613 131.858 220.418C137.361 242.223 154.674 290.47 154.674 290.47C154.674 290.47 171.162 290.234 184.986 298.521C198.811 306.808 203.341 324.925 203.341 324.925C203.341 324.925 236.503 314.912 250.591 310.005C254.46 308.658 263.211 305.256 276.588 304.619C291.252 303.921 302.307 311.185 323.626 312.244C335.605 312.839 353.893 310.172 362.976 308.22Z" fill="#64FCD9"/>
<path fill-rule="evenodd" clip-rule="evenodd" d="M595.255 240.819C594.752 239.571 592.629 240.15 592.226 241.433C591.839 242.663 592.421 243.951 592.955 245.136L593.025 245.29C598.628 257.75 594.167 273.899 582.963 281.717C581.613 280.891 580.644 279.594 579.678 278.302C578.602 276.861 577.53 275.426 575.94 274.66C574.55 273.989 572.954 273.935 571.412 273.893L557.656 273.516C555.983 273.471 553.969 273.608 553.156 275.071C551.386 278.261 546.652 279.533 543.785 277.277C540.918 275.021 541.409 269.628 544.805 268.296C545.057 268.198 545.319 268.119 545.582 268.04L545.582 268.04C546.154 267.868 546.725 267.697 547.179 267.319C547.773 266.825 548.06 266.062 548.322 265.335L553.66 250.552C553.995 249.624 554.335 248.669 554.311 247.682C554.263 245.67 552.743 244.017 551.185 242.745C550.937 242.543 550.685 242.343 550.432 242.143C549.09 241.082 547.728 240.005 546.989 238.482C546.109 236.672 546.625 233.994 548.551 233.413C558.656 230.365 570.015 228.432 579.422 233.216C579.685 233.35 579.948 233.489 580.211 233.628L580.211 233.629C581.562 234.344 582.933 235.071 584.444 235.113C586.25 235.164 588.247 233.686 587.917 231.91C587.707 230.775 586.686 229.938 585.708 229.136C584.533 228.173 583.419 227.259 583.846 225.939C584.014 225.418 584.417 225.011 584.807 224.626L596.78 212.794C597.194 210.556 593.94 209.333 591.844 210.22C590.806 210.659 589.912 211.359 589.018 212.059C588.107 212.772 587.197 213.485 586.134 213.922C581.877 215.669 577.319 212.437 573.949 209.304C561.887 198.089 551.189 185.409 542.166 171.63C541.752 170.998 541.325 170.303 541.38 169.549C541.45 168.581 542.275 167.864 543.037 167.262L562.944 151.542C564.547 150.277 567.056 149.068 568.376 150.627L605.034 193.92C605.616 194.608 606.219 195.336 606.4 196.22C606.772 198.036 605.257 199.678 603.724 200.718C603.485 200.88 603.24 201.04 602.993 201.2L602.993 201.2C601.657 202.07 600.283 202.964 599.69 204.412C598.987 206.127 600.519 208.656 602.234 207.953C611.015 201.646 620.193 195.166 630.841 193.294C632.856 192.94 635.046 192.785 636.839 193.77C640.829 195.961 640.268 201.837 638.751 206.129C635.984 213.96 631.881 221.318 626.674 227.788C625.637 229.077 624.484 230.626 624.922 232.222C625.542 234.477 628.673 234.755 630.915 234.086C631.269 233.98 631.629 233.863 631.992 233.745L631.993 233.745L631.993 233.745C633.924 233.116 635.942 232.458 637.698 233.348C638.621 233.816 639.295 234.648 639.94 235.456L672.661 276.428C665.125 282.354 657.455 288.108 649.657 293.684C648.887 294.235 648.027 294.81 647.083 294.732C645.965 294.639 645.148 293.677 644.462 292.789L613.082 252.193C611.743 250.462 613.004 247.874 614.727 246.525C615.35 246.037 616.034 245.62 616.716 245.204C617.921 244.469 619.12 243.737 619.968 242.628C621.297 240.889 620.944 237.647 618.781 237.319C617.551 237.132 616.42 237.987 615.532 238.858C614.837 239.539 614.176 240.267 613.515 240.996C611.813 242.871 610.112 244.746 607.841 245.799C603.262 247.921 597.142 245.5 595.255 240.819ZM551.29 266.04C551.23 266.197 551.168 266.358 551.171 266.526C551.179 267.005 551.728 267.327 552.205 267.278C552.681 267.228 553.088 266.925 553.468 266.633L563.605 258.845C564.133 258.439 564.711 257.936 564.708 257.27C564.705 256.751 564.342 256.312 563.998 255.922L559.544 250.876C559.312 250.613 559.062 250.338 558.727 250.235C557.81 249.952 557.103 251.037 556.756 251.932L551.29 266.04ZM567.639 261.187C567.931 261.301 568.147 261.549 568.351 261.787L574.4 268.876C574.552 269.447 573.734 269.733 573.143 269.745L556.992 270.058C556.2 270.073 555.367 270.079 554.674 269.697C557.719 265.935 561.789 263.011 566.326 261.325C566.749 261.168 567.22 261.022 567.639 261.187Z" fill="white"/>
<path fill-rule="evenodd" clip-rule="evenodd" d="M244.778 239.506C245.097 234.83 248.533 230.525 253.021 229.175C255.717 228.364 257.595 225.775 258.264 223.04C258.933 220.305 258.582 217.428 258.065 214.66C256.412 205.823 252.591 196.703 244.901 192.046C236.563 186.996 225.815 188.444 216.625 191.696C212.62 193.114 208.457 195.07 206.353 198.762C205.059 201.032 204.704 203.7 204.373 206.293C203.697 211.594 203.019 216.946 203.508 222.267C203.996 227.589 205.755 232.953 209.386 236.873C211.915 239.604 215.79 241.596 219.328 240.442C222.101 239.537 224.645 242.115 227.271 243.385C230.855 245.119 235.086 244.401 238.995 243.646C241.51 243.16 244.603 242.061 244.778 239.506Z" fill="white"/>
<path fill-rule="evenodd" clip-rule="evenodd" d="M338.499 310.222C347.581 309.29 356.663 308.357 365.745 307.424C364.124 309.905 360.86 310.603 357.931 311.049C340.702 313.673 322.812 314.834 306.081 309.953C288.55 304.839 269.51 305.02 252.079 310.467C252.217 308.288 254.657 307.12 256.749 306.494C270.841 302.279 286.091 302.01 300.322 305.727C306.619 307.372 312.744 309.783 319.192 310.665C325.586 311.54 332.079 310.881 338.499 310.222Z" fill="#00160A"/>
<path fill-rule="evenodd" clip-rule="evenodd" d="M267.236 128.819C276.139 126.565 285.579 126.494 294.185 123.286C294.642 123.637 295.099 123.988 295.556 124.339C291.528 128.246 285.284 128.289 279.692 128.759C269.062 129.654 258.644 132.993 249.475 138.446C245.076 141.062 240.839 144.21 235.857 145.385C223.985 148.185 213.058 154.855 205.141 164.135C204.607 163.204 203.711 162.488 202.686 162.171C208.98 156.612 215.914 151.778 223.306 147.796C227.778 145.387 232.41 143.291 237.038 141.198C240.929 139.437 244.82 137.677 248.711 135.917C254.744 133.188 260.816 130.445 267.236 128.819V128.819Z" fill="#00160A"/>
<path fill-rule="evenodd" clip-rule="evenodd" d="M441.021 24.6638C439.468 26.7848 438.014 28.9895 436.245 30.9342C433.905 33.5072 431.066 35.568 428.229 37.5795C419.652 43.6601 410.798 49.5179 401.009 53.3557C396.449 55.1436 391.721 56.4788 387.173 58.2956C372.92 63.9883 360.891 74.2399 350.751 85.76C349.962 86.6561 349.12 87.6027 347.976 87.9452C346.833 88.2876 345.33 87.7088 345.159 86.5274C357.083 75.2045 369.34 63.6579 384.42 57.1027C391.139 54.1824 398.282 52.3201 404.97 49.3303C411.622 46.3563 417.733 42.3078 423.717 38.1494C427.698 35.3831 431.668 32.5341 434.982 28.9968C440.2 23.4283 443.777 16.1868 450.132 11.9616C450.903 11.449 452.256 11.1845 452.486 12.0815C448.23 15.8512 444.38 20.0773 441.021 24.6638Z" fill="#00160A"/>
<path fill-rule="evenodd" clip-rule="evenodd" d="M141.432 70.0203C143.073 73.2282 146.028 75.7382 149.46 76.8372C149.445 77.2374 149.43 77.6375 149.415 78.0377C146.462 79.8237 144.872 83.6065 145.664 86.9658C145.907 87.9998 144.429 88.7293 143.469 88.2743C142.509 87.8192 142.026 86.7584 141.574 85.7971C141.006 84.5907 140.351 83.3916 139.367 82.4925C138.382 81.5934 137.008 81.0307 135.703 81.3055C134.747 81.5068 133.872 80.4892 133.888 79.5124C133.904 78.5356 134.538 77.679 135.236 76.9955C135.934 76.3121 136.736 75.7107 137.255 74.883C137.862 73.9148 138.019 72.7358 138.083 71.5948C138.123 70.8836 138.139 70.1439 138.46 69.5079C138.78 68.8719 139.516 68.3778 140.196 68.59C140.815 68.7832 141.137 69.4429 141.432 70.0203L141.432 70.0203Z" fill="#00160A"/>
<path fill-rule="evenodd" clip-rule="evenodd" d="M499.617 323.813C486.875 325.537 473.729 324.205 461.593 319.958C459.505 319.228 457.041 317.773 457.343 315.582C469.218 320.772 482.455 322.811 495.342 321.435C503.927 320.519 512.34 318.123 520.968 317.795C530.736 317.424 540.38 319.714 550.065 321.041C559.75 322.369 570.006 322.656 578.879 318.553C579.708 318.17 580.601 317.739 581.495 317.926C582.389 318.114 583.084 319.286 582.474 319.966C582.289 320.173 582.026 320.289 581.77 320.398C574.646 323.434 566.874 324.937 559.132 324.779C546.702 324.524 534.571 320.061 522.146 320.473C514.552 320.726 507.146 322.794 499.617 323.813Z" fill="#00160A"/>
<path fill-rule="evenodd" clip-rule="evenodd" d="M540.936 103.077C541.074 104.253 541.363 105.9 540.225 106.226C539.163 106.529 538.487 105.165 538.042 104.153C536.845 101.434 533.998 99.5226 531.028 99.4439C529.852 99.4127 529.654 97.5546 530.48 96.7171C531.306 95.8796 532.564 95.6798 533.61 95.1413C535.24 94.3021 536.316 92.6327 536.846 90.8776C537.376 89.1226 537.427 87.2641 537.475 85.4314C537.486 84.9676 538.015 84.6494 538.476 84.7098C538.936 84.7701 539.315 85.0979 539.617 85.4498C541.689 87.862 541.421 91.7954 543.793 93.9131C544.895 94.897 546.457 95.3609 547.31 96.5673C546.644 97.3637 545.465 97.4053 544.471 97.7033C542.24 98.3716 540.667 100.764 540.936 103.077H540.936Z" fill="#00160A"/>
<path fill-rule="evenodd" clip-rule="evenodd" d="M201.414 95.0299C203.067 96.2511 203.931 98.2491 205.272 99.8064C206.693 101.456 208.685 102.605 210.824 103.01C207.795 104.678 205.809 108.086 205.85 111.543C205.86 112.36 205.737 113.479 204.924 113.55C204.714 113.568 204.507 113.499 204.313 113.417C201.127 112.076 199.821 107.464 196.387 107.063C195.176 106.922 194.962 105.115 195.664 104.118C196.366 103.121 197.548 102.562 198.319 101.617C199.873 99.7109 199.506 96.5813 201.414 95.0299V95.0299Z" fill="#00160A"/>
<path fill-rule="evenodd" clip-rule="evenodd" d="M279.641 52.7141C278.884 53.166 277.879 52.6886 277.326 52.0009C276.774 51.3133 276.49 50.445 275.962 49.739C274.601 47.9202 271.875 47.4688 270.675 45.5405C270.293 44.9279 270.138 44.047 270.65 43.5385C270.854 43.336 271.13 43.2283 271.387 43.0991C273.218 42.1776 274.139 40.0879 274.592 38.0885C275.045 36.089 275.189 33.9821 276.104 32.1475C276.332 31.6909 276.637 31.2294 277.112 31.0427C277.587 30.856 278.248 31.0951 278.321 31.6001C278.586 33.4389 278.852 35.2777 279.117 37.1165C279.271 38.1805 279.438 39.2823 280.024 40.1835C280.61 41.0847 281.741 41.727 282.766 41.4036C283.479 41.1786 284.05 42.1849 283.793 42.8872C283.537 43.5896 282.855 44.0235 282.295 44.5194C280.901 45.7551 280.128 47.6601 280.267 49.5181C280.353 50.6667 280.63 52.1239 279.641 52.7141V52.7141Z" fill="#00160A"/>
<path fill-rule="evenodd" clip-rule="evenodd" d="M156.91 189.059C157.743 188.577 158.564 190.035 158.01 190.821C157.456 191.608 156.375 191.753 155.426 191.907C149.398 192.886 144.202 196.924 140.587 201.845C138.693 204.423 137.109 207.52 137.531 210.691C137.761 212.412 138.427 214.542 137.053 215.604C135.452 213.899 134.526 211.575 134.516 209.236C134.497 205.109 137.148 201.485 139.879 198.391C143.016 194.835 146.809 191.328 151.523 190.821C153.415 190.617 155.263 190.013 156.91 189.059Z" fill="#00160A"/>
<path fill-rule="evenodd" clip-rule="evenodd" d="M457.699 349.661C459.839 347.9 461.284 345.316 461.663 342.571C461.806 341.536 463.474 341.49 464.105 342.323C464.737 343.155 464.651 344.303 464.619 345.348C464.577 346.708 464.692 348.13 465.385 349.301C466.078 350.473 467.484 351.311 468.803 350.977C469.322 350.846 469.807 351.423 469.769 351.957C469.731 352.491 469.343 352.933 468.929 353.272C467.315 354.595 464.898 355.183 464.136 357.125C463.868 357.81 463.86 358.566 463.722 359.289C463.584 360.011 463.257 360.77 462.597 361.096C461.938 361.423 460.94 361.021 460.938 360.285C460.93 357.721 459.65 355.191 457.59 353.665C456.993 353.223 456.277 352.777 456.145 352.046C455.966 351.063 456.927 350.296 457.699 349.661L457.699 349.661Z" fill="#00160A"/>
<path fill-rule="evenodd" clip-rule="evenodd" d="M160.312 211.569C162.93 213.534 166.133 214.71 169.401 214.905C170.146 214.95 170.094 216.072 169.799 216.759C168.959 218.719 168.119 220.679 167.279 222.639C167.749 223.323 168.242 224.115 168.059 224.924C167.875 225.733 166.583 226.17 166.227 225.42C164.848 222.521 161.37 220.789 158.226 221.437C158.384 220.328 158.994 219.345 159.451 218.322C160.389 216.22 160.693 213.84 160.312 211.569Z" fill="#00160A"/>
<path fill-rule="evenodd" clip-rule="evenodd" d="M322.669 290.861C321.565 288.152 318.756 286.231 315.831 286.184C315.032 283.338 318.472 280.987 318.779 278.046C318.842 277.436 318.767 276.808 318.924 276.215C319.081 275.622 319.578 275.045 320.191 275.087C321.043 277.164 322.578 278.956 324.5 280.117C325 280.418 325.543 280.695 325.878 281.173C326.214 281.65 326.239 282.409 325.76 282.741C323.29 284.449 322.867 287.865 322.669 290.861Z" fill="#00160A"/>
<path fill-rule="evenodd" clip-rule="evenodd" d="M215.552 270.61C215.956 270.414 216.425 270.353 216.865 270.441C217.21 273.427 219.461 276.105 222.343 276.957C221.052 279.557 220.331 282.438 220.246 285.34C219.958 285.573 219.541 285.319 219.264 285.074C217.052 283.118 214.84 281.161 212.628 279.205C214.765 276.932 215.86 273.715 215.552 270.61Z" fill="#00160A"/>
<path fill-rule="evenodd" clip-rule="evenodd" d="M510.879 244.563C510.515 244.354 510.116 244.151 509.697 244.183C509.32 244.211 508.973 244.427 508.596 244.435C508.218 244.443 507.797 244.042 508.008 243.728C511.634 241.802 513.106 237.458 514.261 233.518C514.45 233.167 515.029 233.264 515.256 233.593C515.482 233.921 515.468 234.351 515.47 234.75C515.48 236.48 515.987 238.24 517.087 239.575C518.187 240.91 519.917 241.766 521.64 241.614C519.026 243.416 516.175 245.592 515.783 248.742C514.422 247.065 512.751 245.64 510.879 244.563H510.879Z" fill="#00160A"/>
<path fill-rule="evenodd" clip-rule="evenodd" d="M225.344 309.329C230.254 307.35 235.355 305.24 238.839 301.253C239.261 300.771 239.698 300.237 240.317 300.076C240.937 299.915 241.743 300.394 241.618 301.022C241.006 304.082 237.93 305.9 235.158 307.332C233.473 308.203 231.787 309.074 230.101 309.945C229.267 310.376 228.394 310.817 227.455 310.824C226.517 310.831 225.502 310.254 225.344 309.329L225.344 309.329Z" fill="#00160A"/>
<path fill-rule="evenodd" clip-rule="evenodd" d="M418.014 303.933C418.663 302.958 420.067 302.942 421.232 303.063C426.704 303.631 432.104 304.887 437.264 306.791C441.403 308.319 445.401 310.27 449.016 312.798C445.293 313.064 441.794 311.225 438.345 309.797C433.619 307.84 428.635 306.592 423.673 305.35C421.787 304.877 419.9 304.405 418.014 303.933Z" fill="#00160A"/>
<path fill-rule="evenodd" clip-rule="evenodd" d="M148.493 257.615C147.257 254.604 146.113 251.555 145.065 248.473C144.807 247.716 144.555 246.956 144.303 246.197C142.202 239.864 140.1 233.529 138.238 227.122C138.021 226.375 138.246 225.154 138.987 225.393C139.291 225.492 139.441 225.825 139.557 226.123C141.991 232.404 144.426 238.686 146.86 244.967C148.499 249.195 150.165 253.591 149.868 258.115C149.845 258.456 149.369 258.599 149.071 258.433C148.773 258.268 148.622 257.93 148.493 257.615Z" fill="#00160A"/>
<path fill-rule="evenodd" clip-rule="evenodd" d="M241.773 285.794C242.028 286.877 241.769 288.557 240.674 288.359C237.372 276.442 234.237 264.479 231.269 252.475C231.169 252.071 231.07 251.638 231.215 251.248C231.36 250.858 231.857 250.574 232.205 250.801C232.38 250.915 232.469 251.119 232.549 251.312C235.135 257.621 236.708 264.289 238.271 270.926C239.438 275.882 240.605 280.838 241.773 285.794Z" fill="#00160A"/>
<path fill-rule="evenodd" clip-rule="evenodd" d="M136.215 164.154C135.736 164.519 135.258 164.885 134.779 165.251C124.243 157.505 111.5 152.796 98.4591 151.831C98.2774 151.24 98.2245 150.61 98.3053 149.997C110.094 150.087 121.835 153.657 131.678 160.145C133.373 161.262 135.044 162.495 136.215 164.154Z" fill="#00160A"/>
<path fill-rule="evenodd" clip-rule="evenodd" d="M170.896 389.073C185.838 381.112 198.831 369.523 208.439 355.583C210.361 352.794 212.148 349.916 213.935 347.038C214.667 345.86 215.398 344.682 216.13 343.504C217.351 347.234 214.865 351.067 212.51 354.206C201.948 368.288 190.48 383.066 173.975 389.186C172.954 389.565 171.657 389.853 170.896 389.073V389.073Z" fill="#00160A"/>
<path fill-rule="evenodd" clip-rule="evenodd" d="M241.875 204.623C242.938 204.201 244.136 204.679 245.132 205.241C247.288 206.458 249.261 208.204 250.151 210.515C251.041 212.826 250.6 215.752 248.662 217.293C247.654 218.095 246.124 217.905 245.049 217.196C243.973 216.487 243.247 215.369 242.552 214.285C241.124 212.054 239.633 209.513 240.184 206.923C240.391 205.953 240.953 204.988 241.875 204.623H241.875Z" fill="#FFB61D"/>
<path fill-rule="evenodd" clip-rule="evenodd" d="M45.9325 225.831C44.0155 225.397 42.35 223.977 41.6189 222.153C40.8878 220.328 41.1117 218.151 42.1987 216.513C43.5401 214.492 45.9495 213.455 48.3073 212.885C50.7062 212.306 53.1944 212.098 55.6562 212.271C56.5947 212.337 57.57 212.473 58.3459 213.005C58.9452 213.416 59.3759 214.034 59.6968 214.685C60.7794 216.885 60.668 219.63 59.4106 221.734C58.1533 223.839 55.7893 225.238 53.3393 225.327C50.8529 225.417 48.3591 226.38 45.9325 225.831M49.0873 220.43C50.9257 220.333 52.7581 220.122 54.5701 219.797C55.3063 219.665 56.0955 219.483 56.5847 218.917C57.0739 218.351 57.0136 217.282 56.3094 217.03C53.615 216.066 50.4776 216.439 48.084 218.007C47.5306 218.37 46.9566 218.955 47.1277 219.594C47.3271 220.339 48.3168 220.47 49.0873 220.43L49.0873 220.43Z" fill="#00160A"/>
<path fill-rule="evenodd" clip-rule="evenodd" d="M177.162 168.738C177.473 168.758 177.601 169.197 177.446 169.467C177.312 169.699 177.064 169.829 176.813 169.933L158.908 176.931V176.931C158.193 177.21 156.959 177.061 157.179 176.326C157.267 176.03 157.587 175.88 157.874 175.765C164.229 173.226 170.662 170.882 177.162 168.738Z" fill="#00160A"/>
<path fill-rule="evenodd" clip-rule="evenodd" d="M235.083 192.826C232.923 192.933 230.802 193.601 228.938 194.697C227.447 195.574 225.563 195.131 223.898 194.665C222.29 194.214 220.681 193.763 219.072 193.312C218.971 192.824 219.554 192.501 220.029 192.353C224.737 190.888 229.671 189.862 234.582 190.305C239.493 190.748 244.408 192.803 247.522 196.627C243.608 194.643 239.465 192.607 235.083 192.826Z" fill="#00160A"/>
<path fill-rule="evenodd" clip-rule="evenodd" d="M215.96 205.048C216.153 208.846 214.57 212.698 211.761 215.262C211.027 215.932 210.095 216.549 209.114 216.393C208.121 216.235 207.394 215.289 207.213 214.3C207.032 213.311 207.294 212.295 207.639 211.352C208.711 208.421 210.628 205.806 213.098 203.901C213.724 203.418 214.585 202.969 215.261 203.38C215.797 203.707 215.928 204.42 215.96 205.048V205.048Z" fill="#FFB61D"/>
<path fill-rule="evenodd" clip-rule="evenodd" d="M338.135 364.986C334.101 363.797 329.689 360.892 329.934 356.693C330.103 353.782 332.495 351.539 334.833 349.798C338.046 347.407 341.493 345.333 345.11 343.614C347.567 342.446 350.44 341.036 350.914 338.358C353.691 322.702 365.599 309.042 380.691 304.035C395.783 299.028 413.427 302.821 425.215 313.492C427.553 315.608 430.434 318.168 433.416 317.143C439.409 315.083 446.108 313.685 451.979 316.071C454.147 316.952 456.335 318.752 456.226 321.089C456.175 322.197 455.606 323.207 455.01 324.142C451.307 329.952 445.957 334.698 439.748 337.682C436.676 339.158 434.66 342.232 433.437 345.414C432.213 348.596 431.633 351.989 430.533 355.216C426.164 368.035 413.435 377.085 399.987 378.691C386.54 380.297 372.796 375.1 362.498 366.303C361.323 365.299 359.862 364.174 358.394 364.659C351.882 366.81 344.714 366.926 338.135 364.986M358.638 353.14C359.31 353.464 360.085 353.474 360.831 353.465C376.981 353.277 392.453 347.391 407.525 341.586C414.062 339.068 420.6 336.55 427.137 334.032C428.471 333.518 429.949 332.866 430.454 331.527C430.785 330.648 430.608 329.666 430.38 328.755C428.381 320.789 422.652 314.007 415.507 309.959C408.362 305.91 399.917 304.465 391.725 305.042C380.536 305.83 369.381 310.556 362.155 319.135C354.929 327.714 352.226 340.314 356.662 350.616C357.094 351.619 357.654 352.664 358.638 353.14M428.353 344.04C409.515 352.972 389.402 359.211 368.816 362.509C367.381 362.739 366.764 364.649 367.327 365.989C367.89 367.329 369.197 368.183 370.453 368.913C378.043 373.324 386.631 376.254 395.409 376.381C404.187 376.508 413.15 373.666 419.632 367.745C426.113 361.824 429.809 352.697 428.353 344.04M333.305 358.334C333.804 359.853 335.358 360.748 336.851 361.322C342.703 363.569 349.221 362.991 355.432 362.148C380.501 358.745 405.049 351.526 427.969 340.816C437.151 336.525 446.473 331.317 451.91 322.763C452.381 322.021 452.836 321.191 452.747 320.317C452.559 318.476 450.269 317.751 448.42 317.664C443.842 317.45 439.306 318.47 434.836 319.483C433.277 319.837 431.332 320.685 431.477 322.276C431.636 324.023 434.085 324.351 435.781 323.9C437.476 323.449 439.574 322.829 440.752 324.129C442.363 325.907 440.144 328.544 438.108 329.812C422.72 339.402 405.312 345.165 388.093 350.841C384.03 352.181 379.956 353.523 375.766 354.383C372.169 355.121 368.51 355.5 364.857 355.877C361.44 356.23 358.023 356.582 354.606 356.935C352.874 357.114 351.073 357.285 349.437 356.691C347.8 356.097 346.389 354.496 346.616 352.77C346.867 350.86 348.818 349.754 350.276 348.494C351.734 347.234 352.726 344.686 351.155 343.57C345.812 345.744 340.796 348.721 336.328 352.369C334.487 353.872 332.564 356.076 333.305 358.334M433.9 329.768C435.321 328.87 436.741 327.973 438.162 327.075C438.596 326.801 439.094 326.354 438.912 325.873C438.752 325.453 438.198 325.38 437.748 325.377C436.45 325.366 435.009 325.408 434.072 326.306C433.152 327.187 433.072 328.8 433.9 329.768M349.681 352.482C349.576 352.596 349.469 352.716 349.423 352.864C349.226 353.498 350.209 353.835 350.839 353.624C351.47 353.414 352.182 353.008 352.736 353.374C353.535 353.901 354.655 352.808 354.362 351.896C354.07 350.985 352.911 350.593 351.985 350.836C351.059 351.079 350.331 351.779 349.681 352.482H349.681Z" fill="#00160A"/>
<path fill-rule="evenodd" clip-rule="evenodd" d="M237.652 231.477C236.579 231.764 235.263 231.651 234.603 230.759C234.089 230.064 234.126 229.097 234.377 228.27C234.745 227.053 235.576 225.933 236.746 225.435C237.916 224.938 239.423 225.182 240.224 226.17C240.959 227.078 240.97 228.445 240.404 229.466C239.839 230.487 238.78 231.175 237.652 231.477L237.652 231.477Z" fill="#FFB61D"/>
<path fill-rule="evenodd" clip-rule="evenodd" d="M233.404 223.264C233.166 223.863 232.694 224.419 232.06 224.539C231.009 224.738 230.139 223.698 229.748 222.702C229.374 221.748 229.193 220.718 229.22 219.694C229.228 219.391 229.31 219.016 229.604 218.942C230.751 218.65 232.045 219.051 232.827 219.94C233.608 220.828 233.84 222.164 233.404 223.264H233.404Z" fill="#FFB61D"/>
<path fill-rule="evenodd" clip-rule="evenodd" d="M411.522 371.312C410.834 371.623 409.775 371.717 409.558 370.994C412.01 369.527 414.462 368.059 416.914 366.592C415.632 368.649 413.731 370.314 411.522 371.312Z" fill="#E7EAEE"/>
<path fill-rule="evenodd" clip-rule="evenodd" d="M218.867 228.236C219.564 229.04 220.176 229.985 220.266 231.045C220.356 232.106 219.778 233.279 218.755 233.573C217.757 233.86 216.731 233.267 215.91 232.632C214.975 231.91 214.079 231.05 213.692 229.934C213.306 228.818 213.581 227.4 214.587 226.781C215.987 225.921 217.791 226.994 218.867 228.236H218.867Z" fill="#FFB61D"/>
<path fill-rule="evenodd" clip-rule="evenodd" d="M370.434 365.002C371.484 366.141 372.534 367.28 373.584 368.419C373.752 368.602 373.634 368.954 373.39 368.998C371.333 368.052 369.56 366.495 368.357 364.576C368.727 363.824 369.866 364.385 370.434 365.002L370.434 365.002Z" fill="#E7EAEE"/>
<path fill-rule="evenodd" clip-rule="evenodd" d="M68.7977 322.945C67.8079 321.811 66.8767 320.498 66.789 318.995C66.7324 318.025 67.0377 317.067 67.4561 316.19C69.1201 312.702 72.6161 310.27 76.3905 309.441C80.165 308.613 84.1674 309.275 87.7111 310.816C88.9985 311.376 90.281 312.088 91.1006 313.227C92.382 315.01 92.2458 317.521 91.2864 319.496C90.3271 321.47 88.6735 323.01 86.9954 324.426C85.4493 325.729 83.776 327.005 81.8004 327.438C80.7375 327.671 79.6373 327.646 78.5495 327.621C77.4591 327.596 76.3602 327.569 75.2962 327.329C72.7033 326.745 70.5456 324.947 68.7977 322.945M75.9817 316.27C75.0815 315.407 73.6542 314.516 72.7268 315.35C71.9324 316.064 71.3174 316.977 70.9531 317.981C72.762 318.044 74.5865 317.423 75.9817 316.27M78.6059 312.051C77.5073 312.315 76.365 312.601 75.5019 313.33C76.1102 313.949 76.8126 314.533 77.6608 314.715C78.509 314.897 79.5237 314.552 79.8549 313.75C80.1861 312.948 79.4493 311.849 78.6059 312.051M81.6107 319.554C81.5275 320.215 81.4468 320.903 81.6637 321.532C81.8805 322.161 82.4911 322.708 83.1507 322.62C84.0964 322.493 84.5107 321.256 85.4161 320.955C84.2557 320.245 82.9545 319.766 81.6107 319.554M85.8835 314.165C86.6172 314.389 87.4764 313.756 87.4797 312.989C85.6592 312.348 83.4232 313.346 82.685 315.129C83.802 315.358 85.025 314.976 85.8131 314.152M79.5223 321.964C79.433 321.742 79.3013 321.51 79.0761 321.428C78.3461 321.162 78.1589 322.521 77.4757 322.89C76.8316 323.239 76.9238 324.334 77.5639 324.69C78.204 325.047 79.0764 324.708 79.4568 324.082C79.8371 323.456 79.7952 322.644 79.5223 321.964M74.1507 320.282C73.4921 320.845 72.291 320.588 71.8344 321.324C71.4353 321.968 72.0867 322.868 72.8415 322.929C73.5964 322.99 74.284 322.468 74.7347 321.86C74.9819 321.526 75.1905 321.114 75.0967 320.709C75.0029 320.304 74.4663 320.012 74.1507 320.282M87.7967 317.882C88.0399 317.638 88.283 317.393 88.5261 317.149C87.8955 316.538 86.8776 316.68 86.0192 316.864C85.7538 316.921 85.4703 316.988 85.2879 317.189C84.864 317.656 85.3718 318.468 85.996 318.556C86.6202 318.644 87.2097 318.282 87.736 317.935L87.7967 317.882Z" fill="#00160A"/>
<path fill-rule="evenodd" clip-rule="evenodd" d="M407.439 181.135C404.911 178.844 402.383 176.553 399.856 174.262C399.032 173.515 398.34 171.92 399.393 171.563C400.484 173.621 402.92 174.604 405.233 174.873C407.546 175.141 409.901 174.861 412.208 175.181C414.393 175.485 416.463 176.316 418.538 177.066C429.984 181.199 442.161 182.98 453.67 186.932C454.345 187.164 455.117 187.511 455.261 188.211C455.422 188.992 454.688 189.657 453.989 190.041C450.401 192.015 445.551 191.343 442.635 188.468C441.229 187.083 438.923 188.048 437.022 188.581C433.52 189.564 429.795 188.722 426.257 187.878C422.512 186.985 418.767 186.092 415.022 185.199C413.717 184.888 412.398 184.572 411.199 183.97C409.791 183.263 408.606 182.192 407.439 181.135M449.646 189.202C450.241 188.933 449.563 188.08 448.948 187.861C442.9 185.702 436.758 183.592 430.366 182.979C427.05 182.661 423.777 181.908 420.655 180.746C416.471 179.188 412.222 176.85 407.821 177.6C408.2 179.993 410.51 181.644 412.845 182.29C415.179 182.936 417.653 182.855 420.032 183.313C423.017 183.889 425.77 185.295 428.67 186.209C431.57 187.123 434.86 187.505 437.549 186.086C439.454 185.081 441.808 185.712 443.739 186.666C445.67 187.62 447.513 188.898 449.646 189.202Z" fill="#00160A"/>
<path fill-rule="evenodd" clip-rule="evenodd" d="M603.761 215.428C605.667 213.916 607.574 212.404 609.48 210.892C610.027 210.459 610.618 210.007 611.313 209.946C612.335 209.856 613.211 210.623 613.937 211.347C616.442 213.844 618.82 216.468 621.059 219.205C621.604 219.871 620.918 220.821 620.276 221.394C618.161 223.282 616.046 225.17 613.931 227.058C613.396 227.535 612.823 228.032 612.117 228.158C611.02 228.354 610 227.61 609.134 226.91C607.301 225.426 605.468 223.942 603.635 222.458C602.535 221.568 601.34 220.494 601.3 219.08C601.256 217.555 602.566 216.376 603.761 215.428M613.351 215.663C612.803 215.051 612.164 214.394 611.343 214.356C610.705 214.326 610.12 214.684 609.582 215.029C608.622 215.645 607.661 216.261 606.701 216.877C606.324 217.118 605.931 217.377 605.719 217.771C605.179 218.777 606.067 219.932 606.888 220.726C608.092 221.891 609.297 223.056 610.501 224.221C610.871 224.579 611.311 224.963 611.823 224.913C612.184 224.877 612.485 224.63 612.755 224.387C613.785 223.459 614.729 222.436 615.573 221.337C616.17 220.558 616.707 219.408 616.052 218.677C615.152 217.672 614.251 216.668 613.351 215.663V215.663Z" fill="#FFB61D"/>
<path fill-rule="evenodd" clip-rule="evenodd" d="M481.249 113.651C488.761 128.152 486.504 145.562 484.058 161.71C498.232 168.906 510.458 179.895 519.119 193.224C521.812 197.368 524.242 202.391 522.697 207.085C520.822 212.781 514.143 215.146 508.248 216.239C493.486 218.975 478.15 218.578 463.55 215.079C458.038 213.759 451.749 212.128 447.09 215.356C426.541 229.596 398.075 230.835 375.768 219.546C353.461 208.258 337.81 185.3 334.161 160.567C333.464 155.844 329.251 152.58 325.501 149.627C312.665 139.517 301.601 127.163 292.964 113.294C289.354 107.498 286.083 100.4 288.648 94.0716C291.61 86.7607 300.731 84.3526 308.613 84.0263C326.126 83.3012 343.829 88.1846 358.493 97.7861C368.58 85.2366 383.181 76.3952 398.976 73.2719C414.772 70.1485 431.639 72.7674 445.743 80.5331C452.749 84.3905 459.032 89.4323 465.029 94.7239C471.296 100.254 477.404 106.229 481.249 113.651M493.7 197.274C490.578 202.069 484.118 203.236 478.398 203.389C461.022 203.853 443.983 199.078 427.258 194.345C415.596 191.044 403.879 187.723 392.864 182.663C386.177 179.591 379.795 175.898 373.496 172.095C350.976 158.5 327.998 141.676 319.676 116.722C318.05 111.848 321.328 106.316 325.966 104.104C330.603 101.891 336.112 102.384 341.018 103.911C343.565 104.704 346.128 105.773 348.789 105.584C351.45 105.394 354.236 103.391 354.153 100.725C354.066 97.9186 351.12 96.1948 348.532 95.1068C333.891 88.9515 317.783 85.4469 302.054 87.6481C298.724 88.1141 295.187 88.9678 292.964 91.4912C288.94 96.0608 291.288 103.202 294.209 108.544C306.503 131.033 325.632 149.254 347.021 163.375C368.41 177.496 392.094 187.759 415.99 197.025C444.925 208.246 475.782 218.264 506.487 213.748C509.557 213.297 512.688 212.67 515.317 211.02C517.946 209.371 520.003 206.491 519.865 203.39C519.772 201.296 518.725 199.376 517.641 197.583C509.3 183.782 497.168 172.3 482.929 164.732C482.237 167.365 481.544 169.998 480.851 172.631C485.185 175.462 489.633 178.403 492.555 182.676C495.477 186.949 496.525 192.936 493.7 197.274M479.601 162.379C480.408 161.616 480.729 160.484 480.994 159.406C483.844 147.815 484.039 135.58 481.559 123.904C477 125.006 472.442 126.108 467.883 127.21C465.715 127.734 463.521 128.261 461.29 128.256C458.581 128.25 455.943 127.46 453.268 127.034C447.286 126.081 441.182 126.951 435.187 127.82C432.87 128.157 430.576 127.161 428.526 126.03C414.118 118.084 404.742 102.684 389.873 95.637C388.288 94.8857 386.627 94.2209 385.29 93.0841C382.575 90.7737 381.579 86.8437 378.707 84.7308C380.931 93.8 388.024 100.852 395.507 106.438C402.99 112.023 411.251 116.737 417.564 123.618C420.798 127.143 425.711 128.592 430.451 129.236C435.191 129.881 440.051 129.884 444.645 131.217C448.142 132.232 451.545 134.02 455.182 133.834C458.56 133.66 461.588 131.804 464.806 130.76C469.514 129.233 474.587 129.461 479.531 129.705C480.529 129.755 481.802 130.037 481.948 131.026C482.123 132.211 480.517 132.755 479.318 132.77C473.505 132.842 467.054 131.489 462.346 134.9C458.706 137.538 453.72 137.345 449.366 136.226C445.012 135.107 440.844 133.181 436.376 132.679C433.204 132.322 429.97 132.698 426.819 132.183C418.021 130.746 411.939 122.979 405.068 117.299C399.788 112.935 393.703 109.639 388.342 105.374C382.981 101.11 378.2 95.5217 377.017 88.7747C376.71 87.0278 374.061 87.5234 372.558 88.4649C368.875 90.7719 365.15 93.1132 362.155 96.2628C359.161 99.4124 356.928 103.51 356.898 107.855C356.855 113.898 361.593 119.625 367.537 120.716C372.569 121.64 372.499 131.075 377.61 131.298C380.896 131.442 382.606 135.124 384.076 138.065C385.547 141.007 388.907 144.082 391.68 142.314C393.485 141.164 395.78 142.452 397.659 143.476C399.538 144.501 402.4 145.003 403.383 143.102C399.513 142.441 397.42 137.074 399.821 133.968C401.63 131.627 404.9 131.046 407.858 130.971C411.325 130.882 414.945 131.296 417.876 133.152C420.806 135.008 422.842 138.603 422.011 141.971C421.046 145.88 421.781 150.177 423.989 153.544C425.773 152.397 427.557 151.25 429.342 150.104C431.736 148.565 434.218 146.991 437.027 146.533C439.835 146.074 443.081 147.028 444.456 149.52C445.834 152.015 444.977 155.1 444.092 157.809C448.811 156.044 454.407 156.858 458.427 159.893C463.721 163.89 470.903 165.261 477.296 163.496C478.128 163.267 478.974 162.971 479.601 162.379M453.697 89.9721C452.797 89.4587 451.663 88.9654 450.779 89.5061C447.628 91.4342 443.585 91.039 440.025 90.0495C436.465 89.06 432.993 87.534 429.301 87.3797C426.523 87.2635 423.766 87.9353 420.986 87.9362C414.38 87.9383 408.42 84.2253 402.872 80.6399C402.16 80.1798 401.412 79.6796 401.057 78.9098C400.702 78.14 400.948 77.0306 401.756 76.7732C407.411 82.8804 416.06 86.0736 424.326 85.1066C426.597 84.841 428.858 84.2812 431.138 84.4416C434.387 84.6702 437.336 86.3275 440.434 87.3327C443.532 88.3379 447.309 88.5511 449.68 86.3179C430.893 71.9717 403.274 70.4134 382.992 82.5553C382.678 82.7434 382.317 83.0583 382.445 83.4015C384.509 88.947 390.308 91.9571 395.296 95.1394C406.598 102.349 415.581 112.617 426.082 120.951C429.285 123.493 433.235 125.984 437.196 124.967C442.863 123.512 448.855 123.34 454.596 124.466C457.121 124.962 459.63 125.708 462.203 125.663C467.495 125.572 472.398 122.155 477.679 122.514C479.216 122.618 480.447 121.034 480.523 119.496C480.599 117.957 479.85 116.509 479.078 115.177C473.03 104.74 464.176 95.9475 453.697 89.9721M370.209 197.689C374.921 200.543 381.192 198.512 386.347 200.455C388.848 201.397 391.062 203.267 393.729 203.447C396.074 203.606 398.356 202.407 400.699 202.586C402.926 202.756 404.846 204.129 406.748 205.299C414.305 209.947 423.449 211.958 432.259 210.91C434.575 210.635 436.693 212.101 438.914 212.816C441.135 213.531 444.31 212.905 444.617 210.592C431.954 206.99 419.748 201.965 407.575 196.952C382.373 186.573 356.789 175.972 335.524 158.924C336.785 163.056 338.045 167.187 339.305 171.319C340.875 176.465 342.453 181.633 344.752 186.497C353.852 205.75 373.643 218.361 394.364 223.273C403.518 225.444 413.29 226.276 422.228 223.34C416.275 222.847 411.922 217.564 406.38 215.335C400.66 213.035 393.621 213.967 388.824 210.095C382.993 205.389 372.805 206.991 369.041 200.513C368.337 199.302 369.011 196.963 370.209 197.689M357.435 134.787C357.49 137.792 359.188 140.716 361.771 142.252C363.002 142.985 364.439 143.442 365.417 144.49C366.575 145.732 366.83 147.729 366.022 149.222C364.664 151.733 361.222 152.124 358.392 151.744C356.836 151.535 355.27 151.177 353.916 150.381C352.12 149.324 350.846 147.593 349.428 146.065C346.369 142.768 342.44 140.285 338.15 138.934C338.481 142.208 341.135 144.701 343.666 146.803C354.68 155.951 366.689 163.832 378.963 171.203C382.971 173.61 387.013 175.967 391.183 178.081C406.467 185.828 423.202 190.186 439.788 194.489C445.784 196.045 451.78 197.6 457.775 199.156C458.603 199.371 459.486 199.584 460.3 199.319C461.177 199.032 461.784 198.25 462.332 197.507C466.25 192.19 469.981 186.735 473.516 181.156C473.687 180.888 473.864 180.585 473.808 180.272C473.734 179.852 473.29 179.621 472.899 179.453C466.456 176.681 460.013 173.91 453.57 171.138C452.413 170.64 451.207 170.133 449.948 170.175C448.446 170.226 447.096 171.047 445.678 171.546C436.851 174.653 427.754 165.156 418.552 166.857C415.52 167.417 412.846 169.156 409.926 170.148C407.006 171.139 403.351 171.189 401.293 168.892C400.101 167.562 399.699 165.729 398.999 164.086C398.3 162.443 397 160.783 395.215 160.71C394.34 160.674 393.503 161.033 392.644 161.199C389.253 161.851 386.018 159.447 383.863 156.75C381.707 154.052 380.043 150.86 377.239 148.846C374.047 146.553 369.752 146.078 366.783 143.503C363.774 140.892 362.645 136.554 359.511 134.094C358.967 133.668 358.102 133.338 357.658 133.867C357.45 134.114 357.429 134.465 357.435 134.787M440.539 158.871C439.904 156.838 442.278 154.933 442.084 152.812C441.846 150.2 438.226 149.565 435.698 150.269C433.271 150.945 431.002 152.181 429.117 153.853C426.945 155.779 424 158.454 421.678 156.711C421.067 156.253 420.684 155.56 420.352 154.872C418.251 150.51 417.563 145.482 418.414 140.715C418.837 138.348 417.012 136.043 414.802 135.094C412.592 134.145 410.094 134.229 407.691 134.33C406.167 134.394 404.513 134.506 403.363 135.509C402.213 136.512 402.104 138.745 403.51 139.336C405.555 140.196 406.697 142.762 405.966 144.857C403.593 147.211 399.745 146.875 396.44 146.374C393.88 145.987 391.32 145.599 388.76 145.212C386.893 144.929 384.916 144.598 383.489 143.36C380.699 140.94 380.735 135.717 377.23 134.554C376.288 134.241 375.254 134.317 374.307 134.023C369.567 132.551 370.332 123.72 365.441 122.878C357.688 121.543 352.161 112.699 354.358 105.145C347.173 114.451 341.554 124.964 337.808 136.108C342.811 137.104 347.495 139.647 351.057 143.299C352.841 145.129 354.434 147.29 356.767 148.331C359.101 149.372 362.495 148.627 363.135 146.153C360.191 145.843 357.769 143.635 356.155 141.154C355.047 139.452 354.196 137.49 354.276 135.461C354.357 133.432 355.558 131.356 357.488 130.724C360.055 129.882 362.751 131.785 364.286 134.008C365.822 136.231 366.755 138.889 368.66 140.805C370.587 142.741 373.264 143.68 375.702 144.911C379.394 146.774 382.687 149.425 385.296 152.634C387.112 154.867 388.911 157.571 391.749 158.053C394.348 158.495 397.239 156.899 399.535 158.194C402.948 160.121 401.831 166.632 405.586 167.754C407.238 168.247 408.933 167.31 410.483 166.555C417.711 163.034 426.594 163.129 433.745 166.803C435.637 167.775 437.491 169.006 439.608 169.207C443.025 169.531 446.119 167.11 449.533 166.762C453.473 166.36 457.084 168.719 460.553 170.629C464.411 172.753 468.517 174.425 472.762 175.6C473.507 175.806 474.31 175.996 475.039 175.738C475.935 175.422 476.474 174.52 476.875 173.658C477.974 171.296 478.609 168.719 478.733 166.116C471.407 167.296 462.982 168.181 457.429 163.259C454.723 160.861 450.929 159.743 447.355 160.291C444.829 160.679 441.301 161.31 440.539 158.871M326.624 123.462C328.916 127.192 331.208 130.922 333.5 134.652C333.78 135.108 334.257 135.633 334.747 135.418C335.035 135.291 335.161 134.958 335.259 134.659C338.15 125.867 342.23 117.467 347.353 109.759C347.713 109.216 346.98 108.618 346.375 108.378C344.58 107.663 342.781 106.946 340.92 106.425C337.282 105.406 333.432 105.151 329.692 105.682C327.079 106.052 324.215 107.051 323.113 109.449C322.606 110.551 322.55 111.808 322.632 113.019C322.753 114.814 323.156 116.59 323.823 118.262C324.554 120.093 325.591 121.782 326.624 123.462M489.942 197.809C492.622 196.304 493.476 192.659 492.649 189.7C491.822 186.74 489.702 184.335 487.549 182.142C485.184 179.735 482.701 177.445 480.111 175.282C475.812 183.556 470.912 191.517 465.463 199.082C465.115 199.565 465.419 200.292 465.928 200.599C466.438 200.905 467.068 200.906 467.662 200.894C474.14 200.759 480.606 200.044 486.957 198.76C487.985 198.552 489.028 198.323 489.942 197.809M380.911 203.295C384.744 203.614 387.751 206.585 391.211 208.267C397.672 211.408 405.885 210.083 411.763 214.214C413.573 215.485 415.049 217.214 416.969 218.312C419.048 219.5 421.487 219.86 423.87 220.093C428.696 220.564 434.238 220.324 437.43 216.674C437.611 216.468 437.786 216.245 437.863 215.982C438.256 214.65 436.247 214.057 434.861 214.135C423.84 214.756 412.213 213.063 403.298 206.553C400.962 204.848 397.746 206.538 394.854 206.601C391.873 206.666 389.199 204.937 386.455 203.769C382.632 202.142 378.37 201.559 374.251 202.099C375.844 203.79 378.596 203.102 380.911 203.295V203.295Z" fill="#00160A"/>
<path fill-rule="evenodd" clip-rule="evenodd" d="M215.429 183.114C213.968 181.942 213.406 180.016 212.544 178.353C209.645 172.758 202.964 169.962 196.663 169.92C190.362 169.878 184.293 172.101 178.386 174.293C168.97 177.788 159.555 181.283 150.14 184.777C141.365 188.034 131.727 192.068 127.897 200.609C124.255 208.731 127.141 218.142 130.054 226.553C137.07 246.814 144.086 267.075 151.102 287.336C151.995 289.915 153.639 293.017 156.359 292.782C177.014 291 197.727 306.65 201.657 327.006C214.673 324.158 227.247 319.299 238.796 312.654C241.968 310.828 245.17 308.766 247.123 305.67C250.692 300.015 249.172 292.677 247.533 286.194C244.522 274.283 241.511 262.371 238.5 250.46C230.32 250.177 221.914 249.137 214.77 245.143C201.907 237.952 195.581 220.953 200.461 207.048C205.341 193.143 220.764 183.844 235.362 185.858C249.961 187.872 262.243 200.87 263.591 215.544C264.939 230.219 255.341 245.161 241.49 250.193C243.996 259.577 246.502 268.961 249.008 278.346C250.795 285.038 252.597 291.851 252.354 298.774C251.971 309.686 246.582 319.729 241.058 329.147C224.481 357.41 203.615 385.732 172.965 397.316C161.727 401.563 149.704 403.318 137.735 404.356C131.488 404.897 125.148 405.247 118.984 404.091C111.978 402.776 105.476 399.566 99.2882 396.026C51.0423 368.427 16.8922 317.479 9.69679 262.364C8.93876 256.558 8.45436 250.674 6.76989 245.066C5.23739 239.964 2.73779 235.185 1.31572 230.051C-1.72164 219.086 0.581876 206.771 7.37738 197.645C10.9997 192.78 11.7159 186.423 13.6999 180.691C15.5986 175.206 18.7498 170.159 22.8441 166.045C27.3325 161.535 32.8591 158.202 38.5023 155.262C67.4734 140.172 101.251 134.487 133.566 139.263C165.88 144.039 196.569 159.252 219.936 182.078C219.68 183.934 216.889 184.286 215.429 183.114ZM172.076 314.995C169.856 312.322 167.678 309.507 166.577 306.211C165.477 302.914 165.623 299.01 167.77 296.278C166.656 295.073 164.683 294.776 163.264 295.599C161.844 296.422 161.122 298.282 161.614 299.847C162.527 302.75 160.592 306.221 157.643 306.971C159.418 303.469 159.998 299.375 159.265 295.518C159.213 295.242 159.138 294.941 158.91 294.777C158.426 294.429 157.798 294.967 157.492 295.478C155.666 298.527 155.759 302.424 156.903 305.789C158.047 309.153 160.131 312.104 162.186 315.002C167.351 313.32 173.58 316.79 174.868 322.067C175.984 326.639 180.55 329.785 185.217 330.39C189.885 330.994 194.585 329.487 198.811 327.414C191.254 326.397 183.288 325.21 177.338 320.443C175.364 318.862 173.692 316.941 172.076 314.995ZM17.237 225.579C13.3734 216.659 11.3692 207.031 10.2359 197.376C4.03363 206.266 1.5919 217.693 3.6192 228.342C5.6465 238.991 12.1164 248.721 21.1514 254.711C23.991 256.593 24.4989 260.452 25.1344 263.799C26.677 271.923 30.4566 279.422 34.1934 286.798C41.4139 301.05 48.7233 315.44 58.9542 327.712C65.262 335.278 73.9369 342.436 83.7437 341.507C94.3355 340.503 101.98 329.962 103.36 319.412C104.739 308.863 101.361 298.335 98.028 288.232C94.3801 277.175 90.7321 266.117 87.0841 255.06C86.649 253.742 86.2758 252.113 87.2369 251.11C93.1733 244.92 94.7752 235.543 93.4311 227.072C92.0869 218.601 88.1778 210.783 84.2792 203.143C82.9071 203.602 82.9648 205.527 83.1749 206.959C84.7474 217.669 79.1388 228.699 70.4218 235.118C61.7048 241.537 50.3574 243.706 39.5789 242.7C35.4938 242.319 31.3563 241.475 27.8428 239.356C22.7976 236.314 19.5785 230.985 17.237 225.579ZM131.719 359.754C127.144 356.534 123.537 352.136 120.217 347.633C114.879 340.394 110.119 332.729 105.996 324.736C103.912 330.639 100.181 335.951 95.3348 339.914C89.7831 344.454 81.6159 344.71 74.9263 342.125C68.2366 339.539 62.7801 334.533 57.9351 329.245C40.5925 310.317 29.0767 286.56 22.2011 261.826C21.4989 259.3 20.7196 256.57 18.6347 254.981C16.5498 253.391 12.758 253.945 12.2246 256.512C12.1104 257.062 12.1572 257.63 12.2045 258.19C13.0212 267.851 13.8513 277.586 16.5421 286.901C17.8371 291.383 19.5533 295.732 21.3053 300.057C27.7328 315.922 34.7723 331.735 45.0498 345.424C58.6473 363.536 77.2717 377.115 95.6054 390.411C102.451 395.377 110.637 400.607 118.763 398.264C122.068 397.311 124.899 395.18 127.483 392.91C136.365 385.109 143.306 375.114 147.514 364.067C141.986 364.932 136.295 362.974 131.719 359.754ZM89.8039 169.666C81.9615 163.741 73.3811 158.517 63.867 156.049C54.3529 153.581 43.7627 154.114 35.3067 159.124C32.3965 160.848 29.7956 163.058 27.4263 165.472C19.3865 173.665 13.8763 184.675 13.7038 196.152C13.6127 202.218 14.9775 208.206 16.537 214.068C18.0398 219.717 19.7784 225.417 23.0715 230.247C26.3646 235.076 31.4702 238.98 37.2917 239.507C46.4261 240.334 55.9368 239.198 64.0121 234.85C72.0873 230.501 78.5341 222.646 79.845 213.568C80.8027 206.936 79.0557 200.222 79.081 193.521C79.0932 190.267 79.5267 187.015 80.367 183.871C81.1298 181.018 82.2794 178.173 84.3565 176.073C86.4335 173.973 89.5969 172.757 92.4201 173.624C92.5652 171.975 91.1247 170.664 89.8039 169.666ZM214.139 325.935C204.233 329.002 194.326 332.07 184.42 335.137C177.611 337.246 170.698 339.372 163.572 339.572C156.447 339.772 148.957 337.806 143.932 332.75C146.655 339.352 151.355 345.125 157.267 349.131C158.769 350.148 158.181 352.459 157.431 354.111C153.178 363.485 148.89 372.92 142.979 381.347C137.067 389.774 129.369 397.225 119.895 401.25C122.136 402.188 124.524 402.775 126.945 402.984C130.388 403.281 133.846 402.816 137.271 402.352C152.29 400.317 167.652 398.176 181.101 391.187C192.968 385.02 202.643 375.436 212.115 365.995C219.894 358.24 228.002 349.911 230.572 339.231C233.089 328.774 244.875 322.021 245.994 311.323C236.924 318.811 225.374 322.456 214.139 325.935ZM95.0222 218.479C97.6561 226.229 98.3997 234.908 95.4081 242.527C93.6979 246.883 90.7804 250.965 90.7125 255.644C90.6807 257.832 91.2885 259.975 91.9393 262.065C97.5202 279.986 106.746 297.281 106.98 316.05C107.036 320.482 109.178 324.597 111.419 328.421C115.711 335.747 120.567 342.742 125.931 349.325C130.293 354.679 135.414 360.018 142.133 361.615C143.855 362.024 145.723 362.158 147.349 361.46C150.289 360.198 151.503 356.757 152.402 353.687C152.853 352.147 153.22 350.251 152.069 349.133C143.69 340.993 137.485 330.636 134.259 319.408C133.392 316.39 132.72 313.271 131.202 310.522C130.297 308.885 129.113 307.42 128.12 305.835C125.623 301.847 124.404 297.215 123.147 292.681C118.383 275.506 112.59 258.617 105.808 242.134C103.803 237.26 103.174 231.948 102.565 226.712C102.361 224.959 102.157 223.205 101.953 221.452C101.113 214.24 100.32 206.66 103.091 199.949C105.54 194.017 103.116 187.18 99.6984 181.748C97.7985 178.727 94.9922 175.605 91.4293 175.798C87.701 176 85.2274 179.712 83.8356 183.177C82.0775 187.554 81.1207 192.799 83.6322 196.792C87.9907 203.72 92.3883 210.729 95.0222 218.479ZM92.1677 168.218C98.4803 173.489 103.989 180.091 106.371 187.962C106.896 189.697 108.446 191.975 109.906 190.902C117.667 185.196 126.771 181.659 135.755 178.186C139.598 176.701 143.44 175.216 147.283 173.73C159.949 168.835 172.792 163.894 186.291 162.412C178.188 155.58 168.403 151.004 158.363 147.605C132.509 138.852 104.17 137.583 77.6373 143.988C75.1058 144.599 72.5868 145.28 70.142 146.177C64.8139 148.133 59.8129 151.124 54.2262 152.124C68.0857 153.608 81.4687 159.284 92.1677 168.218ZM116.883 247.313C120.513 248.931 125.788 244.13 128.158 247.319C123.859 249.144 119.402 250.595 114.853 251.651C113.921 251.867 113.922 253.188 114.157 254.116C115.95 261.197 118.536 268.077 121.852 274.586C125.336 272.536 130.02 273.728 133.042 276.412C136.064 279.097 137.75 282.953 139.102 286.762C140.266 290.04 141.253 293.381 142.055 296.766C143.316 302.084 143.56 308.859 138.922 311.75C137.231 312.805 137.988 315.394 138.936 317.148C141.163 321.268 143.442 325.436 146.689 328.812C155.308 337.77 170.627 339.22 180.774 332.038C172.559 330.109 165.111 325.078 160.255 318.176C156.903 313.413 154.804 307.902 152.766 302.446C143.883 278.661 135.513 254.686 127.663 230.54C125.763 224.695 123.879 218.771 123.443 212.64C123.006 206.509 124.149 200.06 127.81 195.123C132.389 188.947 140.055 186.047 147.293 183.456C163.489 177.658 179.686 171.86 195.882 166.062C187.162 162.523 177.308 165.562 168.405 168.612C151.373 174.447 134.292 180.301 118.096 188.163C115.2 189.568 112.29 191.068 109.966 193.295C102.932 200.038 103.148 211.309 105.244 220.825C105.354 221.326 105.51 221.883 105.957 222.133C106.33 222.341 106.79 222.267 107.21 222.188C110.69 221.526 114.171 220.864 117.651 220.202C121.066 219.552 123.718 223.112 125.059 226.319C126.96 230.866 128.149 235.709 128.57 240.619C128.66 241.668 128.67 242.851 127.945 243.615C127.22 244.378 125.549 244.071 125.571 243.019C125.635 239.911 125.349 236.796 124.718 233.753C123.988 230.236 122.665 226.619 119.849 224.389C117.033 222.159 112.392 221.953 110.157 224.764C115.955 230.531 118.574 239.312 116.883 247.313ZM244.778 239.506C245.097 234.83 248.533 230.525 253.021 229.175C255.717 228.364 257.595 225.775 258.264 223.04C258.933 220.305 258.582 217.428 258.065 214.66C256.412 205.823 252.591 196.703 244.901 192.045C236.563 186.996 225.815 188.444 216.625 191.696C212.62 193.114 208.457 195.07 206.353 198.762C205.059 201.032 204.704 203.7 204.373 206.293C203.697 211.594 203.019 216.946 203.508 222.267C203.996 227.589 205.755 232.952 209.386 236.873C211.915 239.604 215.79 241.596 219.328 240.442C222.101 239.537 224.645 242.115 227.271 243.385C230.855 245.119 235.086 244.401 238.995 243.646C241.51 243.16 244.603 242.061 244.778 239.506ZM138.211 296.093C137.557 293.969 136.903 291.845 136.248 289.722C134.863 285.224 133.328 280.489 129.802 277.373C128.394 276.129 126.263 275.199 124.694 276.231C123.1 277.28 123.138 279.596 123.425 281.483C124.557 288.943 126.751 296.24 129.921 303.087C130.987 305.389 132.202 307.693 134.085 309.393C134.552 309.814 135.084 310.207 135.705 310.309C137.029 310.528 138.189 309.368 138.784 308.165C140.616 304.46 139.428 300.043 138.211 296.093ZM194.575 318.43C188.45 317.659 182.72 314.167 179.226 309.078C177.918 307.172 176.902 305.017 176.624 302.721C176.46 301.366 176.544 299.938 175.965 298.7C175.387 297.463 173.783 296.548 172.64 297.296C172.617 301.019 172.659 304.978 174.669 308.111C175.361 309.191 176.258 310.121 177.151 311.041C179.95 313.929 182.783 316.827 186.106 319.092C189.429 321.356 193.315 322.97 197.336 322.985C197.133 321.071 196.484 318.67 194.575 318.43ZM169.96 296.238C168.644 297.392 168.405 299.339 168.477 301.087C168.722 307.003 171.571 312.673 175.829 316.786C180.087 320.899 185.672 323.507 191.479 324.659C192.903 324.942 194.439 325.129 195.758 324.524C191.833 323.994 188.036 322.527 184.774 320.279C183.536 319.426 182.377 318.465 181.224 317.5C178.178 314.95 175.117 312.308 172.99 308.952C170.615 305.205 169.53 300.655 169.96 296.238ZM113.834 243.361C113.659 237.591 111.549 231.897 107.922 227.407C105.984 229.203 106.394 232.317 106.957 234.898C107.761 238.592 108.686 242.509 111.386 245.155C111.671 245.435 112.002 245.71 112.4 245.748C113.452 245.848 113.866 244.417 113.834 243.361ZM181.537 309.212C184.527 312.956 188.852 315.611 193.544 316.584C193.83 316.644 194.171 316.682 194.376 316.473C194.535 316.31 194.548 316.055 194.523 315.828C194.355 314.329 192.997 313.223 191.585 312.689C190.174 312.155 188.638 312.022 187.218 311.512C183.777 310.276 181.347 306.659 181.504 303.006C181.572 301.411 180.348 299.86 178.78 299.555C177.867 302.909 179.367 306.496 181.537 309.212ZM169.418 317.642C167.723 316.881 165.768 316.932 164.017 316.309C163.349 316.071 162.709 316.975 162.963 317.637C163.218 318.299 163.99 318.619 164.699 318.648C165.408 318.677 166.11 318.492 166.82 318.489C169.359 318.477 171.505 321.246 170.859 323.702C170.611 324.645 171.661 325.653 172.593 325.367C173.701 322.504 172.22 318.899 169.418 317.642ZM188.372 307.101C186.881 305.63 185.377 304.149 183.626 303C183.17 306.985 186.93 310.897 190.929 310.6C191.297 310.215 190.906 309.6 190.527 309.227C189.809 308.518 189.091 307.81 188.372 307.101ZM167.558 321.804C167.945 322.391 169.138 322.072 169 321.382C168.142 320.405 166.866 319.808 165.566 319.774C165.741 320.744 166.519 321.577 167.474 321.819M155.155 295.991C155.115 295.5 154.542 295.132 154.079 295.301C153.852 296.011 154.033 296.837 154.537 297.387C155.185 297.394 155.616 296.485 155.201 295.988M140.168 326.462C140.167 327.193 140.575 327.912 141.204 328.286C141.583 327.556 140.965 326.527 140.143 326.519" fill="#00160A"/>
<path fill-rule="evenodd" clip-rule="evenodd" d="M596.255 238.819C595.752 237.571 593.629 238.15 593.226 239.433C592.823 240.716 593.473 242.063 594.025 243.29C599.628 255.75 595.167 271.899 583.963 279.717C581.107 277.97 579.956 274.114 576.94 272.66C575.55 271.989 573.954 271.935 572.412 271.893C567.826 271.767 563.241 271.642 558.656 271.516C556.983 271.471 554.969 271.608 554.156 273.071C552.386 276.261 547.652 277.533 544.785 275.277C541.918 273.021 542.409 267.628 545.805 266.296C546.607 265.982 547.517 265.87 548.179 265.319C548.773 264.825 549.06 264.062 549.322 263.335C551.102 258.407 552.881 253.48 554.66 248.552C554.995 247.624 555.335 246.669 555.311 245.682C555.263 243.67 553.743 242.017 552.185 240.745C550.626 239.472 548.868 238.292 547.989 236.482C547.109 234.672 547.625 231.994 549.551 231.413C559.656 228.365 571.015 226.432 580.422 231.216C582.032 232.035 583.638 233.063 585.444 233.113C587.25 233.164 589.247 231.686 588.917 229.91C588.454 227.411 584.065 226.358 584.846 223.939C585.014 223.418 585.417 223.011 585.807 222.626C589.798 218.682 593.789 214.738 597.78 210.794C598.194 208.556 594.94 207.333 592.844 208.22C590.748 209.106 589.239 211.057 587.134 211.922C582.877 213.669 578.319 210.437 574.949 207.304C562.887 196.089 552.189 183.409 543.166 169.63C542.752 168.998 542.325 168.303 542.38 167.549C542.45 166.581 543.275 165.864 544.037 165.262C550.673 160.022 557.309 154.782 563.944 149.542C565.547 148.277 568.056 147.068 569.376 148.627C581.595 163.058 593.814 177.489 606.034 191.92C606.616 192.608 607.219 193.336 607.4 194.22C607.772 196.036 606.257 197.678 604.724 198.718C603.19 199.759 601.392 200.697 600.69 202.412C599.987 204.127 601.519 206.656 603.234 205.953C612.015 199.646 621.193 193.166 631.841 191.294C633.856 190.94 636.046 190.785 637.839 191.77C641.829 193.961 641.268 199.837 639.751 204.129C636.984 211.96 632.881 219.318 627.674 225.788C626.637 227.077 625.484 228.626 625.922 230.222C626.542 232.477 629.673 232.755 631.915 232.086C634.156 231.418 636.612 230.291 638.698 231.348C639.621 231.816 640.295 232.648 640.94 233.456C651.847 247.113 662.754 260.771 673.661 274.428C666.125 280.354 658.455 286.108 650.657 291.684C649.887 292.235 649.027 292.81 648.083 292.732C646.965 292.639 646.148 291.677 645.462 290.789C635.002 277.257 624.542 263.725 614.082 250.193C612.743 248.462 614.004 245.874 615.727 244.525C617.45 243.176 619.639 242.366 620.968 240.628C622.297 238.889 621.944 235.647 619.781 235.319C618.551 235.132 617.42 235.987 616.532 236.858C614.049 239.29 611.994 242.337 608.841 243.799C604.262 245.921 598.142 243.5 596.255 238.819M585.762 275.359C592.144 267.999 596.148 257.743 593.359 248.409C591.023 240.596 584.142 234.612 576.354 232.194C568.566 229.776 560.029 230.614 552.327 233.294C551.635 233.535 550.826 233.948 550.799 234.681C550.782 235.132 551.084 235.525 551.371 235.874C562.168 249.02 572.966 262.166 583.763 275.311C584.029 275.635 584.352 275.988 584.771 275.99C585.176 275.992 585.497 275.665 585.762 275.359M635.762 202.804C631.673 202.432 628.419 198.086 629.213 194.059C613.515 201.097 599.409 211.66 588.236 224.743C592.582 230.572 597.459 236.006 602.786 240.955C603.335 241.466 603.945 241.997 604.692 242.071C605.502 242.151 606.251 241.673 606.917 241.206C619.713 232.245 629.994 219.732 636.301 205.441C636.728 204.474 636.814 202.899 635.762 202.804M578.316 190.973C579.194 190.25 580.155 189.346 580.079 188.212C580.023 187.375 579.407 186.697 578.826 186.093C576.231 183.399 573.637 180.705 571.043 178.011C570.305 177.245 569.087 177.121 568.068 177.427C567.05 177.733 566.184 178.396 565.342 179.046C564.691 179.549 564.017 180.553 564.666 181.058C568.172 183.787 571.319 186.977 574.002 190.518C574.491 191.164 575.041 191.871 575.837 192.019C576.749 192.19 577.599 191.563 578.316 190.973M587.7 206.993C588.736 207.206 589.717 206.504 590.543 205.844C591.248 205.28 592.021 204.576 591.985 203.673C591.961 203.062 591.562 202.539 591.18 202.061C588.564 198.782 585.948 195.503 583.332 192.224C583.151 191.997 582.947 191.755 582.662 191.696C582.378 191.636 582.093 191.776 581.839 191.918C580.789 192.504 579.799 193.198 578.889 193.986C578.519 194.306 578.143 194.676 578.053 195.156C577.947 195.716 578.255 196.263 578.559 196.745C580.677 200.102 583.206 203.2 586.072 205.948C586.544 206.4 587.059 206.862 587.7 206.993M551.29 265.04C551.23 265.197 551.168 265.358 551.171 265.526C551.179 266.005 551.728 266.327 552.205 266.278C552.681 266.228 553.088 265.925 553.468 265.633C556.847 263.037 560.226 260.441 563.605 257.845C564.133 257.439 564.711 256.936 564.708 256.27C564.705 255.751 564.342 255.312 563.998 254.922C562.513 253.24 561.029 251.558 559.544 249.876C559.312 249.613 559.062 249.338 558.727 249.235C557.81 248.952 557.103 250.037 556.756 250.932C554.934 255.635 553.112 260.337 551.29 265.04M568.351 260.787C568.147 260.549 567.931 260.301 567.639 260.187C567.22 260.022 566.749 260.168 566.326 260.325C561.789 262.011 557.719 264.935 554.674 268.697C555.367 269.079 556.2 269.073 556.992 269.058C562.376 268.954 567.759 268.849 573.143 268.745C573.734 268.733 574.552 268.447 574.4 267.876C572.383 265.513 570.367 263.15 568.351 260.787M553.977 162.072C553.612 162.436 553.221 162.856 553.214 163.373C553.209 163.721 553.383 164.043 553.553 164.348C555.439 167.741 557.325 171.135 559.211 174.528C559.618 175.261 560.044 176.015 560.709 176.525C561.375 177.034 562.35 177.238 563.053 176.782C564.032 176.148 565.01 175.513 565.988 174.879C566.71 174.41 567.475 173.354 566.776 172.851C562.733 169.942 559.44 166 557.294 161.505C557.009 160.907 556.202 160.721 555.571 160.921C554.94 161.121 554.446 161.604 553.977 162.072M571.787 196.331C572.598 195.527 572.637 194.182 572.188 193.133C571.738 192.084 570.897 191.261 570.076 190.468C567.833 188.302 565.59 186.136 563.347 183.969C562.722 183.366 562.075 182.747 561.266 182.429C560.457 182.111 559.437 182.166 558.835 182.794C557.718 183.961 558.761 185.852 559.802 187.088C561.819 189.483 563.837 191.879 565.855 194.274C566.617 195.179 567.411 196.11 568.473 196.633C569.535 197.156 570.946 197.164 571.787 196.331M575.87 167.747C577.432 167.721 578.435 165.863 578.172 164.322C577.91 162.781 576.806 161.539 575.748 160.388C573.575 158.022 571.401 155.656 569.228 153.291C568.517 152.518 567.576 151.671 566.563 151.945C565.671 152.186 565.216 153.251 565.34 154.167C565.464 155.083 566.013 155.877 566.546 156.632C568.632 159.585 570.718 162.538 572.805 165.492C573.568 166.572 574.547 167.769 575.87 167.747M617.313 248.758C617.253 249.118 617.464 249.462 617.666 249.767C619.726 252.873 621.785 255.979 623.845 259.086C624.46 260.012 625.654 260.515 626.747 260.306C627.839 260.097 628.764 259.189 628.993 258.101C629.324 256.531 628.314 255.024 627.357 253.737C625.637 251.425 623.917 249.112 622.198 246.799C621.663 246.079 620.57 245.985 619.747 246.341C618.923 246.697 618.306 247.396 617.717 248.073C617.54 248.275 617.357 248.493 617.313 248.758M634.397 255.454C634.994 255.045 635.624 254.597 635.887 253.922C636.331 252.782 635.56 251.56 634.824 250.582C633.092 248.279 631.344 245.987 629.58 243.708C628.858 242.775 628.034 241.779 626.877 241.549C625.857 241.346 624.735 241.863 624.227 242.77C623.719 243.677 623.863 244.904 624.569 245.668C627.278 248.6 629.528 251.955 631.214 255.574C631.728 256.677 633.393 256.141 634.397 255.454M546.122 168.811C546.321 169.741 546.956 170.509 547.571 171.235C550.051 174.165 552.531 177.096 555.011 180.027C555.204 180.255 555.4 180.486 555.648 180.652C556.245 181.053 557.112 180.987 557.641 180.502C558.171 180.016 558.312 179.158 557.965 178.529C555.808 174.621 553.652 170.714 551.496 166.806C550.831 165.601 549.233 165.01 547.944 165.491C546.655 165.971 545.836 167.465 546.122 168.811M646.304 273.635C645.942 274.038 645.556 274.497 645.569 275.039C645.58 275.501 645.881 275.899 646.168 276.261C648.184 278.801 650.209 281.334 652.243 283.86C652.581 284.279 652.936 284.713 653.426 284.936C654.614 285.48 655.933 284.591 656.936 283.754C657.378 283.384 657.863 282.918 657.808 282.345C657.776 282.007 657.557 281.719 657.347 281.453C655.001 278.473 652.656 275.494 650.31 272.514C649.818 271.89 648.858 271.814 648.126 272.125C647.394 272.436 646.837 273.044 646.304 273.635M560.747 160.826C562.263 164.946 565.047 168.789 569.042 170.608C570.025 171.056 571.449 171.236 571.95 170.28C572.456 169.314 571.498 168.267 570.701 167.522C567.536 164.562 565.649 160.518 563.838 156.581C563.271 155.349 561.213 155.692 560.57 156.887C559.926 158.081 560.278 159.554 560.747 160.826M640.275 260.252C639.627 259.368 638.946 258.455 637.977 257.944C637.008 257.433 635.663 257.457 634.96 258.298C633.843 259.635 635.063 261.593 636.195 262.918C638.384 265.481 640.375 268.212 642.147 271.079C642.834 272.191 644.544 271.444 645.551 270.611C646.077 270.176 646.659 269.589 646.504 268.924C646.448 268.683 646.298 268.475 646.152 268.275C644.193 265.601 642.234 262.926 640.275 260.252M634.936 235.534C634.856 236.517 635.419 237.425 635.959 238.251C638.213 241.696 640.482 245.161 643.291 248.171C644.971 248.062 645.935 246.008 645.592 244.361C645.249 242.713 644.05 241.403 642.974 240.108C641.536 238.378 640.241 236.528 639.107 234.585C638.631 233.768 637.596 233.319 636.674 233.529C635.751 233.739 635.013 234.59 634.936 235.534M637.593 275.423C638.328 275.929 639.416 275.838 640.056 275.216C640.75 274.541 640.845 273.425 640.543 272.505C640.241 271.586 639.611 270.816 638.995 270.07C637.213 267.911 635.431 265.752 633.649 263.593C632.984 262.788 632.275 261.95 631.302 261.572C630.328 261.194 629.016 261.47 628.6 262.428C628.161 263.438 628.881 264.549 629.562 265.415C631.969 268.471 634.376 271.527 636.783 274.583C637.024 274.89 637.271 275.202 637.593 275.423M658.559 260.365C658.43 259.863 658.078 259.453 657.736 259.064C655.217 256.187 652.699 253.311 650.18 250.435C649.977 250.203 649.757 249.96 649.461 249.873C649.169 249.787 648.857 249.869 648.563 249.951C647.852 250.149 647.105 250.368 646.592 250.899C646.079 251.43 645.922 252.38 646.463 252.882C648.511 254.78 650.342 256.912 651.908 259.223C652.819 260.567 653.755 262.067 655.285 262.611C656.816 263.156 658.964 261.938 658.559 260.365M586.563 188.397C585.893 189.296 586.335 190.576 586.881 191.556C588.516 194.491 590.88 196.941 593.217 199.355C593.817 199.974 594.446 200.613 595.255 200.912C596.064 201.211 597.109 201.061 597.582 200.339C598.232 199.347 597.489 198.058 596.769 197.115C594.953 194.738 593.138 192.36 591.322 189.983C590.729 189.207 590.105 188.405 589.228 187.974C588.352 187.544 587.147 187.614 586.563 188.397M664.232 274.892C665.031 275.876 666.24 276.969 667.39 276.436C668.391 275.972 668.794 274.424 669.898 274.418C667.961 271.924 666.025 269.429 664.088 266.934C663.308 265.929 662.469 264.879 661.282 264.419C660.096 263.96 658.474 264.372 658.077 265.581C657.711 266.697 658.498 267.833 659.239 268.744C660.903 270.794 662.568 272.843 664.232 274.892M591.68 180.814C589.733 177.768 587.538 174.88 585.123 172.189C584.488 171.481 583.837 170.787 583.187 170.093C582.655 169.525 582.084 168.933 581.335 168.724C580.435 168.473 579.392 168.894 578.919 169.699C578.445 170.504 578.584 171.62 579.241 172.285C581.804 174.879 584.368 177.474 586.931 180.068C587.604 180.75 588.317 181.455 589.233 181.735C590.148 182.015 591.322 181.703 591.68 180.814M603.613 195.289C603.85 195.102 604.106 194.882 604.137 194.581C604.17 194.264 603.941 193.987 603.727 193.751C600.942 190.686 598.157 187.62 595.373 184.555C594.821 183.947 594.107 183.282 593.302 183.445C592.522 183.604 592.097 184.526 592.203 185.315C592.309 186.105 592.797 186.783 593.269 187.424C594.423 188.99 595.576 190.556 596.73 192.122C598.084 193.961 599.502 195.856 601.501 196.96C602.205 196.403 602.909 195.846 603.613 195.289M644.831 255.386C644.154 254.641 643.256 253.825 642.282 254.079C641.406 254.309 640.965 255.365 641.105 256.26C641.245 257.155 641.808 257.919 642.353 258.643C643.92 260.724 645.487 262.805 647.054 264.886C647.87 265.97 649.02 267.183 650.337 266.858C651.503 266.57 652.055 265.123 651.792 263.951C651.528 262.78 650.691 261.835 649.883 260.947C648.199 259.093 646.515 257.24 644.831 255.386M640.591 278.334C639.834 279.526 640.693 281.059 641.555 282.177C642.902 283.926 644.32 285.62 645.803 287.256C646.39 287.903 647.036 288.571 647.883 288.783C648.804 289.013 649.849 288.599 650.362 287.8C650.875 287.002 650.817 285.879 650.225 285.138C648.839 283.403 647.454 281.669 646.069 279.935C645.369 279.059 644.63 278.152 643.607 277.693C642.584 277.235 641.193 277.388 640.591 278.334M573.024 173.68C572.385 174.615 573.222 175.83 574.011 176.643C576.766 179.481 579.521 182.32 582.277 185.159C582.859 185.759 583.566 186.407 584.398 186.322C585.447 186.213 586.021 184.917 585.771 183.893C585.521 182.869 584.724 182.082 583.961 181.354C581.542 179.045 579.122 176.735 576.703 174.426C576.184 173.931 575.643 173.422 574.964 173.19C574.286 172.959 573.429 173.088 573.024 173.68M631.362 237.43C630.45 237.442 629.83 238.479 629.913 239.387C629.996 240.296 630.561 241.078 631.106 241.81C633.066 244.441 635.026 247.073 636.987 249.705C637.369 250.218 637.77 250.748 638.338 251.043C638.905 251.339 639.689 251.324 640.101 250.834C640.694 250.13 640.182 249.072 639.665 248.311C637.523 245.158 635.381 242.004 633.239 238.851C632.779 238.173 632.182 237.419 631.362 237.43M662.837 277.852C660.376 274.883 657.914 271.915 655.453 268.946C655.157 268.588 654.831 268.211 654.383 268.092C653.506 267.86 652.677 268.804 652.67 269.711C652.664 270.617 653.203 271.427 653.734 272.162C655.374 274.428 657.149 276.598 659.046 278.654C659.72 279.385 660.491 280.145 661.478 280.267C662.464 280.389 663.592 279.471 663.272 278.53C663.185 278.274 663.009 278.06 662.837 277.852M581.128 209.021C581.749 209.695 582.478 210.418 583.394 210.431C584.309 210.445 585.131 209.201 584.444 208.595C581.654 206.132 579.178 203.315 577.093 200.232C576.533 199.405 575.944 198.51 575.016 198.14C574.088 197.771 572.76 198.288 572.737 199.287C572.724 199.878 573.151 200.377 573.552 200.812C576.077 203.549 578.603 206.285 581.128 209.021M632.145 195.945C632.428 198.078 634.479 199.826 636.63 199.768C636.982 199.759 637.359 199.695 637.614 199.452C637.864 199.213 637.946 198.852 638.016 198.513C638.342 196.93 638.364 194.786 636.836 194.259C636.207 194.042 635.503 194.21 634.86 194.041C634.409 193.923 633.994 193.641 633.529 193.643C632.513 193.646 632.012 194.938 632.145 195.945M550.915 269.355C550.289 268.682 549.343 268.381 548.425 268.351C547.924 268.334 547.402 268.397 546.975 268.658C546.588 268.895 546.309 269.28 546.129 269.696C545.314 271.58 546.986 274.08 549.033 273.927C551.08 273.773 552.314 270.857 550.915 269.355M590.74 237.212C591.618 237.165 592.399 236.396 592.459 235.52C592.488 235.101 592.366 234.674 592.121 234.333C591.387 233.313 589.546 233.476 589.003 234.608C588.46 235.741 589.486 237.278 590.74 237.212M599.55 208.334C599.893 208.545 600.261 208.764 600.663 208.751C601.065 208.738 601.48 208.381 601.394 207.988C599.834 206.553 598.274 205.117 596.714 203.681C596.309 204.592 596.616 205.693 597.226 206.481C597.836 207.269 598.703 207.81 599.55 208.334M624.404 235.314C625.012 235.84 625.985 234.939 625.82 234.153C625.655 233.366 624.898 232.87 624.205 232.463C623.512 232.056 622.753 231.565 622.581 230.78C621.576 232.263 623.049 234.142 624.404 235.314L624.404 235.314Z" fill="#00160A"/>
</svg>
