<svg width="566" height="340" viewBox="0 0 566 340" fill="none" xmlns="http://www.w3.org/2000/svg">
<path fill-rule="evenodd" clip-rule="evenodd" d="M304.825 258.841C312.453 257.202 312.078 250.697 336.643 250.697C341.026 250.697 349.747 253.918 355.063 255.1C365.226 257.361 384.053 265.909 384.053 265.909C384.053 265.909 392.444 270.982 405.861 271.238C419.278 271.495 426.576 267.843 440.747 267.843C451.081 267.843 460.051 271.238 468.904 271.238C477.757 271.238 489.99 270.11 490.408 263.297C496.033 171.508 465.813 133.464 445.072 101.145C412.185 49.8981 421.257 -27.8169 379.693 10.0466C369.15 19.6513 367.888 27.5732 349.235 37.841C334.386 46.0144 322.82 47.6374 314.947 52.6353C293.153 66.4708 281.705 85.747 266.542 94.9698C240.063 111.075 231.378 104.548 210.445 115.568C207.682 117.023 204.618 119.075 201.208 120.452C194.427 123.192 186.7 125.409 180.208 129.986C174.961 133.684 166.892 144.34 166.892 144.34L117.16 161.663C117.16 161.663 106.113 166.794 110.734 185.106C115.355 203.418 129.894 243.936 129.894 243.936C129.894 243.936 143.741 243.738 155.351 250.697C166.96 257.656 170.765 272.87 170.765 272.87C170.765 272.87 198.614 264.462 210.445 260.341C213.694 259.21 221.043 256.353 232.277 255.818C244.592 255.231 253.877 261.332 271.779 262.221C281.839 262.721 297.198 260.481 304.825 258.841Z" fill="#64FCD9"/>
<path fill-rule="evenodd" clip-rule="evenodd" d="M499.892 202.239C499.47 201.191 497.687 201.677 497.348 202.755C497.024 203.787 497.512 204.869 497.961 205.864L498.019 205.993C502.725 216.457 498.979 230.019 489.57 236.584C488.436 235.891 487.622 234.802 486.811 233.716C485.907 232.506 485.007 231.302 483.672 230.658C482.504 230.095 481.164 230.049 479.869 230.014L468.317 229.698C466.912 229.66 465.22 229.775 464.538 231.004C463.051 233.682 459.076 234.751 456.668 232.856C454.26 230.962 454.672 226.433 457.524 225.314C457.736 225.231 457.957 225.165 458.177 225.099C458.658 224.955 459.137 224.811 459.518 224.494C460.017 224.078 460.258 223.438 460.478 222.827L464.961 210.413C465.242 209.633 465.528 208.831 465.508 208.002C465.467 206.313 464.191 204.924 462.882 203.856C462.675 203.686 462.463 203.519 462.25 203.351C461.123 202.459 459.979 201.555 459.358 200.276C458.62 198.757 459.053 196.507 460.671 196.019C469.156 193.46 478.696 191.836 486.596 195.854C486.817 195.966 487.037 196.083 487.259 196.2C488.393 196.801 489.545 197.412 490.813 197.447C492.33 197.49 494.007 196.249 493.73 194.757C493.554 193.804 492.696 193.101 491.875 192.428C490.888 191.618 489.953 190.851 490.311 189.743C490.452 189.305 490.791 188.963 491.118 188.64L501.173 178.703C501.52 176.824 498.788 175.797 497.028 176.542C496.156 176.91 495.405 177.498 494.655 178.086L494.655 178.086C493.89 178.685 493.125 179.284 492.232 179.65C488.658 181.118 484.83 178.404 481.999 175.772C471.87 166.355 462.886 155.706 455.309 144.134C454.961 143.603 454.602 143.02 454.648 142.386C454.707 141.573 455.4 140.972 456.04 140.466L472.758 127.265C474.104 126.202 476.211 125.187 477.319 126.496L508.104 162.853C508.594 163.431 509.1 164.043 509.252 164.785C509.564 166.31 508.292 167.688 507.004 168.562C506.804 168.698 506.598 168.832 506.391 168.967C505.268 169.697 504.115 170.448 503.616 171.664C503.027 173.105 504.313 175.228 505.753 174.638C513.127 169.341 520.835 163.9 529.777 162.328C531.47 162.03 533.309 161.9 534.815 162.727C538.165 164.567 537.694 169.502 536.42 173.106C534.096 179.683 530.651 185.862 526.278 191.296C525.407 192.378 524.439 193.679 524.807 195.019C525.327 196.913 527.957 197.146 529.839 196.585C530.137 196.496 530.439 196.397 530.744 196.298L530.745 196.298C532.367 195.77 534.061 195.218 535.536 195.965C536.31 196.358 536.877 197.056 537.419 197.735L564.897 232.143C558.569 237.119 552.127 241.952 545.579 246.634C544.932 247.097 544.21 247.58 543.417 247.514C542.479 247.437 541.792 246.628 541.216 245.883L514.863 211.791C513.739 210.337 514.798 208.163 516.244 207.031C516.768 206.621 517.342 206.271 517.915 205.921L517.915 205.921C518.927 205.304 519.934 204.69 520.646 203.758C521.762 202.298 521.466 199.575 519.649 199.299C518.616 199.142 517.667 199.861 516.92 200.592C516.337 201.164 515.782 201.776 515.226 202.387C513.798 203.962 512.369 205.537 510.462 206.421C506.617 208.203 501.477 206.17 499.892 202.239ZM462.971 223.419C462.92 223.551 462.868 223.686 462.871 223.827C462.878 224.23 463.338 224.5 463.739 224.459C464.139 224.417 464.481 224.163 464.8 223.918L473.313 217.377C473.756 217.036 474.242 216.613 474.239 216.054C474.237 215.618 473.932 215.25 473.643 214.923L469.902 210.684C469.707 210.463 469.498 210.233 469.216 210.146C468.446 209.909 467.853 210.82 467.562 211.571L462.971 223.419ZM476.701 219.343C476.946 219.44 477.127 219.647 477.298 219.848L482.379 225.801C482.506 226.281 481.82 226.521 481.323 226.531L467.759 226.794C467.095 226.807 466.395 226.811 465.813 226.49C468.37 223.331 471.788 220.875 475.598 219.46C475.953 219.328 476.349 219.205 476.701 219.343Z" fill="white"/>
<path fill-rule="evenodd" clip-rule="evenodd" d="M205.563 201.136C205.831 197.21 208.716 193.594 212.485 192.46C214.75 191.779 216.326 189.605 216.888 187.308C217.45 185.011 217.156 182.595 216.721 180.271C215.333 172.849 212.124 165.19 205.666 161.279C198.664 157.038 189.638 158.254 181.921 160.986C178.557 162.176 175.061 163.819 173.294 166.919C172.208 168.826 171.909 171.067 171.631 173.244C171.063 177.696 170.494 182.19 170.904 186.659C171.315 191.128 172.792 195.632 175.841 198.925C177.965 201.218 181.219 202.891 184.19 201.922C186.519 201.162 188.655 203.327 190.86 204.394C193.87 205.85 197.424 205.247 200.707 204.613C202.819 204.205 205.416 203.282 205.563 201.136Z" fill="white"/>
<path fill-rule="evenodd" clip-rule="evenodd" d="M284.269 260.523C291.896 259.74 299.523 258.957 307.151 258.174C305.789 260.256 303.048 260.843 300.588 261.218C286.119 263.421 271.095 264.396 257.045 260.298C242.322 256.002 226.333 256.154 211.694 260.728C211.81 258.899 213.859 257.918 215.616 257.392C227.45 253.852 240.257 253.627 252.209 256.749C257.497 258.13 262.641 260.154 268.055 260.895C273.425 261.63 278.878 261.077 284.269 260.523Z" fill="#00160A"/>
<path fill-rule="evenodd" clip-rule="evenodd" d="M224.423 108.182C231.9 106.289 239.828 106.229 247.055 103.535C247.439 103.83 247.823 104.125 248.207 104.42C244.824 107.701 239.58 107.736 234.884 108.131C225.957 108.882 217.208 111.687 209.508 116.266C205.814 118.464 202.255 121.107 198.072 122.093C188.101 124.445 178.925 130.046 172.276 137.84C171.828 137.058 171.075 136.456 170.214 136.19C175.5 131.522 181.323 127.463 187.532 124.118C191.287 122.095 195.177 120.335 199.063 118.577C202.331 117.099 205.599 115.621 208.866 114.143C213.933 111.851 219.032 109.547 224.423 108.182V108.182Z" fill="#00160A"/>
<path fill-rule="evenodd" clip-rule="evenodd" d="M370.367 20.7125C369.063 22.4937 367.842 24.3452 366.356 25.9784C364.391 28.1391 362.007 29.8698 359.624 31.559C352.421 36.6655 344.985 41.5848 336.765 44.8079C332.936 46.3093 328.965 47.4306 325.145 48.9563C313.176 53.737 303.074 62.3463 294.558 72.0208C293.896 72.7733 293.189 73.5683 292.228 73.8559C291.268 74.1435 290.006 73.6574 289.862 72.6652C299.876 63.1564 310.169 53.4596 322.834 47.9545C328.476 45.502 334.475 43.9381 340.092 41.4273C345.678 38.9297 350.81 35.5298 355.835 32.0376C359.178 29.7145 362.512 27.3219 365.296 24.3513C369.678 19.6749 372.681 13.5935 378.018 10.0453C378.666 9.61476 379.802 9.39262 379.995 10.1459C376.422 13.3117 373.188 16.8608 370.367 20.7125Z" fill="#00160A"/>
<path fill-rule="evenodd" clip-rule="evenodd" d="M118.774 58.8026C120.151 61.4965 122.634 63.6044 125.515 64.5274C125.503 64.8634 125.49 65.1995 125.478 65.5355C122.998 67.0355 121.663 70.2122 122.328 73.0333C122.532 73.9017 121.291 74.5143 120.484 74.1322C119.678 73.75 119.272 72.8591 118.893 72.0519C118.416 71.0387 117.866 70.0317 117.039 69.2766C116.213 68.5216 115.058 68.049 113.963 68.2798C113.16 68.4489 112.425 67.5943 112.439 66.774C112.452 65.9537 112.984 65.2343 113.571 64.6603C114.157 64.0863 114.83 63.5814 115.266 62.8863C115.775 62.0732 115.908 61.0831 115.961 60.1249C115.995 59.5276 116.008 58.9064 116.278 58.3722C116.547 57.8381 117.165 57.4232 117.736 57.6014C118.256 57.7636 118.526 58.3177 118.774 58.8026L118.774 58.8026Z" fill="#00160A"/>
<path fill-rule="evenodd" clip-rule="evenodd" d="M419.576 271.937C408.876 273.385 397.836 272.265 387.644 268.699C385.891 268.086 383.821 266.864 384.075 265.024C394.048 269.383 405.164 271.095 415.986 269.94C423.196 269.17 430.262 267.158 437.507 266.883C445.711 266.571 453.81 268.494 461.943 269.609C470.076 270.724 478.689 270.965 486.141 267.519C486.837 267.197 487.587 266.835 488.337 266.993C489.088 267.15 489.672 268.135 489.16 268.706C489.004 268.879 488.783 268.977 488.568 269.069C482.586 271.618 476.059 272.881 469.557 272.747C459.119 272.533 448.931 268.785 438.497 269.132C432.119 269.344 425.9 271.081 419.576 271.937Z" fill="#00160A"/>
<path fill-rule="evenodd" clip-rule="evenodd" d="M454.276 86.5636C454.391 87.5515 454.634 88.9344 453.678 89.208C452.786 89.4631 452.219 88.3169 451.845 87.4678C450.84 85.1838 448.449 83.5789 445.955 83.5127C444.967 83.4866 444.801 81.9261 445.494 81.2228C446.188 80.5195 447.245 80.3517 448.123 79.8994C449.492 79.1947 450.396 77.7927 450.841 76.3188C451.286 74.8449 451.329 73.2842 451.369 71.7451C451.379 71.3556 451.823 71.0884 452.209 71.1391C452.596 71.1898 452.914 71.465 453.168 71.7605C454.908 73.7863 454.683 77.0895 456.675 78.868C457.601 79.6943 458.912 80.0839 459.629 81.0969C459.069 81.7658 458.079 81.8007 457.244 82.051C455.371 82.6122 454.049 84.6214 454.276 86.5636H454.276Z" fill="#00160A"/>
<path fill-rule="evenodd" clip-rule="evenodd" d="M169.148 79.8054C170.536 80.831 171.261 82.5089 172.387 83.8167C173.581 85.2023 175.253 86.1674 177.05 86.5071C174.506 87.908 172.838 90.7697 172.872 93.6733C172.881 94.359 172.778 95.2987 172.095 95.3585C171.919 95.3739 171.745 95.3155 171.582 95.2469C168.906 94.1202 167.81 90.2472 164.926 89.9107C163.909 89.7921 163.729 88.2747 164.318 87.4375C164.908 86.6003 165.901 86.1311 166.548 85.3376C167.853 83.7365 167.545 81.1083 169.148 79.8054V79.8054Z" fill="#00160A"/>
<path fill-rule="evenodd" clip-rule="evenodd" d="M234.841 44.269C234.205 44.6485 233.361 44.2476 232.897 43.6701C232.434 43.0926 232.195 42.3634 231.751 41.7705C230.609 40.2431 228.319 39.864 227.311 38.2446C226.991 37.7302 226.86 36.9904 227.29 36.5634C227.462 36.3933 227.694 36.3029 227.909 36.1944C229.447 35.4205 230.22 33.6655 230.601 31.9864C230.982 30.3073 231.102 28.5379 231.871 26.9973C232.062 26.6138 232.319 26.2262 232.717 26.0694C233.116 25.9126 233.671 26.1134 233.732 26.5376C233.955 28.0818 234.178 29.626 234.401 31.1702C234.53 32.0637 234.671 32.989 235.163 33.7458C235.655 34.5027 236.605 35.0421 237.466 34.7704C238.065 34.5815 238.544 35.4266 238.328 36.0164C238.113 36.6062 237.54 36.9707 237.07 37.3871C235.899 38.4248 235.25 40.0246 235.367 41.585C235.439 42.5496 235.672 43.7733 234.841 44.269V44.269Z" fill="#00160A"/>
<path fill-rule="evenodd" clip-rule="evenodd" d="M131.773 158.771C132.472 158.366 133.162 159.59 132.697 160.251C132.231 160.911 131.324 161.033 130.526 161.163C125.465 161.985 121.101 165.376 118.065 169.508C116.474 171.674 115.145 174.274 115.499 176.937C115.691 178.383 116.251 180.171 115.097 181.063C113.753 179.631 112.975 177.68 112.966 175.715C112.951 172.249 115.177 169.206 117.47 166.607C120.105 163.621 123.29 160.676 127.249 160.25C128.838 160.079 130.39 159.572 131.773 158.771Z" fill="#00160A"/>
<path fill-rule="evenodd" clip-rule="evenodd" d="M384.374 293.644C386.171 292.165 387.384 289.995 387.703 287.689C387.823 286.82 389.224 286.782 389.754 287.481C390.284 288.18 390.212 289.144 390.185 290.021C390.15 291.164 390.246 292.358 390.828 293.342C391.41 294.325 392.591 295.03 393.699 294.749C394.134 294.639 394.542 295.124 394.51 295.572C394.478 296.02 394.152 296.391 393.804 296.676C392.449 297.787 390.42 298.281 389.78 299.912C389.554 300.487 389.548 301.122 389.432 301.729C389.316 302.336 389.041 302.973 388.487 303.247C387.934 303.521 387.096 303.184 387.094 302.566C387.087 300.412 386.012 298.288 384.282 297.006C383.781 296.635 383.18 296.261 383.068 295.647C382.919 294.821 383.725 294.177 384.374 293.644L384.374 293.644Z" fill="#00160A"/>
<path fill-rule="evenodd" clip-rule="evenodd" d="M134.629 177.675C136.828 179.325 139.518 180.312 142.262 180.476C142.888 180.514 142.844 181.456 142.597 182.033C141.892 183.679 141.186 185.325 140.481 186.971C140.875 187.545 141.289 188.211 141.135 188.89C140.981 189.57 139.896 189.936 139.597 189.307C138.439 186.872 135.518 185.418 132.877 185.962C133.01 185.03 133.523 184.205 133.906 183.346C134.694 181.581 134.949 179.581 134.629 177.675Z" fill="#00160A"/>
<path fill-rule="evenodd" clip-rule="evenodd" d="M270.976 244.263C270.049 241.989 267.689 240.376 265.233 240.336C264.562 237.946 267.451 235.972 267.708 233.502C267.762 232.99 267.699 232.462 267.831 231.964C267.962 231.466 268.38 230.982 268.894 231.017C269.61 232.761 270.899 234.266 272.513 235.241C272.933 235.494 273.389 235.726 273.671 236.127C273.952 236.528 273.974 237.166 273.571 237.445C271.497 238.879 271.142 241.747 270.976 244.263Z" fill="#00160A"/>
<path fill-rule="evenodd" clip-rule="evenodd" d="M181.02 227.257C181.359 227.092 181.753 227.042 182.123 227.115C182.412 229.623 184.303 231.872 186.723 232.588C185.639 234.771 185.034 237.191 184.962 239.627C184.72 239.823 184.37 239.61 184.137 239.404C182.279 237.761 180.422 236.118 178.564 234.475C180.36 232.566 181.279 229.864 181.02 227.257Z" fill="#00160A"/>
<path fill-rule="evenodd" clip-rule="evenodd" d="M429.034 205.383C428.728 205.207 428.394 205.037 428.041 205.064C427.725 205.087 427.434 205.269 427.116 205.276C426.799 205.282 426.446 204.945 426.623 204.682C429.668 203.064 430.904 199.416 431.874 196.107C432.033 195.812 432.519 195.894 432.71 196.17C432.9 196.446 432.888 196.807 432.89 197.142C432.898 198.595 433.324 200.073 434.248 201.194C435.171 202.315 436.624 203.034 438.071 202.906C435.876 204.419 433.481 206.247 433.152 208.892C432.01 207.484 430.606 206.288 429.034 205.383H429.034Z" fill="#00160A"/>
<path fill-rule="evenodd" clip-rule="evenodd" d="M189.243 259.773C193.366 258.111 197.65 256.339 200.576 252.991C200.93 252.586 201.297 252.137 201.818 252.002C202.338 251.867 203.015 252.27 202.909 252.797C202.395 255.366 199.812 256.893 197.485 258.096C196.069 258.827 194.654 259.559 193.238 260.29C192.538 260.652 191.804 261.023 191.016 261.028C190.228 261.034 189.376 260.55 189.243 259.773L189.243 259.773Z" fill="#00160A"/>
<path fill-rule="evenodd" clip-rule="evenodd" d="M351.046 255.242C351.591 254.423 352.77 254.409 353.749 254.511C358.344 254.988 362.879 256.042 367.213 257.642C370.688 258.925 374.046 260.563 377.082 262.686C373.955 262.91 371.017 261.365 368.12 260.166C364.151 258.523 359.966 257.474 355.798 256.431C354.214 256.035 352.63 255.638 351.046 255.242Z" fill="#00160A"/>
<path fill-rule="evenodd" clip-rule="evenodd" d="M124.704 216.344C123.666 213.815 122.706 211.255 121.825 208.667C121.609 208.031 121.397 207.393 121.185 206.755C119.421 201.437 117.656 196.117 116.092 190.736C115.91 190.108 116.099 189.083 116.721 189.285C116.976 189.367 117.103 189.647 117.2 189.897C119.244 195.172 121.289 200.447 123.333 205.723C124.709 209.273 126.108 212.965 125.859 216.764C125.84 217.05 125.44 217.17 125.19 217.031C124.939 216.893 124.813 216.609 124.704 216.344Z" fill="#00160A"/>
<path fill-rule="evenodd" clip-rule="evenodd" d="M203.039 240.009C203.253 240.918 203.036 242.328 202.117 242.163C199.344 232.155 196.711 222.108 194.218 212.027C194.134 211.688 194.052 211.324 194.173 210.997C194.295 210.67 194.712 210.431 195.005 210.622C195.151 210.717 195.227 210.889 195.293 211.051C197.465 216.349 198.786 221.949 200.099 227.522C201.079 231.684 202.059 235.846 203.039 240.009Z" fill="#00160A"/>
<path fill-rule="evenodd" clip-rule="evenodd" d="M114.393 137.855C113.991 138.162 113.589 138.469 113.186 138.776C104.339 132.272 93.6372 128.318 82.6854 127.507C82.5328 127.011 82.4884 126.481 82.5563 125.966C92.4563 126.042 102.316 129.04 110.582 134.489C112.006 135.427 113.409 136.462 114.393 137.855Z" fill="#00160A"/>
<path fill-rule="evenodd" clip-rule="evenodd" d="M143.518 326.741C156.066 320.056 166.977 310.324 175.046 298.617C176.66 296.275 178.161 293.857 179.662 291.441C180.276 290.452 180.89 289.462 181.505 288.473C182.53 291.605 180.443 294.824 178.465 297.461C169.595 309.286 159.964 321.697 146.104 326.837C145.246 327.155 144.157 327.397 143.518 326.741V326.741Z" fill="#00160A"/>
<path fill-rule="evenodd" clip-rule="evenodd" d="M203.126 171.841C204.019 171.487 205.024 171.888 205.861 172.36C207.672 173.383 209.329 174.849 210.076 176.789C210.823 178.73 210.453 181.187 208.825 182.482C207.979 183.155 206.694 182.995 205.791 182.4C204.888 181.804 204.278 180.866 203.695 179.955C202.495 178.082 201.243 175.948 201.706 173.773C201.879 172.959 202.352 172.148 203.126 171.841H203.126Z" fill="#FFB61D"/>
<path fill-rule="evenodd" clip-rule="evenodd" d="M38.5737 189.652C36.9639 189.288 35.5651 188.095 34.9512 186.563C34.3373 185.031 34.5253 183.202 35.4381 181.827C36.5646 180.13 38.588 179.259 40.5681 178.78C42.5827 178.294 44.6723 178.119 46.7397 178.265C47.5278 178.32 48.3469 178.434 48.9984 178.881C49.5017 179.226 49.8635 179.744 50.1329 180.292C51.0421 182.139 50.9486 184.444 49.8926 186.211C48.8367 187.979 46.8514 189.154 44.7939 189.228C42.7059 189.304 40.6116 190.113 38.5737 189.652M41.2235 185.116C42.7674 185.035 44.3062 184.857 45.8279 184.584C46.4462 184.474 47.1089 184.32 47.5197 183.845C47.9305 183.37 47.8799 182.473 47.2885 182.261C45.0258 181.451 42.391 181.764 40.3809 183.082C39.9162 183.386 39.4341 183.877 39.5778 184.414C39.7453 185.04 40.5764 185.15 41.2235 185.116L41.2235 185.116Z" fill="#00160A"/>
<path fill-rule="evenodd" clip-rule="evenodd" d="M148.78 141.705C149.041 141.722 149.149 142.091 149.018 142.318C148.906 142.513 148.698 142.622 148.487 142.709L133.451 148.586V148.586C132.85 148.82 131.813 148.695 131.998 148.078C132.073 147.829 132.342 147.703 132.582 147.607C137.919 145.474 143.322 143.506 148.78 141.705Z" fill="#00160A"/>
<path fill-rule="evenodd" clip-rule="evenodd" d="M197.422 161.934C195.608 162.024 193.826 162.585 192.261 163.506C191.009 164.242 189.427 163.87 188.029 163.478C186.678 163.1 185.327 162.721 183.976 162.342C183.891 161.933 184.38 161.661 184.78 161.537C188.734 160.307 192.877 159.446 197.001 159.817C201.125 160.189 205.253 161.915 207.868 165.126C204.581 163.46 201.102 161.751 197.422 161.934Z" fill="#00160A"/>
<path fill-rule="evenodd" clip-rule="evenodd" d="M181.362 172.198C181.525 175.388 180.195 178.623 177.836 180.776C177.219 181.338 176.437 181.857 175.613 181.726C174.779 181.593 174.169 180.798 174.017 179.968C173.865 179.138 174.085 178.285 174.375 177.492C175.275 175.031 176.884 172.835 178.959 171.235C179.485 170.829 180.208 170.452 180.775 170.797C181.226 171.072 181.336 171.671 181.362 172.198V172.198Z" fill="#FFB61D"/>
<path fill-rule="evenodd" clip-rule="evenodd" d="M283.964 306.514C280.576 305.515 276.871 303.075 277.077 299.549C277.219 297.105 279.227 295.22 281.191 293.759C283.889 291.751 286.784 290.009 289.822 288.565C291.885 287.585 294.297 286.401 294.696 284.152C297.028 271.003 307.028 259.532 319.703 255.327C332.377 251.122 347.194 254.307 357.094 263.269C359.057 265.046 361.476 267.196 363.98 266.335C369.013 264.605 374.639 263.431 379.569 265.435C381.39 266.175 383.228 267.686 383.137 269.649C383.093 270.579 382.615 271.428 382.115 272.213C379.006 277.092 374.513 281.078 369.298 283.583C366.718 284.823 365.025 287.405 363.998 290.077C362.971 292.75 362.483 295.599 361.56 298.309C357.89 309.074 347.201 316.674 335.907 318.023C324.614 319.371 313.072 315.007 304.424 307.62C303.437 306.777 302.21 305.831 300.978 306.238C295.509 308.045 289.489 308.143 283.964 306.514M301.183 296.565C301.747 296.838 302.398 296.846 303.025 296.839C316.588 296.68 329.581 291.737 342.238 286.862C347.728 284.748 353.218 282.633 358.708 280.519C359.829 280.087 361.07 279.539 361.494 278.415C361.772 277.677 361.623 276.852 361.431 276.087C359.753 269.397 354.941 263.702 348.941 260.302C342.941 256.902 335.849 255.689 328.969 256.173C319.573 256.835 310.205 260.804 304.137 268.008C298.068 275.212 295.798 285.794 299.524 294.445C299.887 295.288 300.357 296.166 301.183 296.565M359.729 288.923C343.908 296.424 327.018 301.664 309.73 304.433C308.525 304.626 308.007 306.231 308.48 307.356C308.953 308.481 310.05 309.198 311.105 309.811C317.479 313.516 324.691 315.976 332.063 316.083C339.435 316.189 346.961 313.803 352.405 308.831C357.848 303.858 360.951 296.194 359.729 288.923M279.908 300.927C280.327 302.203 281.632 302.955 282.885 303.436C287.8 305.323 293.274 304.838 298.49 304.13C319.543 301.272 340.158 295.21 359.406 286.215C367.118 282.612 374.946 278.239 379.512 271.054C379.908 270.432 380.289 269.735 380.214 269.001C380.057 267.455 378.133 266.845 376.581 266.773C372.736 266.593 368.927 267.449 365.173 268.301C363.864 268.597 362.23 269.309 362.352 270.646C362.486 272.113 364.543 272.388 365.966 272.009C367.39 271.631 369.152 271.11 370.141 272.202C371.494 273.695 369.63 275.909 367.92 276.975C354.998 285.028 340.379 289.868 325.918 294.635C322.506 295.76 319.085 296.887 315.567 297.609C312.546 298.229 309.472 298.547 306.405 298.864C303.535 299.16 300.666 299.456 297.796 299.753C296.342 299.903 294.829 300.046 293.455 299.548C292.081 299.049 290.896 297.704 291.086 296.255C291.297 294.65 292.936 293.722 294.16 292.664C295.384 291.606 296.218 289.466 294.899 288.529C290.411 290.354 286.199 292.854 282.446 295.918C280.9 297.18 279.285 299.031 279.908 300.927M364.388 276.937C365.581 276.184 366.774 275.43 367.966 274.676C368.331 274.445 368.75 274.07 368.597 273.667C368.463 273.313 367.997 273.253 367.619 273.25C366.529 273.24 365.319 273.276 364.532 274.03C363.759 274.77 363.692 276.125 364.388 276.937M293.661 296.013C293.573 296.109 293.483 296.209 293.444 296.333C293.278 296.866 294.104 297.149 294.633 296.972C295.163 296.796 295.76 296.454 296.226 296.762C296.897 297.204 297.838 296.286 297.592 295.521C297.346 294.756 296.373 294.426 295.596 294.63C294.818 294.835 294.206 295.422 293.661 296.013H293.661Z" fill="#00160A"/>
<path fill-rule="evenodd" clip-rule="evenodd" d="M199.579 194.393C198.679 194.635 197.573 194.54 197.019 193.791C196.587 193.207 196.618 192.395 196.829 191.7C197.138 190.678 197.835 189.737 198.818 189.32C199.801 188.902 201.067 189.107 201.739 189.937C202.356 190.699 202.366 191.847 201.891 192.704C201.416 193.562 200.526 194.14 199.579 194.393L199.579 194.393Z" fill="#FFB61D"/>
<path fill-rule="evenodd" clip-rule="evenodd" d="M196.011 187.496C195.812 187.999 195.415 188.466 194.883 188.567C194 188.734 193.27 187.861 192.941 187.024C192.627 186.223 192.475 185.358 192.498 184.498C192.505 184.243 192.574 183.929 192.82 183.866C193.783 183.622 194.871 183.958 195.527 184.705C196.183 185.451 196.377 186.572 196.011 187.496H196.011Z" fill="#FFB61D"/>
<path fill-rule="evenodd" clip-rule="evenodd" d="M345.595 311.826C345.017 312.088 344.128 312.167 343.945 311.559C346.004 310.327 348.063 309.095 350.122 307.862C349.046 309.59 347.449 310.988 345.595 311.826Z" fill="#E7EAEE"/>
<path fill-rule="evenodd" clip-rule="evenodd" d="M183.804 191.671C184.389 192.347 184.903 193.14 184.979 194.031C185.054 194.921 184.568 195.907 183.709 196.154C182.871 196.394 182.01 195.897 181.32 195.363C180.535 194.757 179.783 194.035 179.458 193.097C179.134 192.16 179.365 190.969 180.21 190.45C181.385 189.727 182.9 190.628 183.804 191.671H183.804Z" fill="#FFB61D"/>
<path fill-rule="evenodd" clip-rule="evenodd" d="M311.089 306.527C311.97 307.484 312.852 308.44 313.734 309.397C313.875 309.55 313.776 309.846 313.571 309.883C311.843 309.088 310.355 307.781 309.344 306.169C309.655 305.537 310.611 306.009 311.089 306.527L311.089 306.527Z" fill="#E7EAEE"/>
<path fill-rule="evenodd" clip-rule="evenodd" d="M57.7756 271.208C56.9443 270.255 56.1624 269.153 56.0887 267.891C56.0411 267.076 56.2976 266.271 56.6489 265.535C58.0463 262.606 60.9822 260.563 64.152 259.867C67.3218 259.172 70.683 259.728 73.659 261.022C74.7401 261.492 75.8172 262.09 76.5054 263.047C77.5816 264.544 77.4672 266.653 76.6615 268.311C75.8559 269.969 74.4672 271.263 73.0579 272.451C71.7595 273.546 70.3543 274.618 68.6952 274.981C67.8026 275.176 66.8787 275.156 65.9651 275.135C65.0494 275.113 64.1266 275.091 63.233 274.89C61.0555 274.399 59.2434 272.889 57.7756 271.208M63.8086 265.602C63.0526 264.877 61.8539 264.129 61.0751 264.829C60.408 265.43 59.8915 266.196 59.5855 267.039C61.1046 267.092 62.6368 266.571 63.8086 265.602M66.0126 262.059C65.09 262.281 64.1307 262.521 63.4059 263.133C63.9167 263.653 64.5066 264.143 65.2189 264.296C65.9313 264.449 66.7834 264.159 67.0615 263.486C67.3396 262.812 66.7209 261.889 66.0126 262.059M68.5363 268.36C68.4664 268.915 68.3987 269.492 68.5808 270.021C68.7629 270.549 69.2757 271.009 69.8296 270.934C70.6238 270.828 70.9717 269.789 71.7321 269.536C70.7576 268.94 69.6648 268.538 68.5363 268.36M72.1244 263.834C72.7406 264.022 73.4621 263.491 73.4649 262.846C71.936 262.308 70.0583 263.146 69.4383 264.644C70.3763 264.836 71.4034 264.516 72.0653 263.824M66.7824 270.384C66.7074 270.197 66.5968 270.003 66.4077 269.934C65.7947 269.711 65.6374 270.851 65.0637 271.162C64.5227 271.455 64.6002 272.374 65.1377 272.673C65.6753 272.973 66.4079 272.688 66.7274 272.163C67.0468 271.637 67.0116 270.955 66.7824 270.384M62.2715 268.971C61.7184 269.444 60.7097 269.228 60.3262 269.847C59.9911 270.387 60.5381 271.143 61.1721 271.194C61.806 271.245 62.3835 270.807 62.7619 270.296C62.9695 270.016 63.1447 269.67 63.0659 269.33C62.9871 268.99 62.5366 268.745 62.2715 268.971M73.7308 266.956C73.935 266.751 74.1392 266.545 74.3434 266.34C73.8138 265.827 72.959 265.947 72.238 266.101C72.0152 266.149 71.7771 266.205 71.6239 266.374C71.268 266.766 71.6944 267.448 72.2186 267.522C72.7428 267.596 73.2378 267.292 73.6798 267.001L73.7308 266.956Z" fill="#00160A"/>
<path fill-rule="evenodd" clip-rule="evenodd" d="M342.165 152.116C340.042 150.192 337.919 148.268 335.796 146.344C335.105 145.717 334.524 144.378 335.408 144.078C336.324 145.806 338.37 146.632 340.312 146.857C342.255 147.082 344.233 146.847 346.17 147.116C348.005 147.371 349.744 148.07 351.486 148.699C361.098 152.17 371.324 153.666 380.989 156.985C381.556 157.179 382.205 157.471 382.326 158.058C382.461 158.714 381.844 159.273 381.257 159.596C378.244 161.253 374.171 160.689 371.722 158.275C370.542 157.111 368.605 157.922 367.009 158.37C364.068 159.195 360.94 158.488 357.968 157.779C354.823 157.029 351.678 156.279 348.533 155.529C347.437 155.268 346.33 155.002 345.323 154.497C344.141 153.904 343.145 153.004 342.165 152.116M377.611 158.891C378.11 158.665 377.541 157.949 377.025 157.765C371.946 155.952 366.788 154.18 361.419 153.665C358.635 153.398 355.886 152.766 353.265 151.79C349.75 150.481 346.183 148.518 342.486 149.148C342.805 151.157 344.745 152.544 346.705 153.086C348.666 153.629 350.743 153.561 352.741 153.946C355.248 154.429 357.56 155.61 359.995 156.377C362.43 157.145 365.194 157.466 367.452 156.274C369.052 155.43 371.029 155.96 372.651 156.761C374.272 157.562 375.82 158.635 377.611 158.891Z" fill="#00160A"/>
<path fill-rule="evenodd" clip-rule="evenodd" d="M507.036 180.915C508.637 179.646 510.238 178.376 511.839 177.106C512.298 176.742 512.794 176.363 513.378 176.312C514.236 176.237 514.972 176.88 515.582 177.488C517.685 179.585 519.682 181.789 521.563 184.087C522.021 184.647 521.445 185.444 520.905 185.926C519.129 187.511 517.353 189.097 515.577 190.682C515.128 191.083 514.646 191.501 514.053 191.607C513.132 191.771 512.276 191.146 511.549 190.558C510.009 189.312 508.47 188.065 506.93 186.819C506.007 186.072 505.003 185.17 504.969 183.983C504.932 182.702 506.032 181.712 507.036 180.915M515.089 181.113C514.629 180.599 514.092 180.047 513.403 180.015C512.867 179.99 512.376 180.291 511.924 180.58C511.117 181.098 510.311 181.615 509.504 182.132C509.188 182.335 508.858 182.552 508.68 182.884C508.226 183.728 508.972 184.698 509.661 185.365C510.673 186.343 511.684 187.322 512.696 188.3C513.006 188.6 513.376 188.923 513.806 188.881C514.109 188.851 514.362 188.643 514.588 188.439C515.453 187.66 516.247 186.801 516.955 185.878C517.457 185.224 517.907 184.258 517.357 183.644C516.601 182.8 515.845 181.957 515.089 181.113V181.113Z" fill="#FFB61D"/>
<path fill-rule="evenodd" clip-rule="evenodd" d="M404.15 95.4433C410.459 107.622 408.564 122.243 406.51 135.804C418.413 141.846 428.68 151.075 435.954 162.268C438.215 165.749 440.256 169.967 438.959 173.909C437.384 178.692 431.775 180.679 426.824 181.596C414.427 183.895 401.548 183.561 389.287 180.623C384.658 179.514 379.377 178.144 375.464 180.855C358.207 192.814 334.302 193.854 315.568 184.374C296.835 174.894 283.691 155.614 280.627 134.843C280.042 130.877 276.504 128.136 273.354 125.656C262.574 117.166 253.283 106.791 246.029 95.1438C242.998 90.2764 240.251 84.3153 242.405 79.0009C244.893 72.8613 252.553 70.839 259.172 70.565C273.879 69.956 288.745 74.0571 301.061 82.1204C309.532 71.5814 321.794 64.1564 335.058 61.5334C348.323 58.9105 362.488 61.1098 374.333 67.6314C380.217 70.8708 385.493 75.1049 390.529 79.5487C395.792 84.1927 400.922 89.211 404.15 95.4433M414.607 165.67C411.985 169.697 406.559 170.677 401.756 170.805C387.164 171.195 372.854 167.185 358.809 163.21C349.015 160.438 339.175 157.649 329.925 153.4C324.31 150.82 318.95 147.719 313.659 144.525C294.747 133.108 275.451 118.979 268.462 98.0225C267.097 93.9291 269.849 89.2837 273.744 87.4257C277.638 85.5677 282.265 85.982 286.385 87.2643C288.524 87.93 290.676 88.8281 292.911 88.6687C295.145 88.5093 297.485 86.8272 297.416 84.5881C297.343 82.2316 294.868 80.784 292.695 79.8703C280.4 74.7011 266.872 71.758 253.663 73.6065C250.867 73.9979 247.896 74.7148 246.03 76.8339C242.65 80.6715 244.622 86.6682 247.074 91.1552C257.399 110.041 273.464 125.343 291.426 137.202C309.389 149.061 329.278 157.679 349.346 165.461C373.646 174.884 399.559 183.297 425.345 179.505C427.923 179.125 430.552 178.599 432.76 177.214C434.968 175.829 436.695 173.41 436.58 170.806C436.502 169.048 435.622 167.435 434.712 165.929C427.708 154.339 417.519 144.697 405.561 138.341C404.98 140.552 404.398 142.763 403.816 144.974C407.456 147.352 411.191 149.822 413.645 153.41C416.099 156.999 416.979 162.026 414.607 165.67M402.766 136.365C403.444 135.724 403.714 134.774 403.937 133.869C406.33 124.135 406.493 113.86 404.411 104.054C400.583 104.98 396.755 105.905 392.926 106.83C391.105 107.27 389.263 107.713 387.39 107.709C385.114 107.704 382.899 107.041 380.652 106.683C375.629 105.882 370.502 106.613 365.468 107.343C363.522 107.625 361.596 106.789 359.874 105.84C347.774 99.1665 339.9 86.2334 327.413 80.3156C326.082 79.6847 324.687 79.1263 323.565 78.1717C321.285 76.2314 320.448 72.931 318.036 71.1566C319.904 78.7729 325.86 84.6951 332.145 89.386C338.429 94.0769 345.366 98.0353 350.668 103.814C353.384 106.774 357.51 107.991 361.491 108.532C365.472 109.073 369.552 109.076 373.411 110.196C376.348 111.048 379.205 112.55 382.259 112.393C385.096 112.247 387.64 110.689 390.342 109.812C394.296 108.529 398.556 108.721 402.708 108.926C403.546 108.967 404.615 109.204 404.738 110.035C404.885 111.031 403.536 111.487 402.529 111.5C397.647 111.561 392.23 110.424 388.276 113.288C385.219 115.504 381.032 115.341 377.376 114.402C373.719 113.462 370.219 111.845 366.467 111.423C363.802 111.124 361.087 111.439 358.44 111.007C351.052 109.8 345.945 103.277 340.174 98.5074C335.74 94.8423 330.63 92.0741 326.128 88.4928C321.626 84.9115 317.61 80.2188 316.617 74.5526C316.359 73.0856 314.135 73.5018 312.872 74.2925C309.78 76.2299 306.651 78.1961 304.136 80.8411C301.622 83.4861 299.746 86.927 299.721 90.5765C299.685 95.6511 303.664 100.461 308.656 101.377C312.882 102.152 312.823 110.076 317.115 110.264C319.874 110.384 321.31 113.477 322.545 115.947C323.78 118.417 326.602 121 328.931 119.515C330.447 118.549 332.374 119.63 333.952 120.491C335.53 121.352 337.934 121.773 338.76 120.177C335.509 119.622 333.752 115.114 335.768 112.505C337.287 110.539 340.033 110.052 342.517 109.989C345.429 109.914 348.469 110.262 350.93 111.82C353.391 113.379 355.101 116.399 354.403 119.227C353.593 122.509 354.209 126.118 356.064 128.945C357.562 127.982 359.061 127.019 360.559 126.056C362.57 124.764 364.654 123.443 367.013 123.058C369.372 122.673 372.097 123.474 373.252 125.566C374.409 127.661 373.69 130.252 372.947 132.527C376.909 131.045 381.609 131.728 384.985 134.278C389.43 137.634 395.462 138.786 400.831 137.304C401.53 137.111 402.24 136.863 402.766 136.365M381.013 75.5583C380.257 75.1272 379.305 74.7129 378.562 75.167C375.915 76.7862 372.52 76.4543 369.531 75.6233C366.541 74.7924 363.625 73.5109 360.525 73.3812C358.192 73.2837 355.877 73.8479 353.542 73.8486C347.994 73.8504 342.989 70.7322 338.33 67.7212C337.732 67.3348 337.104 66.9147 336.806 66.2683C336.507 65.6218 336.714 64.6902 337.392 64.474C342.141 69.6027 349.405 72.2844 356.347 71.4723C358.254 71.2492 360.153 70.7792 362.068 70.9139C364.796 71.1058 367.273 72.4976 369.874 73.3418C372.476 74.186 375.648 74.365 377.639 72.4896C361.861 60.4417 338.667 59.133 321.634 69.3298C321.371 69.4877 321.068 69.7522 321.175 70.0403C322.908 74.6975 327.778 77.2253 331.968 79.8978C341.459 85.9527 349.003 94.5753 357.821 101.574C360.512 103.709 363.828 105.801 367.155 104.947C371.914 103.725 376.946 103.58 381.768 104.526C383.888 104.942 385.995 105.569 388.155 105.532C392.6 105.455 396.718 102.585 401.153 102.887C402.443 102.974 403.477 101.644 403.541 100.352C403.605 99.0601 402.976 97.8443 402.327 96.7252C397.248 87.9606 389.812 80.5765 381.013 75.5583M310.901 166.019C314.858 168.415 320.123 166.71 324.453 168.341C326.553 169.133 328.413 170.703 330.652 170.854C332.621 170.987 334.538 169.98 336.506 170.131C338.376 170.274 339.988 171.426 341.585 172.409C347.932 176.312 355.611 178.002 363.009 177.122C364.955 176.89 366.734 178.121 368.599 178.722C370.464 179.323 373.13 178.797 373.388 176.855C362.754 173.829 352.503 169.61 342.28 165.399C321.116 156.683 299.631 147.78 281.772 133.464C282.831 136.933 283.889 140.403 284.947 143.873C286.266 148.195 287.591 152.535 289.522 156.62C297.164 172.788 313.784 183.379 331.185 187.504C338.873 189.327 347.08 190.026 354.586 187.56C349.587 187.146 345.931 182.709 341.276 180.837C336.473 178.906 330.562 179.688 326.533 176.437C321.636 172.485 313.08 173.83 309.919 168.39C309.328 167.373 309.894 165.409 310.901 166.019M300.172 113.194C300.218 115.717 301.645 118.172 303.813 119.463C304.847 120.078 306.054 120.462 306.875 121.342C307.848 122.385 308.062 124.062 307.384 125.316C306.243 127.425 303.352 127.753 300.976 127.434C299.669 127.258 298.354 126.958 297.217 126.289C295.708 125.402 294.639 123.948 293.448 122.665C290.879 119.896 287.58 117.81 283.976 116.676C284.255 119.425 286.484 121.519 288.609 123.285C297.858 130.967 307.944 137.585 318.251 143.776C321.617 145.797 325.012 147.776 328.514 149.551C341.349 156.057 355.403 159.717 369.332 163.331C374.367 164.637 379.402 165.944 384.437 167.25C385.133 167.43 385.874 167.61 386.557 167.387C387.294 167.146 387.804 166.489 388.264 165.865C391.554 161.4 394.688 156.819 397.657 152.134C397.8 151.909 397.948 151.655 397.902 151.392C397.839 151.039 397.467 150.845 397.138 150.703C391.727 148.376 386.317 146.049 380.906 143.721C379.934 143.303 378.922 142.877 377.864 142.913C376.603 142.955 375.469 143.644 374.278 144.063C366.865 146.673 359.225 138.697 351.498 140.126C348.951 140.596 346.706 142.057 344.254 142.889C341.802 143.722 338.732 143.763 337.003 141.835C336.002 140.718 335.665 139.178 335.078 137.798C334.49 136.419 333.398 135.025 331.9 134.963C331.165 134.933 330.462 135.235 329.74 135.374C326.893 135.922 324.176 133.903 322.366 131.638C320.556 129.372 319.158 126.691 316.803 125C314.122 123.074 310.516 122.676 308.023 120.513C305.496 118.321 304.547 114.678 301.915 112.612C301.459 112.254 300.733 111.977 300.359 112.421C300.185 112.629 300.167 112.923 300.172 113.194M369.963 133.419C369.43 131.712 371.423 130.113 371.261 128.331C371.061 126.137 368.02 125.604 365.898 126.195C363.86 126.763 361.954 127.801 360.371 129.205C358.547 130.823 356.073 133.069 354.123 131.606C353.611 131.221 353.288 130.638 353.01 130.061C351.246 126.398 350.668 122.175 351.383 118.172C351.738 116.184 350.205 114.248 348.349 113.451C346.493 112.655 344.396 112.725 342.378 112.81C341.097 112.863 339.709 112.958 338.743 113.8C337.777 114.643 337.685 116.517 338.866 117.014C340.584 117.736 341.542 119.891 340.929 121.65C338.936 123.627 335.704 123.345 332.929 122.925C330.779 122.599 328.629 122.274 326.479 121.948C324.911 121.711 323.251 121.433 322.053 120.393C319.71 118.361 319.74 113.975 316.796 112.998C316.005 112.736 315.137 112.799 314.342 112.552C310.361 111.316 311.004 103.9 306.896 103.192C300.385 102.071 295.743 94.6445 297.588 88.3008C291.554 96.116 286.835 104.944 283.69 114.303C287.891 115.14 291.825 117.275 294.816 120.342C296.315 121.879 297.652 123.694 299.612 124.568C301.572 125.442 304.422 124.816 304.959 122.738C302.487 122.479 300.453 120.624 299.098 118.541C298.168 117.111 297.452 115.464 297.52 113.76C297.588 112.056 298.596 110.313 300.217 109.782C302.373 109.075 304.637 110.673 305.926 112.54C307.216 114.406 307.999 116.639 309.6 118.247C311.217 119.874 313.466 120.662 315.513 121.695C318.614 123.261 321.379 125.487 323.57 128.181C325.095 130.057 326.606 132.328 328.989 132.732C331.172 133.103 333.6 131.763 335.528 132.851C338.394 134.469 337.456 139.937 340.61 140.879C341.997 141.294 343.42 140.506 344.722 139.872C350.792 136.915 358.252 136.995 364.257 140.08C365.847 140.897 367.403 141.931 369.181 142.099C372.051 142.371 374.649 140.338 377.516 140.046C380.825 139.708 383.858 141.689 386.771 143.294C390.011 145.077 393.459 146.482 397.023 147.468C397.649 147.642 398.324 147.801 398.936 147.584C399.689 147.318 400.141 146.561 400.478 145.837C401.401 143.854 401.934 141.689 402.038 139.504C395.886 140.494 388.81 141.238 384.147 137.104C381.875 135.091 378.688 134.152 375.687 134.612C373.566 134.937 370.603 135.468 369.963 133.419M274.297 103.683C276.222 106.815 278.147 109.948 280.072 113.08C280.307 113.463 280.707 113.904 281.119 113.723C281.361 113.617 281.467 113.337 281.549 113.086C283.977 105.703 287.403 98.6479 291.705 92.1747C292.008 91.7194 291.392 91.2172 290.884 91.0149C289.377 90.4146 287.866 89.813 286.303 89.3754C283.248 88.5196 280.015 88.3056 276.874 88.7511C274.68 89.0623 272.275 89.9012 271.348 91.9146C270.923 92.8405 270.876 93.8958 270.945 94.9126C271.046 96.4204 271.385 97.912 271.945 99.3155C272.559 100.853 273.43 102.272 274.297 103.683M411.451 166.119C413.701 164.855 414.419 161.794 413.724 159.309C413.03 156.823 411.249 154.804 409.441 152.962C407.456 150.941 405.37 149.017 403.195 147.201C399.585 154.149 395.47 160.835 390.893 167.189C390.601 167.594 390.856 168.205 391.284 168.462C391.712 168.719 392.241 168.72 392.74 168.71C398.181 168.597 403.611 167.996 408.944 166.918C409.807 166.743 410.683 166.551 411.451 166.119M319.887 170.726C323.107 170.994 325.631 173.489 328.537 174.902C333.963 177.54 340.86 176.427 345.797 179.896C347.316 180.964 348.556 182.415 350.169 183.337C351.914 184.335 353.963 184.638 355.964 184.833C360.017 185.229 364.671 185.027 367.352 181.962C367.504 181.789 367.65 181.602 367.715 181.38C368.045 180.262 366.358 179.764 365.194 179.83C355.938 180.351 346.174 178.93 338.688 173.463C336.726 172.03 334.025 173.45 331.597 173.503C329.093 173.557 326.847 172.105 324.543 171.124C321.332 169.758 317.753 169.268 314.294 169.722C315.632 171.142 317.943 170.564 319.887 170.726V170.726Z" fill="#00160A"/>
<path fill-rule="evenodd" clip-rule="evenodd" d="M180.916 153.778C179.69 152.794 179.217 151.176 178.494 149.78C176.059 145.082 170.448 142.733 165.157 142.698C159.865 142.663 154.768 144.53 149.807 146.371C141.901 149.306 133.994 152.24 126.087 155.175C118.717 157.91 110.624 161.298 107.407 168.471C104.349 175.291 106.773 183.195 109.219 190.258C115.111 207.273 121.003 224.288 126.895 241.303C127.645 243.469 129.026 246.074 131.31 245.877C148.656 244.381 166.051 257.523 169.351 274.618C180.281 272.226 190.841 268.146 200.54 262.565C203.204 261.032 205.893 259.3 207.533 256.701C210.53 251.952 209.254 245.789 207.877 240.345C205.349 230.341 202.82 220.338 200.291 210.335C193.422 210.097 186.363 209.224 180.363 205.87C169.561 199.831 164.248 185.555 168.347 173.878C172.445 162.201 185.397 154.392 197.656 156.083C209.916 157.774 220.23 168.69 221.362 181.013C222.494 193.337 214.434 205.885 202.802 210.111C204.907 217.992 207.011 225.873 209.116 233.753C210.617 239.374 212.13 245.095 211.926 250.909C211.604 260.073 207.078 268.507 202.439 276.417C188.518 300.152 170.995 323.936 145.255 333.664C135.817 337.231 125.721 338.705 115.669 339.576C110.423 340.031 105.099 340.325 99.9225 339.353C94.0388 338.249 88.578 335.554 83.3818 332.581C42.8651 309.404 14.186 266.617 8.14332 220.332C7.50673 215.456 7.09993 210.515 5.68532 205.805C4.39834 201.52 2.29919 197.508 1.10494 193.196C-1.44582 183.987 0.488657 173.645 6.19549 165.981C9.2375 161.896 9.83898 156.557 11.5051 151.744C13.0996 147.137 15.746 142.899 19.1844 139.444C22.9537 135.656 27.5949 132.857 32.3341 130.389C56.6638 117.715 85.03 112.941 112.168 116.952C139.306 120.963 165.078 133.739 184.701 152.909C184.487 154.467 182.143 154.763 180.916 153.778ZM144.508 264.532C142.643 262.286 140.815 259.923 139.89 257.154C138.966 254.386 139.089 251.108 140.892 248.813C139.957 247.801 138.3 247.551 137.108 248.243C135.916 248.934 135.309 250.496 135.722 251.81C136.489 254.248 134.864 257.163 132.388 257.793C133.878 254.852 134.365 251.414 133.75 248.175C133.706 247.943 133.643 247.69 133.451 247.552C133.045 247.26 132.518 247.712 132.261 248.141C130.727 250.701 130.805 253.974 131.766 256.8C132.727 259.625 134.476 262.103 136.203 264.538C140.54 263.125 145.772 266.039 146.853 270.47C147.79 274.31 151.624 276.952 155.544 277.46C159.464 277.967 163.412 276.702 166.96 274.961C160.614 274.107 153.924 273.11 148.927 269.106C147.269 267.779 145.865 266.165 144.508 264.532ZM14.4755 189.44C11.2309 181.949 9.54784 173.864 8.59604 165.755C3.38742 173.221 1.33686 182.818 3.03938 191.761C4.7419 200.703 10.1753 208.875 17.7628 213.905C20.1475 215.486 20.574 218.727 21.1078 221.537C22.4032 228.359 25.5773 234.657 28.7154 240.852C34.7792 252.821 40.9176 264.905 49.5095 275.211C54.8068 281.565 62.0919 287.577 70.3276 286.796C79.2225 285.953 85.6419 277.101 86.8008 268.241C87.9597 259.382 85.1229 250.541 82.3235 242.056C79.2599 232.77 76.1964 223.484 73.1328 214.199C72.7674 213.091 72.454 211.723 73.2611 210.882C78.2465 205.682 79.5918 197.808 78.463 190.694C77.3342 183.58 74.0514 177.015 70.7773 170.599C69.625 170.984 69.6734 172.601 69.8499 173.803C71.1705 182.798 66.4604 192.061 59.1399 197.451C51.8194 202.842 42.2899 204.663 33.2382 203.818C29.8075 203.498 26.3329 202.789 23.3823 201.01C19.1453 198.455 16.4419 193.98 14.4755 189.44ZM110.617 302.12C106.775 299.416 103.746 295.722 100.958 291.941C96.475 285.861 92.4772 279.425 89.0147 272.712C87.2646 277.669 84.1312 282.13 80.0617 285.458C75.3994 289.271 68.5406 289.486 62.9227 287.315C57.3047 285.144 52.7224 280.939 48.6536 276.499C34.0893 260.603 24.4184 240.652 18.6443 219.881C18.0546 217.759 17.4001 215.467 15.6493 214.132C13.8984 212.797 10.714 213.262 10.2661 215.418C10.1702 215.88 10.2095 216.357 10.2492 216.827C10.9351 224.94 11.6322 233.116 13.8919 240.938C14.9794 244.703 16.4206 248.355 17.892 251.987C23.2898 265.31 29.2016 278.589 37.8325 290.086C49.2517 305.296 64.8923 316.699 80.2889 327.866C86.0381 332.036 92.9125 336.428 99.7367 334.461C102.512 333.661 104.89 331.871 107.06 329.964C114.519 323.413 120.348 315.019 123.881 305.742C119.239 306.468 114.459 304.824 110.617 302.12ZM75.4175 142.485C68.8314 137.509 61.6257 133.122 53.6358 131.049C45.6459 128.977 36.7523 129.424 29.651 133.632C27.207 135.08 25.0228 136.936 23.0331 138.963C16.2813 145.843 11.6539 155.089 11.509 164.728C11.4325 169.822 12.5787 174.851 13.8883 179.773C15.1503 184.517 16.6104 189.305 19.3759 193.36C22.1415 197.416 26.4291 200.694 31.318 201.137C38.989 201.832 46.9761 200.878 53.7576 197.226C60.5392 193.574 65.9531 186.977 67.054 179.354C67.8583 173.784 66.3912 168.146 66.4124 162.518C66.4227 159.785 66.7867 157.054 67.4925 154.414C68.133 152.018 69.0984 149.629 70.8428 147.865C72.5871 146.102 75.2437 145.08 77.6146 145.809C77.7364 144.424 76.5267 143.323 75.4175 142.485ZM179.833 273.719C171.514 276.295 163.195 278.871 154.875 281.447C149.157 283.217 143.351 285.003 137.367 285.171C131.383 285.339 125.094 283.688 120.874 279.442C123.161 284.986 127.107 289.834 132.072 293.198C133.334 294.053 132.84 295.993 132.21 297.381C128.639 305.253 125.037 313.177 120.073 320.254C115.109 327.33 108.644 333.588 100.687 336.968C102.57 337.756 104.575 338.249 106.608 338.424C109.499 338.674 112.404 338.283 115.28 337.894C127.893 336.185 140.794 334.387 152.088 328.517C162.054 323.338 170.179 315.29 178.133 307.361C184.667 300.849 191.476 293.854 193.634 284.885C195.747 276.103 205.645 270.432 206.585 261.448C198.968 267.736 189.268 270.798 179.833 273.719ZM79.7995 183.478C82.0114 189.986 82.6359 197.275 80.1236 203.674C78.6873 207.331 76.2372 210.76 76.1802 214.689C76.1535 216.527 76.6639 218.326 77.2104 220.081C81.8973 235.131 89.645 249.656 89.8419 265.418C89.8885 269.14 91.6872 272.595 93.569 275.807C97.1736 281.959 101.252 287.834 105.756 293.361C109.42 297.858 113.72 302.342 119.363 303.683C120.809 304.026 122.378 304.139 123.744 303.553C126.212 302.493 127.232 299.603 127.987 297.025C128.365 295.732 128.673 294.139 127.707 293.2C120.67 286.364 115.459 277.667 112.751 268.238C112.022 265.703 111.458 263.084 110.183 260.776C109.423 259.401 108.429 258.171 107.595 256.839C105.498 253.49 104.474 249.6 103.418 245.792C99.4182 231.369 94.553 217.185 88.8577 203.344C87.1733 199.25 86.6454 194.789 86.1336 190.392C85.9623 188.92 85.7909 187.447 85.6195 185.975C84.9146 179.918 84.2489 173.553 86.5756 167.917C88.6322 162.935 86.5963 157.193 83.7265 152.631C82.131 150.095 79.7743 147.473 76.7821 147.635C73.6511 147.805 71.5738 150.922 70.405 153.831C68.9285 157.507 68.125 161.912 70.2341 165.265C73.8945 171.083 77.5875 176.969 79.7995 183.478ZM77.4017 141.269C82.703 145.695 87.3295 151.24 89.3297 157.85C89.7705 159.307 91.0721 161.22 92.2985 160.318C98.8159 155.527 106.461 152.556 114.006 149.64C117.233 148.393 120.46 147.145 123.687 145.898C134.324 141.787 145.11 137.638 156.446 136.393C149.641 130.655 141.423 126.812 132.992 123.958C111.28 116.608 87.4812 115.541 65.1991 120.921C63.0731 121.434 60.9577 122.005 58.9046 122.759C54.4301 124.401 50.2303 126.913 45.5386 127.753C57.1777 128.999 68.4167 133.766 77.4017 141.269ZM98.1583 207.693C101.207 209.051 105.637 205.019 107.627 207.698C104.017 209.23 100.274 210.448 96.4533 211.335C95.6704 211.517 95.6713 212.626 95.8686 213.406C97.3746 219.352 99.5467 225.13 102.331 230.596C105.257 228.875 109.19 229.876 111.728 232.13C114.267 234.384 115.682 237.623 116.818 240.822C117.796 243.575 118.624 246.38 119.298 249.223C120.356 253.689 120.562 259.378 116.667 261.806C115.246 262.692 115.882 264.866 116.678 266.339C118.548 269.8 120.462 273.3 123.189 276.135C130.428 283.658 143.292 284.876 151.814 278.844C144.915 277.224 138.66 272.999 134.582 267.203C131.767 263.203 130.004 258.575 128.293 253.993C120.833 234.019 113.804 213.884 107.211 193.607C105.615 188.698 104.033 183.723 103.667 178.574C103.301 173.425 104.26 168.01 107.335 163.863C111.18 158.677 117.618 156.242 123.696 154.066C137.298 149.197 150.9 144.327 164.501 139.458C157.178 136.486 148.903 139.039 141.426 141.6C127.123 146.5 112.778 151.417 99.1765 158.018C96.7449 159.198 94.3007 160.458 92.3495 162.329C86.4425 167.991 86.6233 177.457 88.3838 185.448C88.4765 185.868 88.607 186.337 88.9829 186.546C89.296 186.721 89.6824 186.659 90.0346 186.592C92.9576 186.036 95.8806 185.48 98.8035 184.925C101.671 184.379 103.898 187.369 105.024 190.062C106.621 193.88 107.619 197.948 107.973 202.071C108.048 202.952 108.057 203.946 107.448 204.587C106.839 205.227 105.436 204.97 105.454 204.086C105.509 201.476 105.268 198.861 104.738 196.305C104.125 193.351 103.014 190.314 100.649 188.441C98.2844 186.568 94.387 186.395 92.5094 188.756C97.3787 193.599 99.5785 200.974 98.1583 207.693ZM205.563 201.136C205.831 197.21 208.716 193.594 212.485 192.46C214.75 191.779 216.327 189.605 216.888 187.308C217.45 185.011 217.156 182.595 216.721 180.271C215.333 172.849 212.124 165.19 205.666 161.279C198.664 157.038 189.638 158.254 181.921 160.986C178.557 162.176 175.061 163.819 173.294 166.919C172.208 168.826 171.909 171.067 171.631 173.244C171.063 177.695 170.494 182.19 170.904 186.659C171.315 191.128 172.792 195.632 175.841 198.925C177.965 201.218 181.219 202.891 184.19 201.922C186.519 201.162 188.655 203.327 190.861 204.394C193.871 205.85 197.424 205.247 200.707 204.613C202.819 204.205 205.416 203.282 205.563 201.136ZM116.069 248.657C115.52 246.874 114.97 245.091 114.421 243.307C113.257 239.53 111.968 235.554 109.007 232.937C107.824 231.892 106.035 231.111 104.717 231.978C103.378 232.859 103.411 234.804 103.651 236.388C104.602 242.653 106.445 248.782 109.107 254.532C110.002 256.465 111.022 258.399 112.604 259.827C112.996 260.181 113.443 260.511 113.964 260.597C115.076 260.78 116.051 259.806 116.55 258.796C118.089 255.684 117.091 251.975 116.069 248.657ZM163.403 267.416C158.26 266.768 153.447 263.836 150.514 259.562C149.415 257.962 148.562 256.152 148.328 254.224C148.19 253.085 148.261 251.886 147.775 250.847C147.29 249.808 145.942 249.04 144.983 249.668C144.964 252.794 144.999 256.119 146.686 258.75C147.267 259.657 148.021 260.438 148.771 261.211C151.121 263.636 153.501 266.07 156.291 267.972C159.082 269.873 162.345 271.229 165.722 271.241C165.552 269.634 165.007 267.618 163.403 267.416ZM142.731 248.78C141.627 249.749 141.425 251.384 141.486 252.852C141.692 257.82 144.084 262.581 147.66 266.035C151.237 269.49 155.927 271.68 160.804 272.648C161.999 272.885 163.289 273.042 164.397 272.534C161.1 272.089 157.912 270.857 155.173 268.969C154.133 268.253 153.159 267.446 152.191 266.635C149.633 264.493 147.063 262.275 145.276 259.457C143.281 256.31 142.371 252.489 142.731 248.78ZM95.5979 204.374C95.4509 199.528 93.6787 194.746 90.6325 190.975C89.0057 192.484 89.3498 195.098 89.8222 197.266C90.4981 200.368 91.2742 203.658 93.5419 205.88C93.7816 206.115 94.0597 206.346 94.3937 206.378C95.2766 206.462 95.6248 205.26 95.5979 204.374ZM152.454 259.675C154.965 262.819 158.597 265.049 162.538 265.866C162.778 265.916 163.064 265.948 163.236 265.773C163.37 265.636 163.38 265.422 163.359 265.231C163.218 263.972 162.078 263.043 160.892 262.595C159.707 262.146 158.417 262.035 157.225 261.606C154.335 260.568 152.295 257.531 152.426 254.463C152.483 253.124 151.455 251.821 150.139 251.565C149.372 254.381 150.632 257.394 152.454 259.675ZM142.276 266.754C140.852 266.115 139.211 266.158 137.74 265.635C137.179 265.435 136.642 266.194 136.855 266.75C137.069 267.307 137.718 267.575 138.313 267.599C138.909 267.624 139.498 267.469 140.094 267.466C142.226 267.455 144.029 269.781 143.486 271.843C143.278 272.635 144.159 273.482 144.942 273.242C145.873 270.837 144.629 267.81 142.276 266.754ZM158.195 257.902C156.943 256.667 155.679 255.423 154.209 254.458C153.826 257.804 156.983 261.09 160.342 260.84C160.651 260.517 160.322 260.001 160.004 259.687C159.401 259.092 158.798 258.497 158.195 257.902ZM140.714 270.249C141.04 270.742 142.041 270.475 141.926 269.895C141.205 269.075 140.133 268.573 139.042 268.545C139.188 269.359 139.842 270.059 140.644 270.262M130.299 248.572C130.265 248.16 129.784 247.851 129.395 247.993C129.204 248.589 129.357 249.283 129.78 249.745C130.324 249.751 130.686 248.987 130.338 248.57M117.712 274.161C117.712 274.775 118.054 275.379 118.582 275.693C118.901 275.08 118.382 274.216 117.691 274.209" fill="#00160A"/>
<path fill-rule="evenodd" clip-rule="evenodd" d="M500.732 200.559C500.31 199.511 498.527 199.997 498.188 201.075C497.85 202.152 498.396 203.284 498.859 204.314C503.565 214.777 499.819 228.34 490.41 234.905C488.011 233.438 487.044 230.199 484.512 228.978C483.344 228.415 482.004 228.37 480.708 228.334C476.858 228.229 473.007 228.124 469.157 228.018C467.751 227.98 466.06 228.095 465.378 229.324C463.891 232.003 459.915 233.071 457.508 231.177C455.1 229.282 455.512 224.753 458.364 223.634C459.038 223.37 459.802 223.277 460.358 222.814C460.857 222.398 461.098 221.758 461.318 221.147C462.812 217.009 464.306 212.871 465.801 208.733C466.082 207.953 466.368 207.151 466.348 206.322C466.307 204.633 465.031 203.245 463.722 202.176C462.413 201.108 460.936 200.116 460.198 198.597C459.46 197.077 459.893 194.827 461.51 194.339C469.996 191.78 479.535 190.156 487.436 194.174C488.788 194.862 490.137 195.725 491.653 195.768C493.17 195.81 494.846 194.569 494.57 193.078C494.181 190.979 490.495 190.094 491.15 188.063C491.292 187.625 491.631 187.284 491.958 186.96C495.31 183.648 498.661 180.336 502.013 177.024C502.36 175.144 499.628 174.118 497.867 174.862C496.107 175.606 494.84 177.245 493.072 177.971C489.497 179.438 485.669 176.724 482.839 174.093C472.709 164.675 463.726 154.026 456.148 142.455C455.801 141.924 455.442 141.34 455.488 140.707C455.547 139.894 456.24 139.292 456.88 138.787C462.452 134.386 468.025 129.986 473.598 125.585C474.944 124.522 477.051 123.507 478.159 124.816C488.421 136.935 498.682 149.054 508.944 161.173C509.433 161.751 509.94 162.363 510.092 163.105C510.404 164.63 509.132 166.009 507.844 166.883C506.556 167.757 505.046 168.544 504.456 169.985C503.866 171.425 505.153 173.549 506.593 172.959C513.967 167.662 521.675 162.22 530.617 160.648C532.309 160.351 534.148 160.22 535.654 161.047C539.005 162.887 538.533 167.822 537.26 171.426C534.936 178.003 531.491 184.182 527.118 189.616C526.247 190.698 525.279 191.999 525.647 193.339C526.167 195.233 528.797 195.466 530.679 194.905C532.561 194.343 534.624 193.397 536.376 194.285C537.15 194.678 537.717 195.377 538.259 196.055C547.418 207.525 556.578 218.994 565.737 230.463C559.409 235.44 552.967 240.272 546.419 244.955C545.772 245.417 545.05 245.9 544.257 245.835C543.319 245.757 542.632 244.949 542.056 244.204C533.271 232.839 524.487 221.475 515.703 210.111C514.579 208.657 515.637 206.484 517.084 205.351C518.531 204.218 520.37 203.538 521.486 202.078C522.602 200.618 522.306 197.896 520.489 197.62C519.456 197.463 518.507 198.181 517.76 198.912C515.675 200.955 513.95 203.513 511.302 204.741C507.456 206.524 502.317 204.49 500.732 200.559M491.92 231.245C497.28 225.065 500.642 216.451 498.3 208.613C496.339 202.051 490.56 197.026 484.019 194.995C477.479 192.965 470.31 193.668 463.842 195.919C463.26 196.122 462.581 196.468 462.558 197.084C462.544 197.463 462.798 197.793 463.038 198.086C472.106 209.126 481.174 220.165 490.241 231.205C490.465 231.477 490.736 231.773 491.088 231.775C491.428 231.776 491.697 231.502 491.92 231.245M533.91 170.313C530.476 170.002 527.743 166.352 528.41 162.969C515.227 168.88 503.38 177.751 493.998 188.738C497.648 193.633 501.743 198.197 506.216 202.353C506.678 202.782 507.19 203.228 507.817 203.29C508.497 203.357 509.126 202.956 509.686 202.563C520.432 195.038 529.066 184.53 534.363 172.528C534.721 171.717 534.793 170.394 533.91 170.313M485.667 160.378C486.404 159.771 487.211 159.012 487.148 158.059C487.101 157.356 486.583 156.787 486.095 156.28C483.916 154.017 481.738 151.755 479.559 149.493C478.94 148.849 477.916 148.745 477.061 149.002C476.206 149.259 475.478 149.816 474.771 150.362C474.225 150.784 473.659 151.627 474.204 152.052C477.148 154.344 479.791 157.022 482.044 159.996C482.455 160.538 482.916 161.132 483.585 161.257C484.351 161.4 485.065 160.873 485.667 160.378M493.548 173.832C494.418 174.01 495.241 173.421 495.935 172.867C496.528 172.393 497.177 171.802 497.146 171.044C497.126 170.531 496.791 170.091 496.47 169.69C494.274 166.936 492.077 164.183 489.88 161.429C489.727 161.238 489.556 161.035 489.317 160.985C489.078 160.935 488.839 161.053 488.626 161.172C487.744 161.664 486.912 162.247 486.149 162.908C485.838 163.177 485.522 163.488 485.446 163.891C485.357 164.362 485.616 164.821 485.871 165.225C487.65 168.045 489.774 170.646 492.18 172.954C492.577 173.334 493.01 173.722 493.548 173.832M462.971 222.579C462.92 222.711 462.868 222.847 462.871 222.987C462.878 223.39 463.338 223.66 463.739 223.619C464.139 223.577 464.481 223.323 464.8 223.078C467.638 220.897 470.475 218.717 473.313 216.537C473.756 216.197 474.242 215.774 474.239 215.214C474.237 214.778 473.932 214.41 473.643 214.083C472.396 212.67 471.149 211.257 469.902 209.845C469.707 209.624 469.498 209.393 469.216 209.306C468.446 209.069 467.853 209.98 467.562 210.732C466.031 214.681 464.501 218.63 462.971 222.579M477.298 219.008C477.127 218.808 476.946 218.6 476.701 218.504C476.349 218.365 475.953 218.488 475.598 218.62C471.788 220.036 468.37 222.491 465.813 225.65C466.395 225.971 467.095 225.967 467.759 225.954C472.281 225.866 476.802 225.779 481.323 225.691C481.82 225.681 482.506 225.441 482.379 224.961C480.685 222.977 478.992 220.992 477.298 219.008M465.227 136.107C464.92 136.413 464.592 136.766 464.586 137.2C464.582 137.492 464.728 137.763 464.87 138.019C466.454 140.868 468.039 143.718 469.623 146.568C469.965 147.183 470.322 147.817 470.881 148.245C471.439 148.673 472.259 148.844 472.849 148.461C473.671 147.928 474.492 147.395 475.314 146.862C475.92 146.469 476.562 145.582 475.976 145.16C472.58 142.716 469.814 139.406 468.013 135.631C467.773 135.129 467.096 134.973 466.566 135.14C466.036 135.308 465.621 135.714 465.227 136.107M480.184 164.878C480.865 164.203 480.898 163.073 480.521 162.192C480.143 161.311 479.436 160.62 478.747 159.954C476.864 158.135 474.98 156.316 473.097 154.496C472.572 153.989 472.028 153.47 471.349 153.203C470.669 152.936 469.813 152.982 469.308 153.509C468.369 154.489 469.245 156.078 470.119 157.115C471.814 159.127 473.508 161.139 475.202 163.15C475.843 163.91 476.51 164.692 477.401 165.131C478.293 165.571 479.478 165.578 480.184 164.878M483.613 140.873C484.926 140.851 485.767 139.291 485.547 137.997C485.326 136.703 484.399 135.66 483.511 134.693C481.686 132.706 479.861 130.72 478.035 128.733C477.439 128.084 476.649 127.373 475.798 127.603C475.048 127.805 474.666 128.7 474.77 129.469C474.874 130.238 475.335 130.905 475.783 131.539C477.535 134.019 479.287 136.499 481.039 138.979C481.68 139.887 482.502 140.891 483.613 140.873M518.417 208.906C518.366 209.208 518.544 209.497 518.713 209.753C520.443 212.362 522.173 214.97 523.902 217.579C524.419 218.357 525.422 218.779 526.339 218.604C527.256 218.428 528.033 217.666 528.226 216.752C528.503 215.434 527.655 214.169 526.851 213.088C525.407 211.145 523.963 209.203 522.519 207.261C522.069 206.656 521.152 206.577 520.46 206.876C519.769 207.175 519.25 207.762 518.756 208.33C518.608 208.501 518.454 208.683 518.417 208.906M532.764 214.529C533.265 214.186 533.794 213.809 534.015 213.243C534.388 212.286 533.74 211.259 533.123 210.438C531.668 208.504 530.2 206.579 528.719 204.665C528.112 203.881 527.42 203.045 526.448 202.852C525.592 202.682 524.65 203.116 524.223 203.878C523.796 204.639 523.918 205.67 524.51 206.311C526.785 208.774 528.675 211.591 530.091 214.63C530.522 215.556 531.92 215.106 532.764 214.529M458.631 141.767C458.798 142.548 459.331 143.192 459.847 143.802C461.93 146.263 464.013 148.724 466.096 151.185C466.258 151.377 466.423 151.571 466.631 151.711C467.132 152.047 467.86 151.992 468.305 151.585C468.749 151.177 468.867 150.456 468.576 149.928C466.765 146.646 464.954 143.365 463.144 140.083C462.585 139.071 461.243 138.574 460.161 138.978C459.078 139.382 458.39 140.637 458.631 141.767M542.763 229.798C542.459 230.135 542.135 230.521 542.146 230.976C542.155 231.364 542.408 231.698 542.649 232.002C544.342 234.136 546.042 236.263 547.751 238.385C548.034 238.737 548.333 239.1 548.744 239.288C549.741 239.745 550.849 238.998 551.691 238.295C552.063 237.985 552.47 237.593 552.424 237.112C552.397 236.828 552.213 236.587 552.037 236.363C550.067 233.861 548.097 231.358 546.127 228.856C545.714 228.332 544.907 228.268 544.293 228.529C543.678 228.791 543.21 229.302 542.763 229.798M470.913 135.061C472.187 138.52 474.525 141.748 477.879 143.276C478.704 143.652 479.9 143.803 480.321 143C480.746 142.189 479.942 141.31 479.273 140.684C476.614 138.198 475.03 134.803 473.509 131.496C473.033 130.461 471.304 130.75 470.764 131.753C470.224 132.755 470.519 133.992 470.913 135.061M537.7 218.559C537.156 217.816 536.584 217.049 535.771 216.62C534.957 216.191 533.827 216.211 533.237 216.917C532.299 218.041 533.324 219.685 534.274 220.798C536.112 222.95 537.785 225.243 539.272 227.651C539.849 228.585 541.285 227.957 542.131 227.258C542.573 226.893 543.062 226.399 542.932 225.841C542.884 225.639 542.758 225.465 542.635 225.297C540.99 223.051 539.345 220.805 537.7 218.559M533.216 197.8C533.149 198.626 533.622 199.389 534.076 200.082C535.968 202.976 537.874 205.885 540.233 208.413C541.643 208.322 542.453 206.597 542.165 205.213C541.877 203.83 540.87 202.729 539.967 201.642C538.759 200.189 537.672 198.636 536.719 197.004C536.319 196.317 535.45 195.94 534.676 196.116C533.901 196.293 533.281 197.008 533.216 197.8M535.448 231.299C536.065 231.724 536.979 231.647 537.516 231.125C538.099 230.558 538.179 229.621 537.925 228.849C537.671 228.076 537.143 227.43 536.625 226.803C535.128 224.99 533.632 223.177 532.135 221.364C531.577 220.688 530.982 219.984 530.164 219.667C529.346 219.35 528.245 219.581 527.895 220.386C527.526 221.234 528.131 222.167 528.704 222.894C530.725 225.46 532.746 228.027 534.767 230.593C534.97 230.851 535.177 231.113 535.448 231.299M553.054 218.653C552.946 218.232 552.65 217.888 552.364 217.561C550.248 215.145 548.133 212.73 546.018 210.314C545.847 210.12 545.663 209.916 545.414 209.843C545.169 209.77 544.906 209.839 544.66 209.908C544.063 210.074 543.435 210.258 543.005 210.704C542.574 211.15 542.442 211.948 542.897 212.369C544.616 213.963 546.154 215.753 547.469 217.694C548.234 218.823 549.02 220.083 550.305 220.54C551.59 220.997 553.394 219.974 553.054 218.653M492.593 158.215C492.03 158.97 492.401 160.045 492.86 160.868C494.233 163.332 496.219 165.39 498.181 167.417C498.685 167.938 499.213 168.474 499.892 168.725C500.572 168.976 501.449 168.85 501.846 168.244C502.393 167.41 501.769 166.328 501.164 165.536C499.639 163.54 498.114 161.543 496.59 159.547C496.092 158.895 495.567 158.221 494.831 157.86C494.095 157.499 493.083 157.557 492.593 158.215M557.819 230.853C558.49 231.68 559.505 232.597 560.471 232.15C561.312 231.76 561.65 230.46 562.577 230.455C560.951 228.36 559.324 226.265 557.698 224.17C557.043 223.326 556.338 222.444 555.342 222.058C554.345 221.672 552.983 222.019 552.65 223.034C552.343 223.971 553.004 224.925 553.626 225.69C555.023 227.411 556.421 229.132 557.819 230.853M496.89 151.847C495.255 149.289 493.412 146.863 491.384 144.604C490.85 144.009 490.304 143.426 489.758 142.843C489.311 142.367 488.832 141.869 488.203 141.694C487.447 141.483 486.571 141.837 486.174 142.513C485.776 143.189 485.893 144.126 486.444 144.684C488.597 146.863 490.75 149.042 492.902 151.221C493.468 151.793 494.066 152.385 494.835 152.621C495.604 152.856 496.589 152.593 496.89 151.847M506.912 164.003C507.111 163.846 507.326 163.661 507.352 163.409C507.38 163.142 507.187 162.909 507.008 162.711C504.669 160.137 502.33 157.563 499.992 154.988C499.528 154.478 498.929 153.919 498.253 154.056C497.598 154.19 497.241 154.964 497.33 155.627C497.419 156.29 497.829 156.859 498.225 157.398C499.194 158.713 500.163 160.028 501.132 161.343C502.269 162.887 503.459 164.479 505.138 165.407C505.729 164.939 506.321 164.471 506.912 164.003M541.526 214.472C540.958 213.847 540.204 213.161 539.386 213.375C538.65 213.567 538.28 214.454 538.398 215.206C538.515 215.958 538.988 216.599 539.445 217.207C540.761 218.955 542.078 220.702 543.394 222.45C544.079 223.36 545.045 224.379 546.151 224.106C547.13 223.864 547.593 222.649 547.372 221.665C547.151 220.681 546.448 219.888 545.77 219.142C544.355 217.585 542.941 216.029 541.526 214.472M537.966 233.744C537.33 234.744 538.051 236.032 538.774 236.971C539.906 238.439 541.097 239.862 542.342 241.236C542.835 241.779 543.378 242.34 544.089 242.518C544.862 242.712 545.74 242.364 546.171 241.693C546.602 241.023 546.553 240.08 546.056 239.457C544.892 238.001 543.729 236.544 542.565 235.088C541.978 234.352 541.357 233.59 540.498 233.205C539.639 232.82 538.471 232.949 537.966 233.744M481.223 145.855C480.686 146.641 481.389 147.661 482.051 148.344C484.365 150.728 486.679 153.112 488.993 155.495C489.482 156 490.076 156.544 490.775 156.472C491.655 156.381 492.138 155.292 491.928 154.432C491.718 153.572 491.048 152.912 490.408 152.301C488.376 150.361 486.344 148.422 484.312 146.482C483.876 146.066 483.422 145.639 482.852 145.445C482.283 145.25 481.562 145.358 481.223 145.855M530.215 199.393C529.449 199.403 528.928 200.274 528.998 201.036C529.067 201.799 529.542 202.456 530 203.071C531.646 205.281 533.292 207.491 534.938 209.701C535.259 210.132 535.597 210.577 536.073 210.825C536.55 211.073 537.208 211.061 537.554 210.65C538.052 210.058 537.622 209.17 537.188 208.531C535.389 205.882 533.59 203.234 531.792 200.586C531.405 200.016 530.903 199.384 530.215 199.393M556.648 233.339C554.581 230.846 552.514 228.353 550.447 225.859C550.198 225.559 549.925 225.243 549.548 225.143C548.812 224.948 548.116 225.741 548.11 226.502C548.105 227.263 548.557 227.943 549.003 228.56C550.381 230.464 551.871 232.286 553.464 234.013C554.03 234.626 554.678 235.264 555.507 235.367C556.335 235.47 557.282 234.699 557.013 233.908C556.94 233.694 556.793 233.514 556.648 233.339M488.028 175.535C488.55 176.101 489.162 176.708 489.931 176.719C490.7 176.731 491.39 175.686 490.813 175.177C488.47 173.109 486.391 170.743 484.64 168.154C484.17 167.46 483.674 166.708 482.895 166.397C482.116 166.087 481.001 166.522 480.982 167.36C480.97 167.857 481.329 168.276 481.666 168.641C483.787 170.939 485.908 173.237 488.028 175.535M530.873 164.554C531.111 166.345 532.832 167.813 534.639 167.765C534.935 167.757 535.251 167.703 535.465 167.499C535.676 167.298 535.744 166.995 535.803 166.71C536.077 165.381 536.095 163.581 534.812 163.138C534.284 162.956 533.693 163.097 533.152 162.955C532.774 162.855 532.426 162.619 532.035 162.62C531.182 162.623 530.761 163.708 530.873 164.554M462.656 226.203C462.13 225.638 461.336 225.385 460.564 225.36C460.144 225.346 459.706 225.398 459.347 225.618C459.022 225.817 458.787 226.14 458.636 226.49C457.952 228.072 459.356 230.172 461.075 230.042C462.794 229.913 463.831 227.465 462.656 226.203M496.101 199.209C496.838 199.17 497.494 198.525 497.544 197.788C497.569 197.437 497.466 197.078 497.261 196.792C496.645 195.935 495.099 196.072 494.643 197.023C494.187 197.974 495.048 199.265 496.101 199.209M503.5 174.958C503.787 175.135 504.096 175.319 504.434 175.308C504.771 175.297 505.12 174.997 505.048 174.668C503.738 173.462 502.428 172.256 501.117 171.05C500.777 171.815 501.035 172.74 501.547 173.402C502.059 174.064 502.788 174.518 503.5 174.958M524.372 197.616C524.882 198.058 525.699 197.301 525.561 196.64C525.422 195.98 524.786 195.563 524.204 195.221C523.622 194.88 522.985 194.467 522.841 193.808C521.996 195.053 523.234 196.631 524.372 197.616L524.372 197.616Z" fill="#00160A"/>
</svg>
